<svg fill="none" height="494" viewBox="0 0 911 494" width="911" xmlns="http://www.w3.org/2000/svg"><path d="m0 0h911v494h-911z" fill="#fff"/><g fill="#000"><path d="m33.7129 303h1.7519v-8.455h-1.7578l-2.1855 1.517v1.594l2.1562-1.488h.0352zm4.6514 1.816 3-10.271h-1.5761l-3.0059 10.271zm5.7296-1.816h1.7519v-8.455h-1.7578l-2.1855 1.517v1.594l2.1562-1.488h.0352zm7.0772.193c1.8926 0 3.2461-1.248 3.2461-2.988 0-1.605-1.1895-2.789-2.7949-2.789-1.0782 0-1.9102.551-2.25 1.377h-.0352c-.041-1.91.6738-3.041 1.8516-3.041.6621 0 1.207.375 1.3769.937h1.7403c-.2344-1.382-1.4942-2.337-3.1055-2.337-2.1856 0-3.5449 1.687-3.5449 4.488 0 1.125.2402 2.08.709 2.795.5917 1.008 1.5937 1.558 2.8066 1.558zm-.0176-1.412c-.8672 0-1.541-.679-1.541-1.541 0-.855.668-1.494 1.5469-1.494.8847 0 1.5351.639 1.5351 1.512 0 .849-.6797 1.523-1.541 1.523z"/><path d="m33.7129 447h1.7519v-8.455h-1.7578l-2.1855 1.517v1.594l2.1562-1.488h.0352zm4.6514 1.816 3-10.271h-1.5761l-3.0059 10.271zm5.7296-1.816h1.7519v-8.455h-1.7578l-2.1855 1.517v1.594l2.1562-1.488h.0352zm3.5674-5.912v.029h1.6407v-.029c0-.779.6035-1.354 1.4238-1.354.7851 0 1.3418.504 1.3418 1.137 0 .586-.2637 1.014-1.1192 1.869l-3.1875 3.071v1.189h6.1465v-1.406h-3.8144v-.035l2.0625-1.987c.9316-.926 1.6347-1.717 1.6347-2.771 0-1.412-1.2246-2.444-3.0058-2.444-1.8457 0-3.1231 1.131-3.1231 2.731zm10.6749 6.1c2.0332 0 3.4277-1.008 3.4277-2.473 0-1.113-.8027-1.975-1.9863-2.174v-.035c.9844-.235 1.6406-.99 1.6406-1.91 0-1.301-1.2656-2.239-3.082-2.239-1.8105 0-3.0879.944-3.0879 2.233 0 .931.6621 1.687 1.6465 1.916v.035c-1.1777.193-1.9863 1.055-1.9863 2.168 0 1.465 1.3769 2.479 3.4277 2.479zm0-1.29c-.9316 0-1.582-.556-1.582-1.318s.6504-1.318 1.582-1.318 1.5762.556 1.5762 1.318-.6446 1.318-1.5762 1.318zm0-3.925c-.7852 0-1.3359-.493-1.3359-1.166 0-.674.5507-1.172 1.3359-1.172.7793 0 1.3359.492 1.3359 1.172 0 .673-.5566 1.166-1.3359 1.166z"/><path d="m33.7129 351h1.7519v-8.455h-1.7578l-2.1855 1.517v1.594l2.1562-1.488h.0352zm4.6514 1.816 3-10.271h-1.5761l-3.0059 10.271zm5.671-5.507h1.043c.955 0 1.5351.468 1.5351 1.242 0 .715-.6211 1.213-1.5058 1.213-.9317 0-1.5176-.469-1.5704-1.184h-1.6933c.082 1.559 1.3301 2.608 3.2402 2.608 1.9512 0 3.3281-1.008 3.3281-2.526 0-1.172-.8144-1.933-2.0742-2.039v-.035c1.0371-.188 1.7461-.938 1.7461-1.975 0-1.353-1.2012-2.256-2.959-2.256-1.834 0-3.0527 1.02-3.1172 2.584h1.6289c.0469-.738.5918-1.224 1.4122-1.224.8789 0 1.3652.451 1.3652 1.137 0 .697-.5449 1.177-1.3535 1.177h-1.0254zm5.419-2.221v.029h1.6406v-.029c0-.779.6035-1.354 1.4238-1.354.7852 0 1.3418.504 1.3418 1.137 0 .586-.2636 1.014-1.1191 1.869l-3.1875 3.071v1.189h6.1465v-1.406h-3.8145v-.035l2.0625-1.987c.9317-.926 1.6348-1.717 1.6348-2.771 0-1.412-1.2246-2.444-3.0059-2.444-1.8457 0-3.123 1.131-3.123 2.731z"/><path d="m33.7129 399h1.7519v-8.455h-1.7578l-2.1855 1.517v1.594l2.1562-1.488h.0352zm4.6514 1.816 3-10.271h-1.5761l-3.0059 10.271zm7.0245-1.623c1.8926 0 3.2461-1.248 3.2461-2.988 0-1.605-1.1895-2.789-2.7949-2.789-1.0782 0-1.9102.551-2.25 1.377h-.0352c-.041-1.91.6738-3.041 1.8516-3.041.6621 0 1.207.375 1.3769.937h1.7403c-.2344-1.382-1.4942-2.337-3.1055-2.337-2.1855 0-3.5449 1.687-3.5449 4.488 0 1.125.2402 2.08.709 2.795.5918 1.008 1.5937 1.558 2.8066 1.558zm-.0176-1.412c-.8672 0-1.541-.679-1.541-1.541 0-.855.668-1.494 1.5469-1.494.8847 0 1.5351.639 1.5351 1.512 0 .849-.6796 1.523-1.541 1.523zm8.378 1.219h1.6817v-1.506h1.1015v-1.418h-1.1015v-5.531h-2.4961c-1.7344 2.555-2.6543 4.037-3.3926 5.443v1.506h4.207zm-2.6543-2.918c.6856-1.324 1.4238-2.478 2.6543-4.283h.0352v4.33h-2.6895z"/><path d="m33.7129 255h1.7519v-8.455h-1.7578l-2.1855 1.517v1.594l2.1562-1.488h.0352zm4.6514 1.816 3-10.271h-1.5761l-3.0059 10.271zm6.9308-1.628c2.0332 0 3.4277-1.008 3.4277-2.473 0-1.113-.8027-1.975-1.9863-2.174v-.035c.9843-.235 1.6406-.99 1.6406-1.91 0-1.301-1.2656-2.239-3.082-2.239-1.8106 0-3.0879.944-3.0879 2.233 0 .931.6621 1.687 1.6464 1.916v.035c-1.1777.193-1.9863 1.055-1.9863 2.168 0 1.465 1.377 2.479 3.4278 2.479zm0-1.29c-.9317 0-1.5821-.556-1.5821-1.318s.6504-1.318 1.5821-1.318c.9316 0 1.5761.556 1.5761 1.318s-.6445 1.318-1.5761 1.318zm0-3.925c-.7852 0-1.336-.493-1.336-1.166 0-.674.5508-1.172 1.336-1.172.7792 0 1.3359.492 1.3359 1.172 0 .673-.5567 1.166-1.3359 1.166z"/><path d="m33.7129 207h1.7519v-8.455h-1.7578l-2.1855 1.517v1.594l2.1562-1.488h.0352zm4.6514 1.816 3-10.271h-1.5761l-3.0059 10.271zm7.6456-1.816h1.6816v-1.506h1.1016v-1.418h-1.1016v-5.531h-2.4961c-1.7343 2.555-2.6543 4.037-3.3925 5.443v1.506h4.207zm-2.6543-2.918c.6855-1.324 1.4238-2.478 2.6543-4.283h.0352v4.33h-2.6895z"/><path d="m33.7129 159h1.7519v-8.455h-1.7578l-2.1855 1.517v1.594l2.1562-1.488h.0352zm4.6514 1.816 3-10.271h-1.5761l-3.0059 10.271zm3.5147-7.728v.029h1.6407v-.029c0-.779.6035-1.354 1.4238-1.354.7851 0 1.3418.504 1.3418 1.137 0 .586-.2637 1.014-1.1192 1.869l-3.1875 3.071v1.189h6.1465v-1.406h-3.8144v-.035l2.0625-1.987c.9316-.926 1.6347-1.717 1.6347-2.771 0-1.412-1.2246-2.444-3.0058-2.444-1.8457 0-3.1231 1.131-3.1231 2.731z"/></g><g fill="#828282"><path d="m99 144h382v22h-382z"/><path d="m483 144h382v22h-382z"/><path d="m99 192h190v22h-190z"/><path d="m291 192h190v22h-190z"/><path d="m483 192h190v22h-190z"/><path d="m675 192h190v22h-190z"/><path d="m99 240h94v22h-94z"/><path d="m195 240h94v22h-94z"/><path d="m291 240h94v22h-94z"/><path d="m387 240h94v22h-94z"/><path d="m483 240h94v22h-94z"/><path d="m579 240h94v22h-94z"/><path d="m675 240h94v22h-94z"/><path d="m771 240h94v22h-94z"/><path d="m99 288h46v22h-46z"/><path d="m147 288h46v22h-46z"/><path d="m195 288h46v22h-46z"/><path d="m243 288h46v22h-46z"/><path d="m291 288h46v22h-46z"/><path d="m339 288h46v22h-46z"/><path d="m387 288h46v22h-46z"/><path d="m435 288h46v22h-46z"/><path d="m483 288h46v22h-46z"/><path d="m531 288h46v22h-46z"/><path d="m579 288h46v22h-46z"/><path d="m627 288h46v22h-46z"/><path d="m675 288h46v22h-46z"/><path d="m723 288h46v22h-46z"/><path d="m771 288h46v22h-46z"/><path d="m819 288h46v22h-46z"/><path d="m99 336h22v22h-22z"/><path d="m123 336h22v22h-22z"/><path d="m147 336h22v22h-22z"/><path d="m171 336h22v22h-22z"/><path d="m195 336h22v22h-22z"/><path d="m219 336h22v22h-22z"/><path d="m243 336h22v22h-22z"/><path d="m267 336h22v22h-22z"/><path d="m291 336h22v22h-22z"/><path d="m315 336h22v22h-22z"/><path d="m339 336h22v22h-22z"/><path d="m363 336h22v22h-22z"/><path d="m387 336h22v22h-22z"/><path d="m411 336h22v22h-22z"/><path d="m435 336h22v22h-22z"/><path d="m459 336h22v22h-22z"/><path d="m483 336h22v22h-22z"/><path d="m507 336h22v22h-22z"/><path d="m531 336h22v22h-22z"/><path d="m555 336h22v22h-22z"/><path d="m579 336h22v22h-22z"/><path d="m603 336h22v22h-22z"/><path d="m627 336h22v22h-22z"/><path d="m651 336h22v22h-22z"/><path d="m675 336h22v22h-22z"/><path d="m699 336h22v22h-22z"/><path d="m723 336h22v22h-22z"/><path d="m747 336h22v22h-22z"/><path d="m771 336h22v22h-22z"/><path d="m795 336h22v22h-22z"/><path d="m819 336h22v22h-22z"/><path d="m843 336h22v22h-22z"/><path d="m99 432h4v22h-4z"/><path d="m105 432h4v22h-4z"/><path d="m111 432h4v22h-4z"/><path d="m117 432h4v22h-4z"/><path d="m123 432h4v22h-4z"/><path d="m129 432h4v22h-4z"/><path d="m135 432h4v22h-4z"/><path d="m141 432h4v22h-4z"/><path d="m147 432h4v22h-4z"/><path d="m153 432h4v22h-4z"/><path d="m159 432h4v22h-4z"/><path d="m165 432h4v22h-4z"/><path d="m171 432h4v22h-4z"/><path d="m177 432h4v22h-4z"/><path d="m183 432h4v22h-4z"/><path d="m189 432h4v22h-4z"/><path d="m195 432h4v22h-4z"/><path d="m201 432h4v22h-4z"/><path d="m207 432h4v22h-4z"/><path d="m213 432h4v22h-4z"/><path d="m219 432h4v22h-4z"/><path d="m225 432h4v22h-4z"/><path d="m231 432h4v22h-4z"/><path d="m237 432h4v22h-4z"/><path d="m243 432h4v22h-4z"/><path d="m249 432h4v22h-4z"/><path d="m255 432h4v22h-4z"/><path d="m261 432h4v22h-4z"/><path d="m267 432h4v22h-4z"/><path d="m273 432h4v22h-4z"/><path d="m279 432h4v22h-4z"/><path d="m285 432h4v22h-4z"/><path d="m291 432h4v22h-4z"/><path d="m297 432h4v22h-4z"/><path d="m303 432h4v22h-4z"/><path d="m309 432h4v22h-4z"/><path d="m315 432h4v22h-4z"/><path d="m321 432h4v22h-4z"/><path d="m327 432h4v22h-4z"/><path d="m333 432h4v22h-4z"/><path d="m339 432h4v22h-4z"/><path d="m345 432h4v22h-4z"/><path d="m351 432h4v22h-4z"/><path d="m357 432h4v22h-4z"/><path d="m363 432h4v22h-4z"/><path d="m369 432h4v22h-4z"/><path d="m375 432h4v22h-4z"/><path d="m381 432h4v22h-4z"/><path d="m387 432h4v22h-4z"/><path d="m393 432h4v22h-4z"/><path d="m399 432h4v22h-4z"/><path d="m405 432h4v22h-4z"/><path d="m411 432h4v22h-4z"/><path d="m417 432h4v22h-4z"/><path d="m423 432h4v22h-4z"/><path d="m429 432h4v22h-4z"/><path d="m435 432h4v22h-4z"/><path d="m441 432h4v22h-4z"/><path d="m447 432h4v22h-4z"/><path d="m453 432h4v22h-4z"/><path d="m459 432h4v22h-4z"/><path d="m465 432h4v22h-4z"/><path d="m471 432h4v22h-4z"/><path d="m477 432h4v22h-4z"/><path d="m483 432h4v22h-4z"/><path d="m489 432h4v22h-4z"/><path d="m495 432h4v22h-4z"/><path d="m501 432h4v22h-4z"/><path d="m507 432h4v22h-4z"/><path d="m513 432h4v22h-4z"/><path d="m519 432h4v22h-4z"/><path d="m525 432h4v22h-4z"/><path d="m531 432h4v22h-4z"/><path d="m537 432h4v22h-4z"/><path d="m543 432h4v22h-4z"/><path d="m549 432h4v22h-4z"/><path d="m555 432h4v22h-4z"/><path d="m561 432h4v22h-4z"/><path d="m567 432h4v22h-4z"/><path d="m573 432h4v22h-4z"/><path d="m579 432h4v22h-4z"/><path d="m585 432h4v22h-4z"/><path d="m591 432h4v22h-4z"/><path d="m597 432h4v22h-4z"/><path d="m603 432h4v22h-4z"/><path d="m609 432h4v22h-4z"/><path d="m615 432h4v22h-4z"/><path d="m621 432h4v22h-4z"/><path d="m627 432h4v22h-4z"/><path d="m633 432h4v22h-4z"/><path d="m639 432h4v22h-4z"/><path d="m645 432h4v22h-4z"/><path d="m651 432h4v22h-4z"/><path d="m657 432h4v22h-4z"/><path d="m663 432h4v22h-4z"/><path d="m669 432h4v22h-4z"/><path d="m675 432h4v22h-4z"/><path d="m681 432h4v22h-4z"/><path d="m687 432h4v22h-4z"/><path d="m693 432h4v22h-4z"/><path d="m699 432h4v22h-4z"/><path d="m705 432h4v22h-4z"/><path d="m711 432h4v22h-4z"/><path d="m717 432h4v22h-4z"/><path d="m723 432h4v22h-4z"/><path d="m729 432h4v22h-4z"/><path d="m735 432h4v22h-4z"/><path d="m741 432h4v22h-4z"/><path d="m747 432h4v22h-4z"/><path d="m753 432h4v22h-4z"/><path d="m759 432h4v22h-4z"/><path d="m765 432h4v22h-4z"/><path d="m771 432h4v22h-4z"/><path d="m777 432h4v22h-4z"/><path d="m783 432h4v22h-4z"/><path d="m789 432h4v22h-4z"/><path d="m795 432h4v22h-4z"/><path d="m801 432h4v22h-4z"/><path d="m807 432h4v22h-4z"/><path d="m813 432h4v22h-4z"/><path d="m819 432h4v22h-4z"/><path d="m825 432h4v22h-4z"/><path d="m831 432h4v22h-4z"/><path d="m837 432h4v22h-4z"/><path d="m843 432h4v22h-4z"/><path d="m849 432h4v22h-4z"/><path d="m855 432h4v22h-4z"/><path d="m861 432h4v22h-4z"/><path d="m675 384h10v22h-10z"/><path d="m687 384h10v22h-10z"/><path d="m699 384h10v22h-10z"/><path d="m663 384h10v22h-10z"/><path d="m651 384h10v22h-10z"/><path d="m639 384h10v22h-10z"/><path d="m627 384h10v22h-10z"/><path d="m615 384h10v22h-10z"/><path d="m603 384h10v22h-10z"/><path d="m591 384h10v22h-10z"/><path d="m579 384h10v22h-10z"/><path d="m567 384h10v22h-10z"/><path d="m555 384h10v22h-10z"/><path d="m543 384h10v22h-10z"/><path d="m531 384h10v22h-10z"/><path d="m519 384h10v22h-10z"/><path d="m507 384h10v22h-10z"/><path d="m495 384h10v22h-10z"/><path d="m483 384h10v22h-10z"/><path d="m471 384h10v22h-10z"/><path d="m459 384h10v22h-10z"/><path d="m447 384h10v22h-10z"/><path d="m435 384h10v22h-10z"/><path d="m423 384h10v22h-10z"/><path d="m411 384h10v22h-10z"/><path d="m399 384h10v22h-10z"/><path d="m387 384h10v22h-10z"/><path d="m375 384h10v22h-10z"/><path d="m363 384h10v22h-10z"/><path d="m351 384h10v22h-10z"/><path d="m339 384h10v22h-10z"/><path d="m327 384h10v22h-10z"/><path d="m315 384h10v22h-10z"/><path d="m303 384h10v22h-10z"/><path d="m291 384h10v22h-10z"/><path d="m279 384h10v22h-10z"/><path d="m267 384h10v22h-10z"/><path d="m255 384h10v22h-10z"/><path d="m243 384h10v22h-10z"/><path d="m231 384h10v22h-10z"/><path d="m219 384h10v22h-10z"/><path d="m207 384h10v22h-10z"/><path d="m195 384h10v22h-10z"/><path d="m183 384h10v22h-10z"/><path d="m171 384h10v22h-10z"/><path d="m159 384h10v22h-10z"/><path d="m147 384h10v22h-10z"/><path d="m135 384h10v22h-10z"/><path d="m123 384h10v22h-10z"/><path d="m111 384h10v22h-10z"/><path d="m99 384h10v22h-10z"/><path d="m711 384h10v22h-10z"/><path d="m735 384h10v22h-10z"/><path d="m747 384h10v22h-10z"/><path d="m759 384h10v22h-10z"/><path d="m723 384h10v22h-10z"/><path d="m771 384h10v22h-10z"/><path d="m783 384h10v22h-10z"/><path d="m795 384h10v22h-10z"/><path d="m807 384h10v22h-10z"/><path d="m819 384h10v22h-10z"/><path d="m831 384h10v22h-10z"/><path d="m843 384h10v22h-10z"/><path d="m855 384h10v22h-10z"/></g><path d="m36.4004 100h1.9619v-1.7568h1.2852v-1.6543h-1.2852v-6.4532h-2.9121c-2.0234 2.9805-3.0967 4.71-3.958 6.3506v1.7569h4.9082zm-3.0967-3.4043c.7998-1.5449 1.6611-2.8916 3.0967-4.9971h.041v5.0518h-3.1377zm14.5871 3.5203c1.8457 0 2.9736-1.4217 2.9736-3.7801 0-2.3652-1.1348-3.7802-2.9805-3.7802-1.0459 0-1.8594.5195-2.2627 1.3877h-.041v-3.8077h-1.9961v9.8643h1.9688v-1.2578h.041c.4033.8545 1.2236 1.3738 2.2969 1.3738zm-.6905-5.9607c.9912 0 1.6201.8476 1.6201 2.1806 0 1.3399-.622 2.1739-1.6201 2.1739-.9707 0-1.6269-.8477-1.6269-2.1739 0-1.3125.6631-2.1806 1.6269-2.1806zm8.0079-.1641c.8887 0 1.4971.6426 1.5381 1.5791h-3.1104c.0684-.916.6973-1.5791 1.5723-1.5791zm1.5654 3.7666c-.1845.5606-.7451.9229-1.4765.9229-1.0186 0-1.6817-.7178-1.6817-1.7637v-.1231h5.0518v-.6084c0-2.2285-1.3467-3.6709-3.4795-3.6709-2.167 0-3.5342 1.5176-3.5342 3.8555 0 2.3447 1.3535 3.7869 3.6094 3.7869 1.8115 0 3.124-.9636 3.3428-2.3992zm5.7726.916c-.6768 0-1.128-.3418-1.128-.8886 0-.5196.4239-.8545 1.169-.9092l1.5449-.0957v.5332c0 .7929-.7178 1.3603-1.5859 1.3603zm-.6563 1.4422c.916 0 1.8252-.4578 2.2354-1.2371h.041v1.1211h1.9277v-5.0381c0-1.4765-1.2236-2.4473-3.1035-2.4473-1.9414 0-3.1514.9776-3.2266 2.3995h1.8252c.0957-.5401.5674-.9092 1.3125-.9092.752 0 1.2305.3965 1.2305 1.0801v.4853l-1.8457.1094c-1.8252.1094-2.8506.8818-2.8506 2.2148 0 1.3194 1.0596 2.2215 2.4541 2.2215zm6.046-9.1326v1.6885h-1.0323v1.5039h1.0323v3.8486c0 1.4287.6699 2.0026 2.3925 2.0026.4034 0 .7452-.0338.9502-.0817v-1.4697c-.123.0205-.3076.0342-.4853.0342-.5879 0-.8613-.2666-.8613-.8272v-3.5068h1.3535v-1.5039h-1.3535v-1.6885zm4.337 3.8418c0 1.0801.7109 1.8047 2.0986 2.1191l1.3535.3008c.6562.1572.9023.3623.9023.7315 0 .4785-.458.7793-1.2168.7793-.7929 0-1.2783-.3555-1.374-.9707h-1.9482c.1094 1.4287 1.3125 2.3718 3.2676 2.3718 1.9345 0 3.2607-.95 3.2607-2.3924 0-1.0937-.5947-1.6748-2.0645-2.0029l-1.4013-.3008c-.6426-.1504-.9571-.3964-.9571-.7588 0-.4716.4512-.7861 1.1417-.7861.7382 0 1.2099.3623 1.2509.9502h1.8389c-.0273-1.4219-1.2236-2.3516-3.0625-2.3516-1.8799 0-3.0898.9161-3.0898 2.3106z" fill="#000"/><path d="m34.165 54h2.044v-9.8643h-2.0508l-2.5498 1.7705v1.8594l2.5156-1.7363h.041zm11.3742.1162c1.8457 0 2.9736-1.4219 2.9736-3.7803 0-2.3652-1.1347-3.7802-2.9804-3.7802-1.0459 0-1.8594.5195-2.2627 1.3877h-.0411v-3.8077h-1.996v9.8643h1.9687v-1.2578h.041c.4033.8545 1.2237 1.374 2.2969 1.374zm-.6904-5.9609c.9912 0 1.6201.8476 1.6201 2.1806 0 1.3399-.6221 2.1739-1.6201 2.1739-.9707 0-1.627-.8477-1.627-2.1739 0-1.3125.6631-2.1806 1.627-2.1806zm7.5498 4.5185c-.6767 0-1.1279-.3418-1.1279-.8886 0-.5196.4238-.8545 1.1689-.9092l1.545-.0957v.5332c0 .7929-.7178 1.3603-1.586 1.3603zm-.6562 1.4424c.916 0 1.8252-.458 2.2353-1.2373h.041v1.1211h1.9278v-5.0381c0-1.4765-1.2236-2.4473-3.1035-2.4473-1.9414 0-3.1514.9776-3.2266 2.3995h1.8252c.0957-.5401.5674-.9092 1.3125-.9092.752 0 1.2305.3965 1.2305 1.0801v.4853l-1.8457.1094c-1.8252.1094-2.8506.8818-2.8506 2.2148 0 1.3194 1.0596 2.2217 2.4541 2.2217zm5.5127-.1162h1.9961v-4.0947c0-1.0323.5743-1.6338 1.5586-1.6338.2871 0 .5606.0478.7246.1162v-1.7568c-.1367-.0411-.3349-.0752-.5673-.0752-.8614 0-1.4834.5058-1.7432 1.4355h-.041v-1.3193h-1.9278z" fill="#000"/><g fill="#c4c4c4"><path d="m97 38h766v22h-766z"/><path d="m99 84h190v22h-190z"/><path d="m291 84h190v22h-190z"/><path d="m483 84h190v22h-190z"/><path d="m675 84h190v22h-190z"/></g></svg>