<svg fill="none" viewBox="0 0 743 269" xmlns="http://www.w3.org/2000/svg"><path d="m0 0h743v269h-743z" fill="#f8f8f8"/><rect fill="#fff" height="44" rx="3.5" stroke="#bdbdbd" stroke-width="3" width="101" x="610.5" y="111.5"/><path d="m629.703 129.545v8.455h3.229c2.537 0 4.031-1.576 4.031-4.26 0-2.683-1.494-4.195-4.031-4.195zm1.77 1.459h1.248c1.558 0 2.437.973 2.437 2.742 0 1.828-.855 2.789-2.437 2.789h-1.248zm9.321 1.846c.762 0 1.283.55 1.318 1.353h-2.666c.059-.785.598-1.353 1.348-1.353zm1.342 3.228c-.158.481-.639.791-1.266.791-.873 0-1.441-.615-1.441-1.512v-.105h4.33v-.522c0-1.91-1.154-3.146-2.983-3.146-1.857 0-3.029 1.301-3.029 3.305 0 2.009 1.16 3.246 3.094 3.246 1.553 0 2.678-.826 2.865-2.057zm2.419-2.514c0 .926.609 1.547 1.799 1.817l1.16.258c.562.134.773.31.773.627 0 .41-.392.668-1.043.668-.679 0-1.095-.305-1.177-.832h-1.67c.093 1.224 1.125 2.033 2.8 2.033 1.659 0 2.795-.815 2.795-2.051 0-.938-.509-1.436-1.769-1.717l-1.201-.258c-.551-.129-.821-.339-.821-.65 0-.404.387-.674.979-.674.633 0 1.037.311 1.072.815h1.576c-.023-1.219-1.049-2.016-2.625-2.016-1.611 0-2.648.785-2.648 1.98zm6.766-3.293v1.448h-.884v1.289h.884v3.299c0 1.224.575 1.716 2.051 1.716.346 0 .639-.029.815-.07v-1.26c-.106.018-.264.03-.416.03-.504 0-.739-.229-.739-.709v-3.006h1.161v-1.289h-1.161v-1.448zm3.855 7.729h1.711v-6.281h-1.711zm.856-6.973c.515 0 .914-.392.914-.884 0-.498-.399-.885-.914-.885-.516 0-.915.387-.915.885 0 .492.399.884.915.884zm2.014 6.973h1.711v-3.604c0-.814.486-1.376 1.254-1.376s1.154.468 1.154 1.289v3.691h1.711v-4.049c0-1.471-.785-2.349-2.179-2.349-.967 0-1.629.457-1.963 1.236h-.035v-1.119h-1.653zm9.357-1.137c-.58 0-.967-.293-.967-.761 0-.446.363-.733 1.002-.78l1.324-.082v.457c0 .68-.615 1.166-1.359 1.166zm-.563 1.237c.785 0 1.565-.393 1.916-1.061h.035v.961h1.653v-4.318c0-1.266-1.049-2.098-2.66-2.098-1.664 0-2.702.838-2.766 2.057h1.564c.082-.463.487-.78 1.125-.78.645 0 1.055.34 1.055.926v.416l-1.582.094c-1.564.094-2.443.756-2.443 1.898 0 1.131.908 1.905 2.103 1.905zm5.185-7.829v1.448h-.885v1.289h.885v3.299c0 1.224.574 1.716 2.051 1.716.345 0 .638-.029.814-.07v-1.26c-.105.018-.264.03-.416.03-.504 0-.738-.229-.738-.709v-3.006h1.16v-1.289h-1.16v-1.448zm3.854 7.729h1.711v-6.281h-1.711zm.856-6.973c.516 0 .914-.392.914-.884 0-.498-.398-.885-.914-.885s-.914.387-.914.885c0 .492.398.884.914.884zm4.897 7.108c1.899 0 3.112-1.213 3.112-3.281 0-2.04-1.231-3.27-3.112-3.27-1.88 0-3.111 1.236-3.111 3.27 0 2.062 1.213 3.281 3.111 3.281zm0-1.307c-.843 0-1.377-.709-1.377-1.969 0-1.248.545-1.968 1.377-1.968s1.372.72 1.372 1.968c0 1.26-.534 1.969-1.372 1.969zm4.013 1.172h1.711v-3.604c0-.814.486-1.376 1.254-1.376s1.154.468 1.154 1.289v3.691h1.711v-4.049c0-1.471-.785-2.349-2.179-2.349-.967 0-1.629.457-1.963 1.236h-.035v-1.119h-1.653z" fill="#000"/><circle cx="610.5" cy="133.5" fill="#bdbdbd" r="7.5"/><rect fill="#fff" height="44" rx="3.5" stroke="#bdbdbd" stroke-width="3" width="80" x="176.5" y="111.5"/><path d="m199.473 130.928h1.506c.878 0 1.429.527 1.429 1.347 0 .838-.521 1.348-1.412 1.348h-1.523zm0 3.978h1.418l1.576 3.094h2.004l-1.782-3.357c.973-.381 1.536-1.319 1.536-2.403 0-1.67-1.114-2.695-3.059-2.695h-3.463v8.455h1.77zm8.548-2.056c.761 0 1.283.55 1.318 1.353h-2.666c.059-.785.598-1.353 1.348-1.353zm1.341 3.228c-.158.481-.638.791-1.265.791-.873 0-1.442-.615-1.442-1.512v-.105h4.33v-.522c0-1.91-1.154-3.146-2.982-3.146-1.857 0-3.029 1.301-3.029 3.305 0 2.009 1.16 3.246 3.093 3.246 1.553 0 2.678-.826 2.866-2.057zm8.173-4.359h-1.787l-1.301 4.769h-.035l-1.306-4.769h-1.834l2.173 6.281h1.934zm3.257 1.131c.762 0 1.283.55 1.319 1.353h-2.666c.058-.785.597-1.353 1.347-1.353zm1.342 3.228c-.158.481-.639.791-1.266.791-.873 0-1.441-.615-1.441-1.512v-.105h4.33v-.522c0-1.91-1.154-3.146-2.982-3.146-1.858 0-3.03 1.301-3.03 3.305 0 2.009 1.16 3.246 3.094 3.246 1.553 0 2.678-.826 2.865-2.057zm2.524 1.922h1.711v-3.51c0-.885.493-1.4 1.336-1.4.246 0 .481.041.621.099v-1.505c-.117-.036-.287-.065-.486-.065-.738 0-1.271.434-1.494 1.231h-.035v-1.131h-1.653zm8.121.1c1.582 0 2.548-1.219 2.548-3.241 0-2.027-.972-3.24-2.554-3.24-.897 0-1.594.445-1.94 1.19h-.035v-3.264h-1.711v8.455h1.688v-1.078h.035c.346.732 1.049 1.178 1.969 1.178zm-.592-5.11c.849 0 1.389.727 1.389 1.869 0 1.149-.534 1.864-1.389 1.864-.832 0-1.395-.727-1.395-1.864 0-1.125.569-1.869 1.395-1.869z" fill="#000"/><circle cx="176.5" cy="133.5" fill="#bdbdbd" r="7.5"/><circle cx="256.5" cy="133.5" fill="#bdbdbd" r="7.5"/><rect fill="#fff" height="44" rx="3.5" stroke="#bdbdbd" stroke-width="3" width="100" x="313.5" y="111.5"/><path d="m334.441 138.146c2.075 0 3.522-1.195 3.721-3.082h-1.723c-.187 1.002-.943 1.618-1.992 1.618-1.353 0-2.203-1.114-2.203-2.918 0-1.782.861-2.901 2.197-2.901 1.032 0 1.829.68 1.993 1.717h1.722c-.135-1.892-1.681-3.182-3.715-3.182-2.449 0-4.002 1.647-4.002 4.372 0 2.73 1.541 4.376 4.002 4.376zm7.57-.011c1.898 0 3.111-1.213 3.111-3.281 0-2.04-1.23-3.27-3.111-3.27s-3.112 1.236-3.112 3.27c0 2.062 1.213 3.281 3.112 3.281zm0-1.307c-.844 0-1.377-.709-1.377-1.969 0-1.248.545-1.968 1.377-1.968s1.371.72 1.371 1.968c0 1.26-.533 1.969-1.371 1.969zm4.013 1.172h1.711v-3.791c0-.703.439-1.195 1.089-1.195.633 0 1.014.398 1.014 1.072v3.914h1.647v-3.814c0-.698.427-1.172 1.078-1.172.662 0 1.025.398 1.025 1.125v3.861h1.711v-4.289c0-1.266-.826-2.109-2.057-2.109-.92 0-1.67.498-1.951 1.289h-.035c-.211-.821-.844-1.289-1.752-1.289-.855 0-1.529.498-1.793 1.253h-.035v-1.136h-1.652zm14.044-6.381c-.909 0-1.606.457-1.946 1.195h-.035v-1.095h-1.687v8.332h1.711v-3.106h.035c.334.709 1.037 1.155 1.951 1.155 1.57 0 2.543-1.219 2.543-3.241 0-2.027-.979-3.24-2.572-3.24zm-.575 5.104c-.838 0-1.388-.727-1.388-1.864 0-1.125.55-1.869 1.388-1.869.856 0 1.395.733 1.395 1.869 0 1.143-.539 1.864-1.395 1.864zm4.048 1.277h1.711v-3.51c0-.885.492-1.4 1.336-1.4.246 0 .481.041.621.099v-1.505c-.117-.036-.287-.065-.486-.065-.738 0-1.272.434-1.494 1.231h-.035v-1.131h-1.653zm6.995-5.15c.762 0 1.284.55 1.319 1.353h-2.666c.058-.785.597-1.353 1.347-1.353zm1.342 3.228c-.158.481-.638.791-1.265.791-.873 0-1.442-.615-1.442-1.512v-.105h4.33v-.522c0-1.91-1.154-3.146-2.982-3.146-1.858 0-3.029 1.301-3.029 3.305 0 2.009 1.16 3.246 3.093 3.246 1.553 0 2.678-.826 2.866-2.057zm2.419-2.514c0 .926.61 1.547 1.799 1.817l1.16.258c.563.134.774.31.774.627 0 .41-.393.668-1.043.668-.68 0-1.096-.305-1.178-.832h-1.67c.094 1.224 1.125 2.033 2.801 2.033 1.658 0 2.795-.815 2.795-2.051 0-.938-.51-1.436-1.77-1.717l-1.201-.258c-.551-.129-.82-.339-.82-.65 0-.404.386-.674.978-.674.633 0 1.037.311 1.073.815h1.576c-.024-1.219-1.049-2.016-2.625-2.016-1.612 0-2.649.785-2.649 1.98zm6.204 0c0 .926.61 1.547 1.799 1.817l1.16.258c.563.134.774.31.774.627 0 .41-.393.668-1.043.668-.68 0-1.096-.305-1.178-.832h-1.67c.094 1.224 1.125 2.033 2.801 2.033 1.658 0 2.795-.815 2.795-2.051 0-.938-.51-1.436-1.77-1.717l-1.201-.258c-.551-.129-.82-.339-.82-.65 0-.404.387-.674.978-.674.633 0 1.038.311 1.073.815h1.576c-.024-1.219-1.049-2.016-2.625-2.016-1.611 0-2.649.785-2.649 1.98zm9.193 4.571c1.898 0 3.111-1.213 3.111-3.281 0-2.04-1.23-3.27-3.111-3.27s-3.111 1.236-3.111 3.27c0 2.062 1.212 3.281 3.111 3.281zm0-1.307c-.844 0-1.377-.709-1.377-1.969 0-1.248.545-1.968 1.377-1.968s1.371.72 1.371 1.968c0 1.26-.533 1.969-1.371 1.969zm4.013 1.172h1.711v-3.51c0-.885.492-1.4 1.336-1.4.246 0 .48.041.621.099v-1.505c-.118-.036-.287-.065-.487-.065-.738 0-1.271.434-1.494 1.231h-.035v-1.131h-1.652z" fill="#000"/><circle cx="313.5" cy="133.5" fill="#bdbdbd" r="7.5"/><circle cx="413.5" cy="134.5" fill="#bdbdbd" r="7.5"/><path d="m548 133-10-5.774v11.548zm-32 1h23v-2h-23z" fill="#000"/><rect fill="#fff" height="44" rx="3.5" stroke="#bdbdbd" stroke-width="3" width="80" x="471.5" y="111.5"/><path d="m496.139 138 2.841-8.455h-1.927l-1.934 6.633h-.041l-1.933-6.633h-1.981l2.842 8.455zm5.641.135c1.899 0 3.112-1.213 3.112-3.281 0-2.04-1.231-3.27-3.112-3.27s-3.111 1.236-3.111 3.27c0 2.062 1.213 3.281 3.111 3.281zm0-1.307c-.843 0-1.377-.709-1.377-1.969 0-1.248.545-1.968 1.377-1.968s1.371.72 1.371 1.968c0 1.26-.533 1.969-1.371 1.969zm4.054 1.172h1.711v-8.455h-1.711zm8.683-6.281h-1.711v3.597c0 .832-.475 1.377-1.236 1.377-.756 0-1.172-.445-1.172-1.283v-3.691h-1.711v4.049c0 1.464.902 2.349 2.261 2.349.95 0 1.571-.457 1.881-1.248h.035v1.131h1.653zm1.13 6.281h1.711v-3.791c0-.703.439-1.195 1.09-1.195.632 0 1.013.398 1.013 1.072v3.914h1.647v-3.814c0-.698.427-1.172 1.078-1.172.662 0 1.025.398 1.025 1.125v3.861h1.711v-4.289c0-1.266-.826-2.109-2.057-2.109-.919 0-1.669.498-1.951 1.289h-.035c-.211-.821-.844-1.289-1.752-1.289-.855 0-1.529.498-1.793 1.253h-.035v-1.136h-1.652zm13.194-5.15c.762 0 1.283.55 1.319 1.353h-2.667c.059-.785.598-1.353 1.348-1.353zm1.342 3.228c-.158.481-.639.791-1.266.791-.873 0-1.441-.615-1.441-1.512v-.105h4.33v-.522c0-1.91-1.154-3.146-2.982-3.146-1.858 0-3.03 1.301-3.03 3.305 0 2.009 1.16 3.246 3.094 3.246 1.553 0 2.678-.826 2.865-2.057z" fill="#000"/><circle cx="471.5" cy="134.5" fill="#bdbdbd" r="7.5"/><circle cx="551.5" cy="134.5" fill="#bdbdbd" r="7.5"/><rect fill="#fff" height="44" rx="3.5" stroke="#bdbdbd" stroke-width="3" width="75" x="31.5" y="111.5"/><path d="m39.3867 135.592c.0528 1.588 1.3477 2.554 3.3809 2.554 2.0976 0 3.4277-1.037 3.4277-2.677 0-1.289-.7383-2.016-2.4316-2.379l-1.0254-.217c-.9727-.223-1.3828-.516-1.3828-1.037 0-.627.5859-1.043 1.459-1.043.8847 0 1.5117.434 1.5703 1.148h1.6582c-.0293-1.529-1.2657-2.543-3.2344-2.543-1.8867 0-3.2344 1.032-3.2344 2.59 0 1.237.7676 2.028 2.3262 2.362l1.1016.24c1.0195.228 1.4238.533 1.4238 1.084 0 .621-.6446 1.072-1.5879 1.072-.9375 0-1.6641-.457-1.7461-1.154zm10.6515 2.543c1.8984 0 3.1113-1.213 3.1113-3.281 0-2.04-1.2305-3.27-3.1113-3.27-1.8809 0-3.1114 1.236-3.1114 3.27 0 2.062 1.2129 3.281 3.1114 3.281zm0-1.307c-.8438 0-1.377-.709-1.377-1.969 0-1.248.5449-1.968 1.377-1.968.832 0 1.371.72 1.371 1.968 0 1.26-.5332 1.969-1.371 1.969zm9.8135-5.109h-1.7109v3.597c0 .832-.4747 1.377-1.2364 1.377-.7558 0-1.1718-.445-1.1718-1.283v-3.691h-1.711v4.049c0 1.464.9024 2.349 2.2617 2.349.9493 0 1.5703-.457 1.8809-1.248h.0351v1.131h1.6524zm1.1299 6.281h1.711v-3.51c0-.885.4922-1.4 1.3359-1.4.2461 0 .4805.041.6211.099v-1.505c-.1172-.036-.2871-.065-.4863-.065-.7383 0-1.2715.434-1.4942 1.231h-.0351v-1.131h-1.6524zm9.8839-3.943c-.0762-1.424-1.1543-2.473-2.8535-2.473-1.8809 0-3.0821 1.254-3.0821 3.27 0 2.05 1.2012 3.281 3.0938 3.281 1.6523 0 2.7598-.955 2.8477-2.438h-1.5938c-.1055.686-.5508 1.096-1.2363 1.096-.8496 0-1.377-.703-1.377-1.939 0-1.213.5274-1.928 1.3711-1.928.7031 0 1.1426.469 1.2422 1.131zm3.6671-1.207c.7617 0 1.2832.55 1.3183 1.353h-2.666c.0586-.785.5977-1.353 1.3477-1.353zm1.3417 3.228c-.1582.481-.6386.791-1.2656.791-.873 0-1.4414-.615-1.4414-1.512v-.105h4.3301v-.522c0-1.91-1.1543-3.146-2.9824-3.146-1.8574 0-3.0293 1.301-3.0293 3.305 0 2.009 1.1601 3.246 3.0937 3.246 1.5528 0 2.6778-.826 2.8653-2.057z" fill="#000"/><circle cx="105.5" cy="133.5" fill="#bdbdbd" r="7.5"/><rect fill="#fff" height="44" rx="3.5" stroke="#bdbdbd" stroke-width="3" width="75" x="31.5" y="178.5"/><path d="m39.3867 202.592c.0528 1.588 1.3477 2.554 3.3809 2.554 2.0976 0 3.4277-1.037 3.4277-2.677 0-1.289-.7383-2.016-2.4316-2.379l-1.0254-.217c-.9727-.223-1.3828-.516-1.3828-1.037 0-.627.5859-1.043 1.459-1.043.8847 0 1.5117.434 1.5703 1.148h1.6582c-.0293-1.529-1.2657-2.543-3.2344-2.543-1.8867 0-3.2344 1.032-3.2344 2.59 0 1.237.7676 2.028 2.3262 2.362l1.1016.24c1.0195.228 1.4238.533 1.4238 1.084 0 .621-.6446 1.072-1.5879 1.072-.9375 0-1.6641-.457-1.7461-1.154zm10.6515 2.543c1.8984 0 3.1113-1.213 3.1113-3.281 0-2.04-1.2305-3.27-3.1113-3.27-1.8809 0-3.1114 1.236-3.1114 3.27 0 2.062 1.2129 3.281 3.1114 3.281zm0-1.307c-.8438 0-1.377-.709-1.377-1.969 0-1.248.5449-1.968 1.377-1.968.832 0 1.371.72 1.371 1.968 0 1.26-.5332 1.969-1.371 1.969zm9.8135-5.109h-1.7109v3.597c0 .832-.4747 1.377-1.2364 1.377-.7558 0-1.1718-.445-1.1718-1.283v-3.691h-1.711v4.049c0 1.464.9024 2.349 2.2617 2.349.9493 0 1.5703-.457 1.8809-1.248h.0351v1.131h1.6524zm1.1299 6.281h1.711v-3.51c0-.885.4922-1.4 1.3359-1.4.2461 0 .4805.041.6211.099v-1.505c-.1172-.036-.2871-.065-.4863-.065-.7383 0-1.2715.434-1.4942 1.231h-.0351v-1.131h-1.6524zm9.8839-3.943c-.0762-1.424-1.1543-2.473-2.8535-2.473-1.8809 0-3.0821 1.254-3.0821 3.27 0 2.05 1.2012 3.281 3.0938 3.281 1.6523 0 2.7598-.955 2.8477-2.438h-1.5938c-.1055.686-.5508 1.096-1.2363 1.096-.8496 0-1.377-.703-1.377-1.939 0-1.213.5274-1.928 1.3711-1.928.7031 0 1.1426.469 1.2422 1.131zm3.6671-1.207c.7617 0 1.2832.55 1.3183 1.353h-2.666c.0586-.785.5977-1.353 1.3477-1.353zm1.3417 3.228c-.1582.481-.6386.791-1.2656.791-.873 0-1.4414-.615-1.4414-1.512v-.105h4.3301v-.522c0-1.91-1.1543-3.146-2.9824-3.146-1.8574 0-3.0293 1.301-3.0293 3.305 0 2.009 1.1601 3.246 3.0937 3.246 1.5528 0 2.6778-.826 2.8653-2.057z" fill="#000"/><circle cx="106.5" cy="200.5" fill="#bdbdbd" r="7.5"/><rect fill="#fff" height="44" rx="3.5" stroke="#bdbdbd" stroke-width="3" width="75" x="31.5" y="46.5"/><path d="m39.3867 70.5918c.0528 1.5879 1.3477 2.5547 3.3809 2.5547 2.0976 0 3.4277-1.0371 3.4277-2.6777 0-1.2891-.7383-2.0157-2.4316-2.379l-1.0254-.2168c-.9727-.2226-1.3828-.5156-1.3828-1.0371 0-.6269.5859-1.0429 1.459-1.0429.8847 0 1.5117.4336 1.5703 1.1484h1.6582c-.0293-1.5293-1.2657-2.543-3.2344-2.543-1.8867 0-3.2344 1.0313-3.2344 2.5899 0 1.2363.7676 2.0273 2.3262 2.3613l1.1016.2402c1.0195.2286 1.4238.5332 1.4238 1.084 0 .6211-.6446 1.0723-1.5879 1.0723-.9375 0-1.6641-.457-1.7461-1.1543zm10.6515 2.543c1.8984 0 3.1113-1.2129 3.1113-3.2813 0-2.039-1.2305-3.2695-3.1113-3.2695-1.8809 0-3.1114 1.2363-3.1114 3.2695 0 2.0625 1.2129 3.2813 3.1114 3.2813zm0-1.3067c-.8438 0-1.377-.709-1.377-1.9687 0-1.2481.5449-1.9688 1.377-1.9688.832 0 1.371.7207 1.371 1.9688 0 1.2597-.5332 1.9687-1.371 1.9687zm9.8135-5.1093h-1.7109v3.5976c0 .832-.4747 1.377-1.2364 1.377-.7558 0-1.1718-.4454-1.1718-1.2832v-3.6914h-1.711v4.0488c0 1.4648.9024 2.3496 2.2617 2.3496.9493 0 1.5703-.457 1.8809-1.2481h.0351v1.1309h1.6524zm1.1299 6.2812h1.711v-3.5098c0-.8847.4922-1.4004 1.3359-1.4004.2461 0 .4805.0411.6211.0997v-1.5059c-.1172-.0352-.2871-.0645-.4863-.0645-.7383 0-1.2715.4336-1.4942 1.2305h-.0351v-1.1308h-1.6524zm9.8839-3.9434c-.0762-1.4238-1.1543-2.4726-2.8535-2.4726-1.8809 0-3.0821 1.2539-3.0821 3.2695 0 2.0508 1.2012 3.2813 3.0938 3.2813 1.6523 0 2.7598-.9551 2.8477-2.4375h-1.5938c-.1055.6855-.5508 1.0957-1.2363 1.0957-.8496 0-1.377-.7032-1.377-1.9395 0-1.2129.5274-1.9277 1.3711-1.9277.7031 0 1.1426.4687 1.2422 1.1308zm3.6671-1.207c.7617 0 1.2832.5508 1.3183 1.3535h-2.666c.0586-.7851.5977-1.3535 1.3477-1.3535zm1.3417 3.2285c-.1582.4805-.6386.791-1.2656.791-.873 0-1.4414-.6152-1.4414-1.5117v-.1054h4.3301v-.5215c0-1.9102-1.1543-3.1465-2.9824-3.1465-1.8574 0-3.0293 1.3008-3.0293 3.3047 0 2.0097 1.1601 3.2461 3.0937 3.2461 1.5528 0 2.6778-.8262 2.8653-2.0567z" fill="#000"/><circle cx="106.5" cy="67.5" fill="#bdbdbd" r="7.5"/><g fill="#000"><path d="m157.374 134-10-5.774v11.548zm-37 1h28v-2h-28z"/><path d="m138.75 68 .933-.3595-.247-.6405h-.686zm21 54.5 1.791-11.407-10.774 4.152zm-40.5-53.5h19.5v-2h-19.5zm18.567-.6404 17.763 46.1014 1.867-.719-17.764-46.1015z"/><path d="m138.75 200.5.933.36-.247.64h-.686zm21-54.5 1.791 11.407-10.774-4.152zm-40.5 53.5h19.5v2h-19.5zm18.567.64 17.763-46.101 1.867.719-17.764 46.102z"/><path d="m300 134-10-5.774v11.548zm-30 1h21v-2h-21z"/><path d="m458 134-10-5.774v11.548zm-30 1h21v-2h-21z"/><path d="m597 134-10-5.774v11.548zm-30 1h21v-2h-21z"/></g></svg>