<svg fill="none" viewBox="0 0 668 269" xmlns="http://www.w3.org/2000/svg"><path d="m0 0h668v269h-668z" fill="#f8f8f8"/><rect fill="#fff" height="44" rx="3.5" stroke="#bdbdbd" stroke-width="3" width="137" x="364.5" y="112.5"/><path d="m401.703 131.545v8.455h3.229c2.537 0 4.031-1.576 4.031-4.26 0-2.683-1.494-4.195-4.031-4.195zm1.77 1.459h1.248c1.558 0 2.437.973 2.437 2.742 0 1.828-.855 2.789-2.437 2.789h-1.248zm9.321 1.846c.762 0 1.283.55 1.318 1.353h-2.666c.059-.785.598-1.353 1.348-1.353zm1.342 3.228c-.158.481-.639.791-1.266.791-.873 0-1.441-.615-1.441-1.512v-.105h4.33v-.522c0-1.91-1.154-3.146-2.983-3.146-1.857 0-3.029 1.301-3.029 3.305 0 2.009 1.16 3.246 3.094 3.246 1.553 0 2.678-.826 2.865-2.057zm2.419-2.514c0 .926.609 1.547 1.799 1.817l1.16.258c.562.134.773.31.773.627 0 .41-.392.668-1.043.668-.679 0-1.095-.305-1.177-.832h-1.67c.093 1.224 1.125 2.033 2.8 2.033 1.659 0 2.795-.815 2.795-2.051 0-.938-.509-1.436-1.769-1.717l-1.201-.258c-.551-.129-.821-.339-.821-.65 0-.404.387-.674.979-.674.633 0 1.037.311 1.072.815h1.576c-.023-1.219-1.049-2.016-2.625-2.016-1.611 0-2.648.785-2.648 1.98zm6.766-3.293v1.448h-.884v1.289h.884v3.299c0 1.224.575 1.716 2.051 1.716.346 0 .639-.029.815-.07v-1.26c-.106.018-.264.03-.416.03-.504 0-.739-.229-.739-.709v-3.006h1.161v-1.289h-1.161v-1.448zm3.855 7.729h1.711v-6.281h-1.711zm.856-6.973c.515 0 .914-.392.914-.884 0-.498-.399-.885-.914-.885-.516 0-.915.387-.915.885 0 .492.399.884.915.884zm2.014 6.973h1.711v-3.604c0-.814.486-1.376 1.254-1.376s1.154.468 1.154 1.289v3.691h1.711v-4.049c0-1.471-.785-2.349-2.179-2.349-.967 0-1.629.457-1.963 1.236h-.035v-1.119h-1.653zm9.357-1.137c-.58 0-.967-.293-.967-.761 0-.446.363-.733 1.002-.78l1.324-.082v.457c0 .68-.615 1.166-1.359 1.166zm-.563 1.237c.785 0 1.565-.393 1.916-1.061h.035v.961h1.653v-4.318c0-1.266-1.049-2.098-2.66-2.098-1.664 0-2.702.838-2.766 2.057h1.564c.082-.463.487-.78 1.125-.78.645 0 1.055.34 1.055.926v.416l-1.582.094c-1.564.094-2.443.756-2.443 1.898 0 1.131.908 1.905 2.103 1.905zm5.185-7.829v1.448h-.885v1.289h.885v3.299c0 1.224.574 1.716 2.051 1.716.345 0 .638-.029.814-.07v-1.26c-.105.018-.264.03-.416.03-.504 0-.738-.229-.738-.709v-3.006h1.16v-1.289h-1.16v-1.448zm3.854 7.729h1.711v-6.281h-1.711zm.856-6.973c.516 0 .914-.392.914-.884 0-.498-.398-.885-.914-.885s-.914.387-.914.885c0 .492.398.884.914.884zm4.897 7.108c1.899 0 3.112-1.213 3.112-3.281 0-2.04-1.231-3.27-3.112-3.27-1.88 0-3.111 1.236-3.111 3.27 0 2.062 1.213 3.281 3.111 3.281zm0-1.307c-.843 0-1.377-.709-1.377-1.969 0-1.248.545-1.968 1.377-1.968s1.372.72 1.372 1.968c0 1.26-.534 1.969-1.372 1.969zm4.013 1.172h1.711v-3.604c0-.814.486-1.376 1.254-1.376s1.154.468 1.154 1.289v3.691h1.711v-4.049c0-1.471-.785-2.349-2.179-2.349-.967 0-1.629.457-1.963 1.236h-.035v-1.119h-1.653z" fill="#000"/><circle cx="363.5" cy="134.5" fill="#bdbdbd" r="7.5"/><rect fill="#fff" height="44" rx="3.5" stroke="#bdbdbd" stroke-width="3" width="137" x="171.5" y="112.5"/><path d="m221.387 136.592c.052 1.588 1.347 2.554 3.381 2.554 2.097 0 3.427-1.037 3.427-2.677 0-1.289-.738-2.016-2.431-2.379l-1.026-.217c-.972-.223-1.383-.516-1.383-1.037 0-.627.586-1.043 1.459-1.043.885 0 1.512.434 1.571 1.148h1.658c-.029-1.529-1.266-2.543-3.234-2.543-1.887 0-3.235 1.032-3.235 2.59 0 1.237.768 2.028 2.326 2.362l1.102.24c1.019.228 1.424.533 1.424 1.084 0 .621-.645 1.072-1.588 1.072-.938 0-1.664-.457-1.746-1.154zm10.651 2.543c1.899 0 3.111-1.213 3.111-3.281 0-2.04-1.23-3.27-3.111-3.27s-3.111 1.236-3.111 3.27c0 2.062 1.213 3.281 3.111 3.281zm0-1.307c-.844 0-1.377-.709-1.377-1.969 0-1.248.545-1.968 1.377-1.968s1.371.72 1.371 1.968c0 1.26-.533 1.969-1.371 1.969zm9.814-5.109h-1.711v3.597c0 .832-.475 1.377-1.237 1.377-.755 0-1.171-.445-1.171-1.283v-3.691h-1.711v4.049c0 1.464.902 2.349 2.261 2.349.95 0 1.571-.457 1.881-1.248h.035v1.131h1.653zm1.13 6.281h1.711v-3.51c0-.885.492-1.4 1.336-1.4.246 0 .48.041.621.099v-1.505c-.118-.036-.288-.065-.487-.065-.738 0-1.271.434-1.494 1.231h-.035v-1.131h-1.652zm9.883-3.943c-.076-1.424-1.154-2.473-2.853-2.473-1.881 0-3.082 1.254-3.082 3.27 0 2.05 1.201 3.281 3.094 3.281 1.652 0 2.759-.955 2.847-2.438h-1.593c-.106.686-.551 1.096-1.237 1.096-.849 0-1.377-.703-1.377-1.939 0-1.213.528-1.928 1.371-1.928.704 0 1.143.469 1.243 1.131zm3.668-1.207c.761 0 1.283.55 1.318 1.353h-2.666c.058-.785.598-1.353 1.348-1.353zm1.341 3.228c-.158.481-.638.791-1.265.791-.873 0-1.442-.615-1.442-1.512v-.105h4.33v-.522c0-1.91-1.154-3.146-2.982-3.146-1.857 0-3.029 1.301-3.029 3.305 0 2.009 1.16 3.246 3.093 3.246 1.553 0 2.678-.826 2.866-2.057z" fill="#000"/><circle cx="308.5" cy="133.5" fill="#bdbdbd" r="7.5"/><path d="m353 134-10-5.774v11.548zm-32 1h23v-2h-23z" fill="#000"/></svg>