<svg viewBox="0 0 424 120" xmlns="http://www.w3.org/2000/svg"><g fill="none" fill-rule="evenodd"><text fill="#000" font-family="SFProDisplay-Bold, SF Pro Display" font-size="8" font-weight="bold" letter-spacing=".0166666694"><tspan x="286" y="106">Uniform distribution</tspan></text><g fill-rule="nonzero"><path d="m244 85h158" stroke="#d8d5d9" stroke-linecap="square" stroke-width="2"/><path d="m243 85v-72" stroke="#d8d5d9" stroke-linecap="square" stroke-width="2"/><path d="m254 29h8v55h-8z" fill="#9b9b9b"/><path d="m270 32h8v52h-8z" fill="#9b9b9b"/><path d="m286 28h8v56h-8z" fill="#9b9b9b"/><path d="m303 32h8v52h-8z" fill="#9b9b9b"/><path d="m319 28h8v56h-8z" fill="#9b9b9b"/><path d="m335 32h8v52h-8z" fill="#9b9b9b"/><path d="m352 28h8v56h-8z" fill="#9b9b9b"/><path d="m368 28h8v56h-8z" fill="#9b9b9b"/><path d="m384 34h8v50h-8z" fill="#9b9b9b"/></g><text fill="#000" font-family="SFProDisplay-Bold, SF Pro Display" font-size="8" font-weight="bold" letter-spacing=".0166666694"><tspan x="67" y="106">Normal distribution</tspan></text><path d="m23 85h159" fill-rule="nonzero" stroke="#d8d5d9" stroke-linecap="square" stroke-width="2"/><path d="m22 85v-72" fill-rule="nonzero" stroke="#d8d5d9" stroke-linecap="square" stroke-width="2"/><path d="m33 80h8v4h-8z" fill="#9b9b9b" fill-rule="nonzero"/><path d="m49 78h8v6h-8z" fill="#9b9b9b" fill-rule="nonzero"/><path d="m66 69h8v15h-8z" fill="#9b9b9b" fill-rule="nonzero"/><path d="m82 51h8v33h-8z" fill="#9b9b9b" fill-rule="nonzero"/><path d="m98 22h8v62h-8z" fill="#9b9b9b" fill-rule="nonzero"/><path d="m114 51h8v33h-8z" fill="#9b9b9b" fill-rule="nonzero"/><path d="m147 78h8v6h-8z" fill="#9b9b9b" fill-rule="nonzero"/><path d="m131 69h8v15h-8z" fill="#9b9b9b" fill-rule="nonzero"/><path d="m163 80h8v4h-8z" fill="#9b9b9b" fill-rule="nonzero"/></g></svg>