<svg fill="none" viewBox="0 0 218 54" xmlns="http://www.w3.org/2000/svg"><path d="m0 0h218v54h-218z" fill="#fff"/><g stroke="#111" stroke-width=".125"><path d="m5 5h4v30h-4z" fill="#fff"/><path d="m9 5h4v30h-4z" fill="#fff"/><path d="m8 5h2v20h-2z" fill="#000"/><path d="m13 5h4v30h-4z" fill="#fff"/><path d="m17 5h4v30h-4z" fill="#fff"/><path d="m21 5h4v30h-4z" fill="#fff"/><path d="m25 5h4v30h-4z" fill="#fff"/><path d="m29 5h4v30h-4z" fill="#fff"/><path d="m33 5h4v30h-4z" fill="#fff"/><path d="m37 5h4v30h-4z" fill="#fff"/><path d="m16 5h2v20h-2z" fill="#000"/><path d="m20 5h2v20h-2z" fill="#000"/><path d="m28 5h2v20h-2z" fill="#000"/><path d="m32 5h2v20h-2z" fill="#000"/><path d="m36 5h2v20h-2z" fill="#000"/><path d="m41 5h4v30h-4z" fill="#fff"/><path d="m45 5h4v30h-4z" fill="#fff"/><path d="m49 5h4v30h-4z" fill="#fff"/><path d="m53 5h4v30h-4z" fill="#fff"/><path d="m57 5h4v30h-4z" fill="#fff"/><path d="m61 5h4v30h-4z" fill="#fff"/><path d="m65 5h4v30h-4z" fill="#fff"/><path d="m44 5h2v20h-2z" fill="#000"/><path d="m48 5h2v20h-2z" fill="#000"/><path d="m56 5h2v20h-2z" fill="#000"/><path d="m60 5h2v20h-2z" fill="#000"/><path d="m64 5h2v20h-2z" fill="#000"/><path d="m69 5h4v30h-4z" fill="#fff"/><path d="m73 5h4v30h-4z" fill="#fff"/><path d="m77 5h4v30h-4z" fill="#fff"/><path d="m81 5h4v30h-4z" fill="#fff"/><path d="m85 5h4v30h-4z" fill="#fff"/><path d="m89 5h4v30h-4z" fill="#fff"/><path d="m93 5h4v30h-4z" fill="#fff"/><path d="m72 5h2v20h-2z" fill="#000"/><path d="m76 5h2v20h-2z" fill="#000"/><path d="m84 5h2v20h-2z" fill="#000"/><path d="m88 5h2v20h-2z" fill="#000"/><path d="m92 5h2v20h-2z" fill="#000"/><path d="m97 5h4v30h-4z" fill="#fff"/><path d="m101 5h4v30h-4z" fill="#fff"/><path d="m105 5h4v30h-4z" fill="#fff"/><path d="m109 5h4v30h-4z" fill="#fff"/><path d="m113 5h4v30h-4z" fill="#fff"/><path d="m117 5h4v30h-4z" fill="#fff"/><path d="m121 5h4v30h-4z" fill="#fff"/><path d="m100 5h2v20h-2z" fill="#000"/><path d="m104 5h2v20h-2z" fill="#000"/><path d="m112 5h2v20h-2z" fill="#000"/><path d="m116 5h2v20h-2z" fill="#000"/><path d="m120 5h2v20h-2z" fill="#000"/><path d="m125 5h4v30h-4z" fill="#fff"/><path d="m129 5h4v30h-4z" fill="#fff"/><path d="m133 5h4v30h-4z" fill="#fff"/><path d="m137 5h4v30h-4z" fill="#fff"/><path d="m141 5h4v30h-4z" fill="#fff"/><path d="m145 5h4v30h-4z" fill="#fff"/><path d="m149 5h4v30h-4z" fill="#fff"/><path d="m128 5h2v20h-2z" fill="#000"/><path d="m132 5h2v20h-2z" fill="#000"/><path d="m140 5h2v20h-2z" fill="#000"/><path d="m144 5h2v20h-2z" fill="#000"/><path d="m148 5h2v20h-2z" fill="#000"/><path d="m153 5h4v30h-4z" fill="#fff"/><path d="m157 5h4v30h-4z" fill="#fff"/><path d="m161 5h4v30h-4z" fill="#fff"/><path d="m165 5h4v30h-4z" fill="#fff"/><path d="m169 5h4v30h-4z" fill="#fff"/><path d="m173 5h4v30h-4z" fill="#fff"/><path d="m177 5h4v30h-4z" fill="#fff"/><path d="m156 5h2v20h-2z" fill="#000"/><path d="m160 5h2v20h-2z" fill="#000"/><path d="m168 5h2v20h-2z" fill="#000"/><path d="m172 5h2v20h-2z" fill="#000"/><path d="m176 5h2v20h-2z" fill="#000"/><path d="m181 5h4v30h-4z" fill="#fff"/><path d="m185 5h4v30h-4z" fill="#fff"/><path d="m189 5h4v30h-4z" fill="#fff"/><path d="m193 5h4v30h-4z" fill="#fff"/><path d="m197 5h4v30h-4z" fill="#fff"/><path d="m201 5h4v30h-4z" fill="#fff"/><path d="m205 5h4v30h-4z" fill="#fff"/><path d="m184 5h2v20h-2z" fill="#000"/><path d="m188 5h2v20h-2z" fill="#000"/><path d="m196 5h2v20h-2z" fill="#000"/><path d="m200 5h2v20h-2z" fill="#000"/><path d="m204 5h2v20h-2z" fill="#000"/><path d="m209 5h4v30h-4z" fill="#fff"/></g><path d="m5.5 43.5h207" stroke="#d8d5d9" stroke-linecap="square" stroke-width=".5"/><path d="m96 39h27v9h-27z" fill="#fff"/><path d="m103.305 45.0625c.677 0 1.142-.3359 1.142-.8242 0-.3711-.267-.6582-.662-.7246v-.0117c.328-.0782.547-.3301.547-.6368 0-.4336-.422-.7461-1.027-.7461-.604 0-1.03.3145-1.03.7442 0 .3105.221.5625.549.6387v.0117c-.392.0644-.662.3515-.662.7226 0 .4883.459.8262 1.143.8262zm0-.4297c-.311 0-.528-.1855-.528-.4394s.217-.4395.528-.4395c.31 0 .525.1856.525.4395s-.215.4394-.525.4394zm0-1.3086c-.262 0-.446-.164-.446-.3887 0-.2246.184-.3906.446-.3906.259 0 .445.1641.445.3906 0 .2247-.186.3887-.445.3887zm2.617 1.7383c.678 0 1.143-.3359 1.143-.8242 0-.3711-.268-.6582-.662-.7246v-.0117c.328-.0782.547-.3301.547-.6368 0-.4336-.422-.7461-1.028-.7461-.603 0-1.029.3145-1.029.7442 0 .3105.221.5625.549.6387v.0117c-.393.0644-.662.3515-.662.7226 0 .4883.459.8262 1.142.8262zm0-.4297c-.31 0-.527-.1855-.527-.4394s.217-.4395.527-.4395c.311 0 .526.1856.526.4395s-.215.4394-.526.4394zm0-1.3086c-.261 0-.445-.164-.445-.3887 0-.2246.184-.3906.445-.3906.26 0 .446.1641.446.3906 0 .2247-.186.3887-.446.3887zm2.892.4219h-.008v-1.5645h-.57v2.8184h.57v-.6914l.149-.1602.599.8516h.657l-.838-1.1953.798-.8985h-.646zm2.411-.4629c.254 0 .427.1836.439.4512h-.888c.019-.2617.199-.4512.449-.4512zm.447 1.0762c-.053.1601-.213.2636-.422.2636-.291 0-.48-.205-.48-.5039v-.0351h1.443v-.1738c0-.6368-.385-1.0489-.994-1.0489-.619 0-1.01.4336-1.01 1.1016 0 .6699.387 1.082 1.031 1.082.518 0 .893-.2754.955-.6855zm1.081 1.416c.535 0 .796-.1914.976-.7285l.721-2.1407h-.602l-.445 1.6368h-.01l-.445-1.6368h-.627l.728 2.0958c.004.0078-.017.0918-.017.0996-.039.166-.143.2324-.352.2324-.021 0-.125 0-.142-.0039v.4394c.017.0039.195.0059.215.0059zm1.865-2.2539c0 .3086.203.5156.6.6055l.387.0859c.187.0449.258.1035.258.209 0 .1367-.131.2226-.348.2226-.227 0-.365-.1015-.393-.2773h-.556c.031.4082.375.6777.933.6777.553 0 .932-.2715.932-.6836 0-.3125-.17-.4785-.59-.5722l-.4-.086c-.184-.0429-.274-.1133-.274-.2168 0-.1347.129-.2246.326-.2246.211 0 .346.1035.358.2715h.525c-.008-.4062-.349-.6719-.875-.6719-.537 0-.883.2617-.883.6602z" fill="#000"/><path d="m6.56006 40h.47021l-.73535-2.1138h-.52002l-.73388 2.1138h.4541l.16113-.5127h.74268zm-.5376-1.7095h.01025l.271.8657h-.55225zm1.98818 1.7564c.53174 0 .85401-.4263.85401-1.1089s-.3252-1.1001-.85401-1.1001c-.5288 0-.85546.4189-.85546 1.1016 0 .684.32373 1.1074.85546 1.1074zm0-.3545c-.25195 0-.40576-.2725-.40576-.7529 0-.4761.15674-.7471.40576-.7471.25049 0 .4043.2695.4043.7471 0 .4819-.15234.7529-.4043.7529z" fill="#000"/><path d="m5.12451 47.522v.0073h.41016v-.0073c0-.1949.15088-.3384.35595-.3384.19629 0 .33545.126.33545.2842 0 .1465-.06591.2534-.27978.4673l-.79688.7675v.2974h1.53663v-.3516h-.95362v-.0088l.51563-.4965c.23291-.2315.40869-.4292.40869-.6929 0-.353-.30615-.6108-.75147-.6108-.46142 0-.78076.2827-.78076.6826zm2.37051 1.478h.43799v-2.1138h-.43946l-.54638.3794v.3985l.53906-.3721h.00879z" fill="#000"/><path d="m210.002 40.0366c.519 0 .881-.2988.93-.7705h-.43c-.047.2505-.236.4043-.498.4043-.339 0-.551-.2783-.551-.7295 0-.4453.215-.7251.549-.7251.258 0 .457.1699.498.4292h.431c-.034-.4731-.421-.7954-.929-.7954-.612 0-1 .4116-1 1.0928 0 .6826.385 1.0942 1 1.0942zm2.013.0103c.509 0 .857-.252.857-.6182 0-.2783-.201-.4936-.496-.5434v-.0088c.246-.0586.41-.2476.41-.4776 0-.3252-.317-.5595-.771-.5595-.452 0-.772.2358-.772.5581 0 .2329.166.4218.412.479v.0088c-.295.0483-.497.2636-.497.5419 0 .3663.345.6197.857.6197zm0-.3223c-.233 0-.395-.1392-.395-.3296s.162-.3296.395-.3296.394.1392.394.3296-.161.3296-.394.3296zm0-.9814c-.196 0-.334-.1231-.334-.2915 0-.1685.138-.293.334-.293.195 0 .334.123.334.293 0 .1684-.139.2915-.334.2915z" fill="#000"/><path d="m208.307 49h.438v-2.1138h-.44l-.546.3794v.3985l.539-.3721h.009zm1.746.0469c.532 0 .854-.4263.854-1.1089s-.325-1.1001-.854-1.1001c-.528 0-.855.4189-.855 1.1016 0 .684.324 1.1074.855 1.1074zm0-.3545c-.252 0-.405-.2725-.405-.7529 0-.4761.156-.7471.405-.7471.251 0 .405.2695.405.7471 0 .4819-.153.7529-.405.7529zm1.962.3545c.509 0 .857-.252.857-.6182 0-.2783-.201-.4936-.496-.5434v-.0088c.246-.0586.41-.2476.41-.4776 0-.3252-.317-.5595-.771-.5595-.452 0-.772.2358-.772.5581 0 .2329.166.4218.412.479v.0088c-.295.0483-.497.2636-.497.5419 0 .3663.345.6197.857.6197zm0-.3223c-.233 0-.395-.1392-.395-.3296s.162-.3296.395-.3296.394.1392.394.3296-.161.3296-.394.3296zm0-.9814c-.196 0-.334-.1231-.334-.2915 0-.1685.138-.293.334-.293.195 0 .334.123.334.293 0 .1684-.139.2915-.334.2915z" fill="#000"/></svg>