<?xml version="1.0" encoding="UTF-8"?>
<svg viewBox="0 0 218 54" version="1.1" xmlns="http://www.w3.org/2000/svg" xmlns:xlink="http://www.w3.org/1999/xlink">
    <!-- Generator: Sketch 51.3 (57544) - http://www.bohemiancoding.com/sketch -->
    <title>piano</title>
    <desc>Created with Sketch.</desc>
    <defs></defs>
    <g id="piano" stroke="none" stroke-width="1" fill="none" fill-rule="evenodd">
        <g id="Group" transform="translate(5.000000, 5.000000)" fill-rule="nonzero" stroke="#111111" stroke-width="0.125">
            <rect id="Rectangle-path" fill="#FFFFFF" x="0" y="0" width="4" height="30"></rect>
            <rect id="Rectangle-path" fill="#FFFFFF" x="4" y="0" width="4" height="30"></rect>
            <rect id="Rectangle-path" fill="#000000" x="2" y="0" width="3" height="20"></rect>
            <rect id="Rectangle-path" fill="#FFFFFF" x="8" y="0" width="4" height="30"></rect>
            <rect id="Rectangle-path" fill="#FFFFFF" x="12" y="0" width="4" height="30"></rect>
            <rect id="Rectangle-path" fill="#FFFFFF" x="16" y="0" width="4" height="30"></rect>
            <rect id="Rectangle-path" fill="#FFFFFF" x="20" y="0" width="4" height="30"></rect>
            <rect id="Rectangle-path" fill="#FFFFFF" x="24" y="0" width="4" height="30"></rect>
            <rect id="Rectangle-path" fill="#FFFFFF" x="28" y="0" width="4" height="30"></rect>
            <rect id="Rectangle-path" fill="#FFFFFF" x="32" y="0" width="4" height="30"></rect>
            <rect id="Rectangle-path" fill="#000000" x="10" y="0" width="3" height="20"></rect>
            <rect id="Rectangle-path" fill="#000000" x="15" y="0" width="3" height="20"></rect>
            <rect id="Rectangle-path" fill="#000000" x="22" y="0" width="3" height="20"></rect>
            <rect id="Rectangle-path" fill="#000000" x="27" y="0" width="3" height="20"></rect>
            <rect id="Rectangle-path" fill="#000000" x="31" y="0" width="3" height="20"></rect>
            <rect id="Rectangle-path" fill="#FFFFFF" x="36" y="0" width="4" height="30"></rect>
            <rect id="Rectangle-path" fill="#FFFFFF" x="40" y="0" width="4" height="30"></rect>
            <rect id="Rectangle-path" fill="#FFFFFF" x="44" y="0" width="4" height="30"></rect>
            <rect id="Rectangle-path" fill="#FFFFFF" x="48" y="0" width="4" height="30"></rect>
            <rect id="Rectangle-path" fill="#FFFFFF" x="52" y="0" width="4" height="30"></rect>
            <rect id="Rectangle-path" fill="#FFFFFF" x="56" y="0" width="4" height="30"></rect>
            <rect id="Rectangle-path" fill="#FFFFFF" x="60" y="0" width="4" height="30"></rect>
            <rect id="Rectangle-path" fill="#000000" x="38" y="0" width="3" height="20"></rect>
            <rect id="Rectangle-path" fill="#000000" x="43" y="0" width="3" height="20"></rect>
            <rect id="Rectangle-path" fill="#000000" x="50" y="0" width="3" height="20"></rect>
            <rect id="Rectangle-path" fill="#000000" x="55" y="0" width="3" height="20"></rect>
            <rect id="Rectangle-path" fill="#000000" x="59" y="0" width="3" height="20"></rect>
            <rect id="Rectangle-path" fill="#FFFFFF" x="64" y="0" width="4" height="30"></rect>
            <rect id="Rectangle-path" fill="#FFFFFF" x="68" y="0" width="4" height="30"></rect>
            <rect id="Rectangle-path" fill="#FFFFFF" x="72" y="0" width="4" height="30"></rect>
            <rect id="Rectangle-path" fill="#FFFFFF" x="76" y="0" width="4" height="30"></rect>
            <rect id="Rectangle-path" fill="#FFFFFF" x="80" y="0" width="4" height="30"></rect>
            <rect id="Rectangle-path" fill="#FFFFFF" x="84" y="0" width="4" height="30"></rect>
            <rect id="Rectangle-path" fill="#FFFFFF" x="88" y="0" width="4" height="30"></rect>
            <rect id="Rectangle-path" fill="#000000" x="66" y="0" width="3" height="20"></rect>
            <rect id="Rectangle-path" fill="#000000" x="71" y="0" width="3" height="20"></rect>
            <rect id="Rectangle-path" fill="#000000" x="78" y="0" width="3" height="20"></rect>
            <rect id="Rectangle-path" fill="#000000" x="83" y="0" width="3" height="20"></rect>
            <rect id="Rectangle-path" fill="#000000" x="87" y="0" width="3" height="20"></rect>
            <rect id="Rectangle-path" fill="#FFFFFF" x="92" y="0" width="4" height="30"></rect>
            <rect id="Rectangle-path" fill="#FFFFFF" x="96" y="0" width="4" height="30"></rect>
            <rect id="Rectangle-path" fill="#FFFFFF" x="100" y="0" width="4" height="30"></rect>
            <rect id="Rectangle-path" fill="#FFFFFF" x="104" y="0" width="4" height="30"></rect>
            <rect id="Rectangle-path" fill="#FFFFFF" x="108" y="0" width="4" height="30"></rect>
            <rect id="Rectangle-path" fill="#FFFFFF" x="112" y="0" width="4" height="30"></rect>
            <rect id="Rectangle-path" fill="#FFFFFF" x="116" y="0" width="4" height="30"></rect>
            <rect id="Rectangle-path" fill="#000000" x="94" y="0" width="3" height="20"></rect>
            <rect id="Rectangle-path" fill="#000000" x="99" y="0" width="3" height="20"></rect>
            <rect id="Rectangle-path" fill="#000000" x="106" y="0" width="3" height="20"></rect>
            <rect id="Rectangle-path" fill="#000000" x="111" y="0" width="3" height="20"></rect>
            <rect id="Rectangle-path" fill="#000000" x="115" y="0" width="3" height="20"></rect>
            <rect id="Rectangle-path" fill="#FFFFFF" x="120" y="0" width="4" height="30"></rect>
            <rect id="Rectangle-path" fill="#FFFFFF" x="124" y="0" width="4" height="30"></rect>
            <rect id="Rectangle-path" fill="#FFFFFF" x="128" y="0" width="4" height="30"></rect>
            <rect id="Rectangle-path" fill="#FFFFFF" x="132" y="0" width="4" height="30"></rect>
            <rect id="Rectangle-path" fill="#FFFFFF" x="136" y="0" width="4" height="30"></rect>
            <rect id="Rectangle-path" fill="#FFFFFF" x="140" y="0" width="4" height="30"></rect>
            <rect id="Rectangle-path" fill="#FFFFFF" x="144" y="0" width="4" height="30"></rect>
            <rect id="Rectangle-path" fill="#000000" x="122" y="0" width="3" height="20"></rect>
            <rect id="Rectangle-path" fill="#000000" x="127" y="0" width="3" height="20"></rect>
            <rect id="Rectangle-path" fill="#000000" x="134" y="0" width="3" height="20"></rect>
            <rect id="Rectangle-path" fill="#000000" x="139" y="0" width="3" height="20"></rect>
            <rect id="Rectangle-path" fill="#000000" x="143" y="0" width="3" height="20"></rect>
            <rect id="Rectangle-path" fill="#FFFFFF" x="148" y="0" width="4" height="30"></rect>
            <rect id="Rectangle-path" fill="#FFFFFF" x="152" y="0" width="4" height="30"></rect>
            <rect id="Rectangle-path" fill="#FFFFFF" x="156" y="0" width="4" height="30"></rect>
            <rect id="Rectangle-path" fill="#FFFFFF" x="160" y="0" width="4" height="30"></rect>
            <rect id="Rectangle-path" fill="#FFFFFF" x="164" y="0" width="4" height="30"></rect>
            <rect id="Rectangle-path" fill="#FFFFFF" x="168" y="0" width="4" height="30"></rect>
            <rect id="Rectangle-path" fill="#FFFFFF" x="172" y="0" width="4" height="30"></rect>
            <rect id="Rectangle-path" fill="#000000" x="150" y="0" width="3" height="20"></rect>
            <rect id="Rectangle-path" fill="#000000" x="155" y="0" width="3" height="20"></rect>
            <rect id="Rectangle-path" fill="#000000" x="162" y="0" width="3" height="20"></rect>
            <rect id="Rectangle-path" fill="#000000" x="167" y="0" width="3" height="20"></rect>
            <rect id="Rectangle-path" fill="#000000" x="171" y="0" width="3" height="20"></rect>
            <rect id="Rectangle-path" fill="#FFFFFF" x="176" y="0" width="4" height="30"></rect>
            <rect id="Rectangle-path" fill="#FFFFFF" x="180" y="0" width="4" height="30"></rect>
            <rect id="Rectangle-path" fill="#FFFFFF" x="184" y="0" width="4" height="30"></rect>
            <rect id="Rectangle-path" fill="#FFFFFF" x="188" y="0" width="4" height="30"></rect>
            <rect id="Rectangle-path" fill="#FFFFFF" x="192" y="0" width="4" height="30"></rect>
            <rect id="Rectangle-path" fill="#FFFFFF" x="196" y="0" width="4" height="30"></rect>
            <rect id="Rectangle-path" fill="#FFFFFF" x="200" y="0" width="4" height="30"></rect>
            <rect id="Rectangle-path" fill="#000000" x="178" y="0" width="3" height="20"></rect>
            <rect id="Rectangle-path" fill="#000000" x="183" y="0" width="3" height="20"></rect>
            <rect id="Rectangle-path" fill="#000000" x="190" y="0" width="3" height="20"></rect>
            <rect id="Rectangle-path" fill="#000000" x="195" y="0" width="3" height="20"></rect>
            <rect id="Rectangle-path" fill="#000000" x="199" y="0" width="3" height="20"></rect>
            <rect id="Rectangle-path" fill="#FFFFFF" x="204" y="0" width="4" height="30"></rect>
        </g>
        <path d="M5.5,43.5 L212.5,43.5" id="Line" stroke="#D8D5D9" stroke-width="0.5" stroke-linecap="square" fill-rule="nonzero"></path>
        <g id="Group-2" transform="translate(96.000000, 39.000000)">
            <rect id="Rectangle" fill="#FFFFFF" fill-rule="nonzero" x="0" y="0" width="27" height="9"></rect>
            <text id="88-keys" font-family="SFProDisplay-Bold, SF Pro Display" font-size="4" font-weight="bold" letter-spacing="0.00833333377" fill="#000000">
                <tspan x="6" y="6">88 keys</tspan>
            </text>
        </g>
        <text id="A0" font-family="SFProDisplay-Bold, SF Pro Display" font-size="3" font-weight="bold" letter-spacing="0.00625000056" fill="#000000">
            <tspan x="5" y="40">A0</tspan>
        </text>
        <text id="21" font-family="SFProDisplay-Bold, SF Pro Display" font-size="3" font-weight="bold" letter-spacing="0.00625000056" fill="#000000">
            <tspan x="5" y="49">21</tspan>
        </text>
        <text id="C8" font-family="SFProDisplay-Bold, SF Pro Display" font-size="3" font-weight="bold" letter-spacing="0.00625000056" fill="#000000">
            <tspan x="208.893262" y="40">C8</tspan>
        </text>
        <text id="108" font-family="SFProDisplay-Bold, SF Pro Display" font-size="3" font-weight="bold" letter-spacing="0.00625000056" fill="#000000">
            <tspan x="207.631641" y="49">108</tspan>
        </text>
    </g>
</svg>
