<svg fill="none" height="200" viewBox="0 0 409 111" xmlns="http://www.w3.org/2000/svg"><path d="m0 0h409v111h-409z" fill="#fff"/><g fill="#e0e0e0"><path d="m91.78 53.8969 26.635-26.6352c-6.873-6.7931-16.257-11.0505-26.635-11.2541z"/><path d="m129.992 54.22h-37.432l26.404-26.4044c6.662 6.8512 10.827 16.142 11.028 26.4044z"/><path d="m119.156 81.986c6.717-7.006 10.844-16.514 10.844-26.986h-37.83z"/></g><path d="m118.611 82.5437c-6.89 6.9063-16.354 11.2431-26.831 11.4486v-38.2792z" fill="#bdbdbd"/><path d="m91 94v-38.22l-27.1844 27.1844c7.0244 6.8297 16.6132 11.0356 27.1844 11.0356z" fill="#bdbdbd"/><path d="m63.2618 82.4151 27.4151-27.4151h-38.6769c0 10.6874 4.2989 20.3707 11.2618 27.4151z" fill="#828282"/><path d="m91 16v37.83l-26.986-26.986c7.006-6.7167 16.514-10.844 26.986-10.844z" fill="#333"/><path d="m63.4563 27.3894 26.8306 26.8306h-38.2793c.2056-10.4768 4.5424-19.9409 11.4487-26.8306z" fill="#828282"/><path d="m90.2049 53.7052c-.7684.3095-1.1404 1.1833-.8309 1.9518.3095.7684 1.1834 1.1404 1.9518.8309zm31.8321-11.2049-17.15-2.4286 6.472 16.0662zm-30.7112 13.9876 15.6352-6.2981-1.12-2.7827-15.6361 6.2981zm15.6352-6.2981 3.114-1.2541-1.121-2.7827-3.113 1.2541z" fill="#000"/><circle cx="91.39" cy="54.61" fill="#000" r="2.73"/><path d="m198.683 89.1342h178.366" stroke="#e0e0e0" stroke-linecap="square" stroke-width="2"/><path d="m198.683 88.2683v-69.2683" stroke="#e0e0e0" stroke-linecap="square" stroke-width="2"/><path d="m221.195 69.2195h17.3171v17.3171h-17.3171z" fill="#e0e0e0"/><path d="m221.195 50.1707h17.3171v17.3171h-17.3171z" fill="#e0e0e0"/><path d="m221.195 31.1219h17.3171v17.3171h-17.3171z" fill="#e0e0e0"/><path d="m255.829 50.1707h17.3171v17.3171h-17.3171z" fill="#bdbdbd"/><path d="m255.829 69.2195h17.3171v17.3171h-17.3171z" fill="#bdbdbd"/><path d="m293.927 50.1707h17.3171v17.3171h-17.3171z" fill="#828282"/><path d="m293.927 69.2195h17.3171v17.3171h-17.3171z" fill="#828282"/><path d="m328.561 69.2195h17.3171v17.3171h-17.3171z" fill="#333"/><g fill="#000"><path d="m231.16 102h1.254l-1.961-5.6367h-1.387l-1.957 5.6367h1.211l.43-1.367h1.98zm-1.433-4.5586h.027l.723 2.3086h-1.473z"/><path d="m263.965 102c1.203 0 1.949-.621 1.949-1.613 0-.7464-.562-1.305-1.328-1.3636v-.0312c.598-.0899 1.059-.6055 1.059-1.2227 0-.8633-.665-1.4062-1.723-1.4062h-2.453v5.6367zm-1.317-4.7578h.969c.551 0 .867.2578.867.7109 0 .4766-.359.7539-.988.7539h-.848zm0 3.8788v-1.6366h.989c.695 0 1.074.2812 1.074.8086 0 .539-.367.828-1.047.828z"/><path d="m302.961 102.098c1.383 0 2.348-.797 2.48-2.055h-1.148c-.125.668-.629 1.078-1.328 1.078-.903 0-1.469-.742-1.469-1.9452 0-1.1875.574-1.9336 1.465-1.9336.687 0 1.219.4531 1.328 1.1445h1.149c-.09-1.2617-1.122-2.1211-2.477-2.1211-1.633 0-2.668 1.0977-2.668 2.9141 0 1.8203 1.027 2.9183 2.668 2.9183z"/><path d="m334.469 96.3633v5.6367h2.152c1.691 0 2.688-1.051 2.688-2.8398 0-1.7891-.997-2.7969-2.688-2.7969zm1.179.9726h.832c1.04 0 1.625.6485 1.625 1.8282 0 1.2189-.57 1.8589-1.625 1.8589h-.832z"/></g></svg>