<svg fill="none" height="300" viewBox="0 0 90 41" xmlns="http://www.w3.org/2000/svg"><path d="m0 0h90v41h-90z" fill="#fff"/><path d="m85 1h4v30h-4z" stroke="#f2f2f2" stroke-width=".125"/><path d="m33 1h4v30h-4z" stroke="#000" stroke-width=".125"/><path d="m37 1h4v30h-4z" stroke="#000" stroke-width=".125"/><path d="m41 1h4v30h-4z" stroke="#000" stroke-width=".125"/><path d="m45 1h4v30h-4z" stroke="#000" stroke-width=".125"/><path d="m49 1h4v30h-4z" stroke="#000" stroke-width=".125"/><path d="m53 1h4v30h-4z" stroke="#000" stroke-width=".125"/><path d="m36 1h2v20h-2z" fill="#000"/><path d="m44 1h2v20h-2z" fill="#000"/><path d="m48 1h2v20h-2z" fill="#000"/><path d="m52 1h2v20h-2z" fill="#000"/><path d="m69 1h4v30h-4z" stroke="#f2f2f2" stroke-width=".125"/><path d="m73 1h4v30h-4z" stroke="#f2f2f2" stroke-width=".125"/><path d="m77 1h4v30h-4z" stroke="#f2f2f2" stroke-width=".125"/><path d="m81 1h4v30h-4z" stroke="#f2f2f2" stroke-width=".125"/><path d="m72 1h2v20h-2z" fill="#f2f2f2"/><path d="m76 1h2v20h-2z" fill="#f2f2f2"/><path d="m80 1h2v20h-2z" fill="#f2f2f2"/><path d="m1 1h4v30h-4z" stroke="#f2f2f2" stroke-width=".125"/><path d="m5 1h4v30h-4z" stroke="#f2f2f2" stroke-width=".125"/><path d="m9 1h4v30h-4z" stroke="#f2f2f2" stroke-width=".125"/><path d="m13 1h4v30h-4z" stroke="#f2f2f2" stroke-width=".125"/><path d="m17 1h4v30h-4z" stroke="#f2f2f2" stroke-width=".125"/><path d="m21 1h4v30h-4z" stroke="#f2f2f2" stroke-width=".125"/><path d="m25 1h4v30h-4z" stroke="#f2f2f2" stroke-width=".125"/><path d="m4 1h2v20h-2z" fill="#f2f2f2"/><path d="m8 1h2v20h-2z" fill="#f2f2f2"/><path d="m16 1h2v20h-2z" fill="#f2f2f2"/><path d="m20 1h2v20h-2z" fill="#f2f2f2"/><path d="m24 1h2v20h-2z" fill="#f2f2f2"/><path d="m61 1h4v30h-4z" stroke="#f2f2f2" stroke-width=".125"/><path d="m65 1h4v30h-4z" stroke="#f2f2f2" stroke-width=".125"/><path d="m64 1h2v20h-2z" fill="#f2f2f2"/><path d="m29 38h32" stroke="#e0e0e0" stroke-linecap="square" stroke-width=".5"/><path d="m40 36h11v4h-11z" fill="#fff"/><path d="m42.2123 37.1363c-.5434 0-.8836.3644-.8836.9484 0 .5827.3402.947.8836.947.5421 0 .8836-.3643.8836-.947 0-.584-.3415-.9484-.8836-.9484zm0 .32c.2996 0 .4913.2437.4913.6284 0 .3834-.1917.6258-.4913.6258-.3009 0-.4926-.2424-.4926-.6258 0-.3847.193-.6284.4926-.6284zm2.3443.6893c-.0165-.3085-.2501-.5357-.6183-.5357-.4075 0-.6678.2716-.6678.7084 0 .4443.2603.7109.6704.7109.358 0 .5979-.2069.6169-.5281h-.3453c-.0228.1485-.1193.2374-.2678.2374-.1841 0-.2984-.1524-.2984-.4202 0-.2628.1143-.4177.2971-.4177.1523 0 .2476.1015.2691.245zm.2876-.8201v.3136h-.1917v.2793h.1917v.7147c0 .2653.1244.372.4443.372.0749 0 .1384-.0064.1765-.0153v-.2729c-.0228.0038-.0571.0063-.0901.0063-.1092 0-.16-.0495-.16-.1536v-.6512h.2514v-.2793h-.2514v-.3136zm1.3464 1.4282c-.1257 0-.2094-.0635-.2094-.165 0-.0965.0787-.1587.217-.1689l.287-.0177v.099c0 .1472-.1333.2526-.2946.2526zm-.1219.2679c.1702 0 .339-.0851.4152-.2298h.0076v.2082h.358v-.9356c0-.2743-.2272-.4545-.5764-.4545-.3605 0-.5852.1815-.5992.4456h.339c.0178-.1003.1054-.1689.2437-.1689.1397 0 .2286.0737.2286.2006v.0901l-.3428.0204c-.339.0203-.5294.1637-.5294.4113 0 .245.1968.4126.4557.4126zm2.2656-1.3825h-.3872l-.2818 1.0334h-.0077l-.2831-1.0334h-.3973l.471 1.3609h.4189zm.7104.245c.165 0 .278.1193.2856.2932h-.5776c.0127-.1701.1295-.2932.292-.2932zm.2907.6995c-.0343.1041-.1384.1714-.2742.1714-.1892 0-.3123-.1333-.3123-.3276v-.0228h.9382v-.113c0-.4139-.2501-.6817-.6462-.6817-.4025 0-.6564.2818-.6564.716 0 .4354.2514.7033.6704.7033.3364 0 .5801-.179.6208-.4456z" fill="#000"/><path d="m31.1104 35.0366c.5185 0 .8803-.2988.9301-.7705h-.4306c-.0469.2505-.2359.4043-.4981.4043-.3384 0-.5508-.2783-.5508-.7295 0-.4453.2154-.7251.5494-.7251.2578 0 .457.1699.498.4292h.4307c-.0337-.4731-.4204-.7954-.9287-.7954-.6124 0-1.0005.4116-1.0005 1.0928 0 .6826.3852 1.0942 1.0005 1.0942z" fill="#000"/><path d="m59.1104 35.0366c.5185 0 .8803-.2988.9301-.7705h-.4306c-.0469.2505-.2359.4043-.4981.4043-.3384 0-.5508-.2783-.5508-.7295 0-.4453.2154-.7251.5494-.7251.2578 0 .457.1699.498.4292h.4307c-.0337-.4731-.4204-.7954-.9287-.7954-.6124 0-1.0005.4116-1.0005 1.0928 0 .6826.3852 1.0942 1.0005 1.0942z" fill="#000"/><circle cx="35" cy="29" fill="#bdbdbd" r="1"/><circle cx="39" cy="29" fill="#bdbdbd" r="1"/><circle cx="43" cy="29" fill="#bdbdbd" r="1"/><circle cx="47" cy="29" fill="#bdbdbd" r="1"/><circle cx="51" cy="29" fill="#bdbdbd" r="1"/><circle cx="55" cy="29" fill="#bdbdbd" r="1"/><g fill="#f2f2f2"><circle cx="63" cy="29" r="1"/><circle cx="67" cy="29" r="1"/><circle cx="71" cy="29" r="1"/><circle cx="75" cy="29" r="1"/><circle cx="79" cy="29" r="1"/><circle cx="83" cy="29" r="1"/><circle cx="87" cy="29" r="1"/><circle cx="3" cy="29" r="1"/><circle cx="7" cy="29" r="1"/><circle cx="11" cy="29" r="1"/><circle cx="15" cy="29" r="1"/><circle cx="19" cy="29" r="1"/><circle cx="23" cy="29" r="1"/><circle cx="27" cy="29" r="1"/></g><path d="m29 1h4v30h-4z" stroke="#000" stroke-width=".125"/><path d="m32 1h2v20h-2z" fill="#000"/><circle cx="31" cy="29" fill="#bdbdbd" r="1"/><circle cx="59" cy="29" fill="#bdbdbd" r="1"/><path d="m60 1h2v20h-2z" fill="#f2f2f2"/><path d="m57 1h4v30h-4z" stroke="#000" stroke-width=".125"/></svg>