<svg fill="none" height="229" viewBox="0 0 762 229" width="762" xmlns="http://www.w3.org/2000/svg"><path d="m0 0h762v229h-762z" fill="#fff"/><path d="m527.721 101h5.642l-8.824-25.3652h-6.24l-8.807 25.3652h5.449l1.934-6.1523h8.912zm-6.451-20.5137h.123l3.252 10.3887h-6.627z" fill="#e0e0e0"/><path d="m675.418 79.7832h4.518c2.636 0 4.289 1.582 4.289 4.043 0 2.5136-1.565 4.0429-4.237 4.0429h-4.57zm0 11.9356h4.254l4.728 9.2812h6.012l-5.344-10.0723c2.918-1.1425 4.606-3.955 4.606-7.207 0-5.0098-3.34-8.0859-9.176-8.0859h-10.389v25.3652h5.309z" fill="#e0e0e0"/><path d="m601 151v-127" stroke="#e0e0e0" stroke-dasharray="5 5" stroke-linecap="square"/><path d="m443.5 153 156.405-103.2769c.665-.439 1.527-.4415 2.194-.0063l158.401 103.2832" stroke="#828282" stroke-width="2"/><g fill="#e0e0e0"><path d="m73.7207 101h5.6426l-8.8242-25.3652h-6.2403l-8.8066 25.3652h5.4492l1.9336-6.1523h8.9121zm-6.4512-20.5137h.1231l3.2519 10.3887h-6.6269z"/><path d="m133.109 75.6348v25.3652h9.686c7.611 0 12.094-4.7285 12.094-12.7793s-4.483-12.5859-12.094-12.5859zm5.309 4.3769h3.744c4.676 0 7.313 2.918 7.313 8.2266 0 5.4844-2.567 8.3672-7.313 8.3672h-3.744z"/><path d="m211.16 93.7754c.158 4.7637 4.043 7.6636 10.143 7.6636 6.293 0 10.283-3.1109 10.283-8.0328 0-3.8671-2.215-6.0468-7.295-7.1367l-3.076-.6504c-2.918-.6679-4.149-1.5468-4.149-3.1113 0-1.8808 1.758-3.1289 4.377-3.1289 2.655 0 4.536 1.3008 4.711 3.4453h4.975c-.088-4.5879-3.797-7.6289-9.703-7.6289-5.66 0-9.703 3.0938-9.703 7.7695 0 3.709 2.302 6.0821 6.978 7.084l3.305.7207c3.058.6856 4.271 1.5996 4.271 3.252 0 1.8633-1.933 3.2168-4.763 3.2168-2.813 0-4.993-1.3711-5.239-3.4629z"/><path d="m295.418 79.7832h4.518c2.636 0 4.289 1.582 4.289 4.043 0 2.5136-1.565 4.0429-4.237 4.0429h-4.57zm0 11.9356h4.254l4.728 9.2812h6.012l-5.344-10.0723c2.918-1.1425 4.606-3.955 4.606-7.207 0-5.0098-3.34-8.0859-9.176-8.0859h-10.389v25.3652h5.309z"/></g><g stroke="#e0e0e0"><path d="m104 151v-127" stroke-dasharray="5 5" stroke-linecap="square"/><path d="m183 151v-127" stroke-dasharray="5 5" stroke-linecap="square"/><path d="m262 151v-127" stroke-dasharray="5 5" stroke-linecap="square"/></g><path d="m26 153.5 77.302-101.5821c.432-.5681 1.134-.8627 1.842-.7731l77.856 9.8552h77.592c.577 0 1.126.249 1.506.683l79.902 91.317" stroke="#828282" stroke-linejoin="round" stroke-width="2"/><path d="m148.24 205h1.881l-2.941-8.455h-2.08l-2.936 8.455h1.816l.645-2.051h2.971zm-2.15-6.838h.041l1.084 3.463h-2.209zm4.915-1.617v8.455h3.228c2.538 0 4.032-1.576 4.032-4.26 0-2.683-1.494-4.195-4.032-4.195zm1.769 1.459h1.249c1.558 0 2.437.973 2.437 2.742 0 1.828-.855 2.789-2.437 2.789h-1.249zm6.334 4.588c.052 1.588 1.347 2.554 3.38 2.554 2.098 0 3.428-1.037 3.428-2.677 0-1.289-.738-2.016-2.431-2.379l-1.026-.217c-.973-.223-1.383-.516-1.383-1.037 0-.627.586-1.043 1.459-1.043.885 0 1.512.434 1.571 1.148h1.658c-.029-1.529-1.266-2.543-3.235-2.543-1.886 0-3.234 1.032-3.234 2.59 0 1.237.768 2.028 2.326 2.362l1.102.24c1.019.228 1.424.533 1.424 1.084 0 .621-.645 1.072-1.588 1.072-.938 0-1.664-.457-1.746-1.154zm9.684-4.664h1.506c.879 0 1.43.527 1.43 1.347 0 .838-.522 1.348-1.412 1.348h-1.524zm0 3.978h1.418l1.576 3.094h2.004l-1.781-3.357c.973-.381 1.535-1.319 1.535-2.403 0-1.67-1.113-2.695-3.058-2.695h-3.463v8.455h1.769zm13.932 1.629h-3.832v-2.133h3.615v-1.359h-3.615v-2.039h3.832v-1.459h-5.602v8.455h5.602zm1.147 1.465h1.711v-3.604c0-.814.487-1.376 1.254-1.376.768 0 1.155.468 1.155 1.289v3.691h1.711v-4.049c0-1.471-.786-2.349-2.18-2.349-.967 0-1.629.457-1.963 1.236h-.035v-1.119h-1.653zm12.638-6.281h-1.787l-1.301 4.769h-.035l-1.306-4.769h-1.834l2.173 6.281h1.934zm3.257 1.131c.762 0 1.283.55 1.319 1.353h-2.667c.059-.785.598-1.353 1.348-1.353zm1.342 3.228c-.158.481-.639.791-1.266.791-.873 0-1.441-.615-1.441-1.512v-.105h4.33v-.522c0-1.91-1.154-3.146-2.982-3.146-1.858 0-3.03 1.301-3.03 3.305 0 2.009 1.16 3.246 3.094 3.246 1.553 0 2.678-.826 2.865-2.057zm2.565 1.922h1.711v-8.455h-1.711zm5.765.135c1.899 0 3.111-1.213 3.111-3.281 0-2.04-1.23-3.27-3.111-3.27s-3.111 1.236-3.111 3.27c0 2.062 1.213 3.281 3.111 3.281zm0-1.307c-.844 0-1.377-.709-1.377-1.969 0-1.248.545-1.968 1.377-1.968s1.371.72 1.371 1.968c0 1.26-.533 1.969-1.371 1.969zm7.681-5.209c-.908 0-1.606.457-1.945 1.195h-.036v-1.095h-1.687v8.332h1.711v-3.106h.035c.334.709 1.037 1.155 1.951 1.155 1.57 0 2.543-1.219 2.543-3.241 0-2.027-.978-3.24-2.572-3.24zm-.574 5.104c-.838 0-1.389-.727-1.389-1.864 0-1.125.551-1.869 1.389-1.869.855 0 1.394.733 1.394 1.869 0 1.143-.539 1.864-1.394 1.864zm6.866-3.873c.762 0 1.283.55 1.318 1.353h-2.666c.059-.785.598-1.353 1.348-1.353zm1.342 3.228c-.158.481-.639.791-1.266.791-.873 0-1.441-.615-1.441-1.512v-.105h4.33v-.522c0-1.91-1.155-3.146-2.983-3.146-1.857 0-3.029 1.301-3.029 3.305 0 2.009 1.16 3.246 3.094 3.246 1.553 0 2.678-.826 2.865-2.057z" fill="#000"/><path d="m174.996 169v-4.664h1.633v-.973h-4.441v.973h1.628v4.664zm2.044 0h1.141v-4.188h-1.141zm.57-4.648c.344 0 .61-.262.61-.59 0-.332-.266-.59-.61-.59-.343 0-.609.258-.609.59 0 .328.266.59.609.59zm1.349 4.648h1.141v-2.527c0-.469.293-.797.726-.797.422 0 .676.265.676.715v2.609h1.098v-2.543c0-.465.285-.781.718-.781.442 0 .684.265.684.75v2.574h1.141v-2.859c0-.844-.551-1.407-1.371-1.407-.614 0-1.114.332-1.301.86h-.024c-.14-.547-.562-.86-1.168-.86-.57 0-1.019.332-1.195.836h-.023v-.758h-1.102zm8.802-3.434c.508 0 .855.368.879.903h-1.777c.039-.524.398-.903.898-.903zm.894 2.153c-.105.32-.425.527-.843.527-.582 0-.961-.41-.961-1.008v-.07h2.887v-.348c0-1.273-.77-2.097-1.989-2.097-1.238 0-2.019.867-2.019 2.203 0 1.34.773 2.164 2.062 2.164 1.035 0 1.785-.551 1.91-1.371z" fill="#000"/><path d="m8 102.84v-1.254l-5.63672 1.961v1.387l5.63672 1.957v-1.211l-1.36719-.43v-1.98zm-4.55859 1.433v-.027l2.30859-.723v1.473zm4.55859-3.184v-1.1408h-2.52734c-.46875 0-.79688-.293-.79688-.7266 0-.4219.26563-.6758.71484-.6758h2.60938v-1.0976h-2.54297c-.46484 0-.78125-.2852-.78125-.7188 0-.4414.26563-.6836.75-.6836h2.57422v-1.1406h-2.85938c-.84374 0-1.40624.5508-1.40624 1.3711 0 .6133.33203 1.1133.85937 1.3008v.0234c-.54687.1406-.85937.5625-.85937 1.168 0 .5703.33203 1.0195.83593 1.1953v.0234h-.75781v1.1018zm-4.25391-9.3684c0 .6054.30469 1.0703.79688 1.2968v.0235h-.73047v1.125h5.55469v-1.1406h-2.07031v-.0235c.47265-.2226.76953-.6914.76953-1.3008 0-1.0468-.8125-1.6953-2.16016-1.6953-1.35156 0-2.16016.6524-2.16016 1.7149zm3.40235.3828c0 .5586-.48438.9258-1.24219.9258-.75 0-1.24609-.3672-1.24609-.9258 0-.5703.48828-.9297 1.24609-.9297.76172 0 1.24219.3594 1.24219.9297zm.85156-2.7315v-1.1406h-5.63672v1.1406zm0-1.9464v-1.1406h-4.1875v1.1406zm-4.64844-.5703c0-.3437-.26172-.6094-.58984-.6094-.33203 0-.58984.2657-.58984.6094 0 .3438.25781.6094.58984.6094.32812 0 .58984-.2656.58984-.6094zm-.5039-1.6534h.96484v.5899h.85938v-.5899h2.19921c.81641 0 1.14453-.3828 1.14453-1.3672 0-.2304-.01953-.4257-.04687-.5429h-.83984c.01171.0703.01953.1757.01953.2773 0 .3359-.15235.4922-.47266.4922h-2.0039v-.7734h-.85938v.7734h-.96484zm.96484-6.4229v1.1406h2.39844c.55468 0 .91797.3164.91797.8242 0 .504-.29688.7813-.85547.7813h-2.46094v1.1406h2.69922c.97656 0 1.5664-.6015 1.5664-1.5078 0-.6328-.30468-1.0469-.83203-1.2539v-.0234h.75391v-1.1016zm4.25391-2.3135c0-.6172-.32422-1.1016-.78516-1.3047v-.0196h.71875v-1.125h-5.63672v1.1407h2.16797v.0234c-.46484.2031-.78516.6719-.78516 1.2774 0 1.0507.82422 1.7148 2.15235 1.7148 1.33984 0 2.16797-.6602 2.16797-1.707zm-3.40625-.3868c0-.5664.48437-.9296 1.24609-.9296.76563 0 1.24219.3632 1.24219.9296 0 .5743-.47266.9258-1.24219.9258-.76563 0-1.24609-.3515-1.24609-.9258zm-.09375-4.7197c0-.5079.36718-.8555.90234-.879v1.7774c-.52344-.0391-.90234-.3984-.90234-.8984zm2.15234-.8946c.32031.1055.52734.4258.52734.8438 0 .582-.41015.9609-1.00781.9609h-.07031v-2.8867h-.34766c-1.27343 0-2.09765.7695-2.09765 1.9883 0 1.2383.86718 2.0195 2.20312 2.0195 1.33984 0 2.16406-.7734 2.16406-2.0625 0-1.0352-.55078-1.7852-1.37109-1.9102z" fill="#000"/><path d="m25 153.5h318" stroke="#e0e0e0" stroke-linecap="square" stroke-width="2"/><path d="m25 153v-130" stroke="#e0e0e0" stroke-linecap="square" stroke-width="2"/><path d="m574.24 205h1.881l-2.941-8.455h-2.08l-2.936 8.455h1.816l.645-2.051h2.971zm-2.15-6.838h.041l1.084 3.463h-2.209zm6.684-.234h1.506c.879 0 1.43.527 1.43 1.347 0 .838-.521 1.348-1.412 1.348h-1.524zm0 3.978h1.418l1.577 3.094h2.004l-1.782-3.357c.973-.381 1.535-1.319 1.535-2.403 0-1.67-1.113-2.695-3.058-2.695h-3.463v8.455h1.769zm13.932 1.629h-3.832v-2.133h3.615v-1.359h-3.615v-2.039h3.832v-1.459h-5.601v8.455h5.601zm1.148 1.465h1.711v-3.604c0-.814.486-1.376 1.254-1.376.767 0 1.154.468 1.154 1.289v3.691h1.711v-4.049c0-1.471-.785-2.349-2.18-2.349-.967 0-1.629.457-1.963 1.236h-.035v-1.119h-1.652zm12.638-6.281h-1.788l-1.3 4.769h-.036l-1.306-4.769h-1.834l2.174 6.281h1.933zm3.256 1.131c.762 0 1.284.55 1.319 1.353h-2.666c.058-.785.597-1.353 1.347-1.353zm1.342 3.228c-.158.481-.638.791-1.265.791-.873 0-1.442-.615-1.442-1.512v-.105h4.33v-.522c0-1.91-1.154-3.146-2.982-3.146-1.858 0-3.029 1.301-3.029 3.305 0 2.009 1.16 3.246 3.093 3.246 1.553 0 2.678-.826 2.866-2.057zm2.566 1.922h1.711v-8.455h-1.711zm5.764.135c1.899 0 3.112-1.213 3.112-3.281 0-2.04-1.231-3.27-3.112-3.27-1.88 0-3.111 1.236-3.111 3.27 0 2.062 1.213 3.281 3.111 3.281zm0-1.307c-.843 0-1.377-.709-1.377-1.969 0-1.248.545-1.968 1.377-1.968s1.372.72 1.372 1.968c0 1.26-.534 1.969-1.372 1.969zm7.681-5.209c-.908 0-1.605.457-1.945 1.195h-.035v-1.095h-1.688v8.332h1.711v-3.106h.035c.334.709 1.037 1.155 1.951 1.155 1.571 0 2.543-1.219 2.543-3.241 0-2.027-.978-3.24-2.572-3.24zm-.574 5.104c-.838 0-1.389-.727-1.389-1.864 0-1.125.551-1.869 1.389-1.869.855 0 1.394.733 1.394 1.869 0 1.143-.539 1.864-1.394 1.864zm6.866-3.873c.762 0 1.283.55 1.319 1.353h-2.666c.058-.785.597-1.353 1.347-1.353zm1.342 3.228c-.158.481-.639.791-1.266.791-.873 0-1.441-.615-1.441-1.512v-.105h4.33v-.522c0-1.91-1.154-3.146-2.982-3.146-1.858 0-3.03 1.301-3.03 3.305 0 2.009 1.161 3.246 3.094 3.246 1.553 0 2.678-.826 2.865-2.057z" fill="#000"/><path d="m592.996 169v-4.664h1.633v-.973h-4.441v.973h1.628v4.664zm2.044 0h1.141v-4.188h-1.141zm.57-4.648c.344 0 .61-.262.61-.59 0-.332-.266-.59-.61-.59-.343 0-.609.258-.609.59 0 .328.266.59.609.59zm1.349 4.648h1.141v-2.527c0-.469.293-.797.726-.797.422 0 .676.265.676.715v2.609h1.098v-2.543c0-.465.285-.781.718-.781.442 0 .684.265.684.75v2.574h1.141v-2.859c0-.844-.551-1.407-1.371-1.407-.614 0-1.114.332-1.301.86h-.024c-.14-.547-.562-.86-1.168-.86-.57 0-1.019.332-1.195.836h-.023v-.758h-1.102zm8.802-3.434c.508 0 .855.368.879.903h-1.777c.039-.524.398-.903.898-.903zm.894 2.153c-.105.32-.425.527-.843.527-.582 0-.961-.41-.961-1.008v-.07h2.887v-.348c0-1.273-.77-2.097-1.989-2.097-1.238 0-2.019.867-2.019 2.203 0 1.34.773 2.164 2.062 2.164 1.035 0 1.785-.551 1.91-1.371z" fill="#000"/><path d="m426 102.84v-1.254l-5.637 1.961v1.387l5.637 1.957v-1.211l-1.367-.43v-1.98zm-4.559 1.433v-.027l2.309-.723v1.473zm4.559-3.184v-1.1408h-2.527c-.469 0-.797-.293-.797-.7266 0-.4219.265-.6758.715-.6758h2.609v-1.0976h-2.543c-.465 0-.781-.2852-.781-.7188 0-.4414.265-.6836.75-.6836h2.574v-1.1406h-2.859c-.844 0-1.407.5508-1.407 1.3711 0 .6133.332 1.1133.86 1.3008v.0234c-.547.1406-.86.5625-.86 1.168 0 .5703.332 1.0195.836 1.1953v.0234h-.758v1.1018zm-4.254-9.3684c0 .6054.305 1.0703.797 1.2968v.0235h-.731v1.125h5.555v-1.1406h-2.07v-.0235c.473-.2226.769-.6914.769-1.3008 0-1.0468-.812-1.6953-2.16-1.6953-1.351 0-2.16.6524-2.16 1.7149zm3.402.3828c0 .5586-.484.9258-1.242.9258-.75 0-1.246-.3672-1.246-.9258 0-.5703.488-.9297 1.246-.9297.762 0 1.242.3594 1.242.9297zm.852-2.7315v-1.1406h-5.637v1.1406zm0-1.9464v-1.1406h-4.188v1.1406zm-4.648-.5703c0-.3437-.262-.6094-.59-.6094-.332 0-.59.2657-.59.6094 0 .3438.258.6094.59.6094.328 0 .59-.2656.59-.6094zm-.504-1.6534h.964v.5899h.86v-.5899h2.199c.817 0 1.145-.3828 1.145-1.3672 0-.2304-.02-.4257-.047-.5429h-.84c.012.0703.019.1757.019.2773 0 .3359-.152.4922-.472.4922h-2.004v-.7734h-.86v.7734h-.964zm.964-6.4229v1.1406h2.399c.555 0 .918.3164.918.8242 0 .504-.297.7813-.856.7813h-2.461v1.1406h2.7c.976 0 1.566-.6015 1.566-1.5078 0-.6328-.305-1.0469-.832-1.2539v-.0234h.754v-1.1016zm4.254-2.3135c0-.6172-.324-1.1016-.785-1.3047v-.0196h.719v-1.125h-5.637v1.1407h2.168v.0234c-.465.2031-.785.6719-.785 1.2774 0 1.0507.824 1.7148 2.152 1.7148 1.34 0 2.168-.6602 2.168-1.707zm-3.406-.3868c0-.5664.485-.9296 1.246-.9296.766 0 1.242.3632 1.242.9296 0 .5743-.472.9258-1.242.9258-.765 0-1.246-.3515-1.246-.9258zm-.094-4.7197c0-.5079.368-.8555.903-.879v1.7774c-.524-.0391-.903-.3984-.903-.8984zm2.153-.8946c.32.1055.527.4258.527.8438 0 .582-.41.9609-1.008.9609h-.07v-2.8867h-.348c-1.273 0-2.097.7695-2.097 1.9883 0 1.2383.867 2.0195 2.203 2.0195 1.34 0 2.164-.7734 2.164-2.0625 0-1.0352-.551-1.7852-1.371-1.9102z" fill="#000"/><path d="m443 153.5h318" stroke="#e0e0e0" stroke-linecap="square" stroke-width="2"/><path d="m443 153v-130" stroke="#e0e0e0" stroke-linecap="square" stroke-width="2"/></svg>