<svg width="911" height="494" viewBox="0 0 911 494" fill="none" xmlns="http://www.w3.org/2000/svg">
<rect width="911" height="494" fill="white"/>
<path d="M33.7129 303H35.4648V294.545H33.707L31.5215 296.062V297.656L33.6777 296.168H33.7129V303ZM38.3643 304.816L41.3643 294.545H39.7882L36.7823 304.816H38.3643ZM44.0939 303H45.8458V294.545H44.088L41.9025 296.062V297.656L44.0587 296.168H44.0939V303ZM51.1711 303.193C53.0637 303.193 54.4172 301.945 54.4172 300.205C54.4172 298.6 53.2277 297.416 51.6223 297.416C50.5441 297.416 49.7121 297.967 49.3723 298.793H49.3371C49.2961 296.883 50.0109 295.752 51.1887 295.752C51.8508 295.752 52.3957 296.127 52.5656 296.689H54.3059C54.0715 295.307 52.8117 294.352 51.2004 294.352C49.0148 294.352 47.6555 296.039 47.6555 298.84C47.6555 299.965 47.8957 300.92 48.3645 301.635C48.9562 302.643 49.9582 303.193 51.1711 303.193ZM51.1535 301.781C50.2863 301.781 49.6125 301.102 49.6125 300.24C49.6125 299.385 50.2805 298.746 51.1594 298.746C52.0441 298.746 52.6945 299.385 52.6945 300.258C52.6945 301.107 52.0148 301.781 51.1535 301.781Z" fill="black"/>
<path d="M33.7129 447H35.4648V438.545H33.707L31.5215 440.062V441.656L33.6777 440.168H33.7129V447ZM38.3643 448.816L41.3643 438.545H39.7882L36.7823 448.816H38.3643ZM44.0939 447H45.8458V438.545H44.088L41.9025 440.062V441.656L44.0587 440.168H44.0939V447ZM47.6613 441.088V441.117H49.302V441.088C49.302 440.309 49.9055 439.734 50.7258 439.734C51.5109 439.734 52.0676 440.238 52.0676 440.871C52.0676 441.457 51.8039 441.885 50.9484 442.74L47.7609 445.811V447H53.9074V445.594H50.093V445.559L52.1555 443.572C53.0871 442.646 53.7902 441.855 53.7902 440.801C53.7902 439.389 52.5656 438.357 50.7844 438.357C48.9387 438.357 47.6613 439.488 47.6613 441.088ZM58.3362 447.188C60.3694 447.188 61.7639 446.18 61.7639 444.715C61.7639 443.602 60.9612 442.74 59.7776 442.541V442.506C60.762 442.271 61.4182 441.516 61.4182 440.596C61.4182 439.295 60.1526 438.357 58.3362 438.357C56.5257 438.357 55.2483 439.301 55.2483 440.59C55.2483 441.521 55.9104 442.277 56.8948 442.506V442.541C55.7171 442.734 54.9085 443.596 54.9085 444.709C54.9085 446.174 56.2854 447.188 58.3362 447.188ZM58.3362 445.898C57.4046 445.898 56.7542 445.342 56.7542 444.58C56.7542 443.818 57.4046 443.262 58.3362 443.262C59.2678 443.262 59.9124 443.818 59.9124 444.58C59.9124 445.342 59.2678 445.898 58.3362 445.898ZM58.3362 441.973C57.551 441.973 57.0003 441.48 57.0003 440.807C57.0003 440.133 57.551 439.635 58.3362 439.635C59.1155 439.635 59.6721 440.127 59.6721 440.807C59.6721 441.48 59.1155 441.973 58.3362 441.973Z" fill="black"/>
<path d="M33.7129 351H35.4648V342.545H33.707L31.5215 344.062V345.656L33.6777 344.168H33.7129V351ZM38.3643 352.816L41.3643 342.545H39.7882L36.7823 352.816H38.3643ZM44.0353 347.309H45.0783C46.0333 347.309 46.6134 347.777 46.6134 348.551C46.6134 349.266 45.9923 349.764 45.1076 349.764C44.1759 349.764 43.59 349.295 43.5372 348.58H41.8439C41.9259 350.139 43.174 351.188 45.0841 351.188C47.0353 351.188 48.4122 350.18 48.4122 348.662C48.4122 347.49 47.5978 346.729 46.338 346.623V346.588C47.3751 346.4 48.0841 345.65 48.0841 344.613C48.0841 343.26 46.8829 342.357 45.1251 342.357C43.2911 342.357 42.0724 343.377 42.0079 344.941H43.6368C43.6837 344.203 44.2286 343.717 45.049 343.717C45.9279 343.717 46.4142 344.168 46.4142 344.854C46.4142 345.551 45.8693 346.031 45.0607 346.031H44.0353V347.309ZM49.4543 345.088V345.117H51.0949V345.088C51.0949 344.309 51.6984 343.734 52.5187 343.734C53.3039 343.734 53.8605 344.238 53.8605 344.871C53.8605 345.457 53.5969 345.885 52.7414 346.74L49.5539 349.811V351H55.7004V349.594H51.8859V349.559L53.9484 347.572C54.8801 346.646 55.5832 345.855 55.5832 344.801C55.5832 343.389 54.3586 342.357 52.5773 342.357C50.7316 342.357 49.4543 343.488 49.4543 345.088Z" fill="black"/>
<path d="M33.7129 399H35.4648V390.545H33.707L31.5215 392.062V393.656L33.6777 392.168H33.7129V399ZM38.3643 400.816L41.3643 390.545H39.7882L36.7823 400.816H38.3643ZM45.3888 399.193C47.2814 399.193 48.6349 397.945 48.6349 396.205C48.6349 394.6 47.4454 393.416 45.84 393.416C44.7618 393.416 43.9298 393.967 43.59 394.793H43.5548C43.5138 392.883 44.2286 391.752 45.4064 391.752C46.0685 391.752 46.6134 392.127 46.7833 392.689H48.5236C48.2892 391.307 47.0294 390.352 45.4181 390.352C43.2326 390.352 41.8732 392.039 41.8732 394.84C41.8732 395.965 42.1134 396.92 42.5822 397.635C43.174 398.643 44.1759 399.193 45.3888 399.193ZM45.3712 397.781C44.504 397.781 43.8302 397.102 43.8302 396.24C43.8302 395.385 44.4982 394.746 45.3771 394.746C46.2618 394.746 46.9122 395.385 46.9122 396.258C46.9122 397.107 46.2326 397.781 45.3712 397.781ZM53.7492 399H55.4309V397.494H56.5324V396.076H55.4309V390.545H52.9348C51.2004 393.1 50.2805 394.582 49.5422 395.988V397.494H53.7492V399ZM51.0949 396.082C51.7805 394.758 52.5187 393.604 53.7492 391.799H53.7844V396.129H51.0949V396.082Z" fill="black"/>
<path d="M33.7129 255H35.4648V246.545H33.707L31.5215 248.062V249.656L33.6777 248.168H33.7129V255ZM38.3643 256.816L41.3643 246.545H39.7882L36.7823 256.816H38.3643ZM45.2951 255.188C47.3283 255.188 48.7228 254.18 48.7228 252.715C48.7228 251.602 47.9201 250.74 46.7365 250.541V250.506C47.7208 250.271 48.3771 249.516 48.3771 248.596C48.3771 247.295 47.1115 246.357 45.2951 246.357C43.4845 246.357 42.2072 247.301 42.2072 248.59C42.2072 249.521 42.8693 250.277 43.8536 250.506V250.541C42.6759 250.734 41.8673 251.596 41.8673 252.709C41.8673 254.174 43.2443 255.188 45.2951 255.188ZM45.2951 253.898C44.3634 253.898 43.713 253.342 43.713 252.58C43.713 251.818 44.3634 251.262 45.2951 251.262C46.2267 251.262 46.8712 251.818 46.8712 252.58C46.8712 253.342 46.2267 253.898 45.2951 253.898ZM45.2951 249.973C44.5099 249.973 43.9591 249.48 43.9591 248.807C43.9591 248.133 44.5099 247.635 45.2951 247.635C46.0743 247.635 46.631 248.127 46.631 248.807C46.631 249.48 46.0743 249.973 45.2951 249.973Z" fill="black"/>
<path d="M33.7129 207H35.4648V198.545H33.707L31.5215 200.062V201.656L33.6777 200.168H33.7129V207ZM38.3643 208.816L41.3643 198.545H39.7882L36.7823 208.816H38.3643ZM46.0099 207H47.6915V205.494H48.7931V204.076H47.6915V198.545H45.1954C43.4611 201.1 42.5411 202.582 41.8029 203.988V205.494H46.0099V207ZM43.3556 204.082C44.0411 202.758 44.7794 201.604 46.0099 199.799H46.0451V204.129H43.3556V204.082Z" fill="black"/>
<path d="M33.7129 159H35.4648V150.545H33.707L31.5215 152.062V153.656L33.6777 152.168H33.7129V159ZM38.3643 160.816L41.3643 150.545H39.7882L36.7823 160.816H38.3643ZM41.879 153.088V153.117H43.5197V153.088C43.5197 152.309 44.1232 151.734 44.9435 151.734C45.7286 151.734 46.2853 152.238 46.2853 152.871C46.2853 153.457 46.0216 153.885 45.1661 154.74L41.9786 157.811V159H48.1251V157.594H44.3107V157.559L46.3732 155.572C47.3048 154.646 48.0079 153.855 48.0079 152.801C48.0079 151.389 46.7833 150.357 45.0021 150.357C43.1564 150.357 41.879 151.488 41.879 153.088Z" fill="black"/>
<rect x="99" y="144" width="382" height="22" fill="#828282"/>
<rect x="483" y="144" width="382" height="22" fill="#828282"/>
<rect x="99" y="192" width="190" height="22" fill="#828282"/>
<rect x="291" y="192" width="190" height="22" fill="#828282"/>
<rect x="483" y="192" width="190" height="22" fill="#828282"/>
<rect x="675" y="192" width="190" height="22" fill="#828282"/>
<rect x="99" y="240" width="94" height="22" fill="#828282"/>
<rect x="195" y="240" width="94" height="22" fill="#828282"/>
<rect x="291" y="240" width="94" height="22" fill="#828282"/>
<rect x="387" y="240" width="94" height="22" fill="#828282"/>
<rect x="483" y="240" width="94" height="22" fill="#828282"/>
<rect x="579" y="240" width="94" height="22" fill="#828282"/>
<rect x="675" y="240" width="94" height="22" fill="#828282"/>
<rect x="771" y="240" width="94" height="22" fill="#828282"/>
<rect x="99" y="288" width="46" height="22" fill="#828282"/>
<rect x="147" y="288" width="46" height="22" fill="#828282"/>
<rect x="195" y="288" width="46" height="22" fill="#828282"/>
<rect x="243" y="288" width="46" height="22" fill="#828282"/>
<rect x="291" y="288" width="46" height="22" fill="#828282"/>
<rect x="339" y="288" width="46" height="22" fill="#828282"/>
<rect x="387" y="288" width="46" height="22" fill="#828282"/>
<rect x="435" y="288" width="46" height="22" fill="#828282"/>
<rect x="483" y="288" width="46" height="22" fill="#828282"/>
<rect x="531" y="288" width="46" height="22" fill="#828282"/>
<rect x="579" y="288" width="46" height="22" fill="#828282"/>
<rect x="627" y="288" width="46" height="22" fill="#828282"/>
<rect x="675" y="288" width="46" height="22" fill="#828282"/>
<rect x="723" y="288" width="46" height="22" fill="#828282"/>
<rect x="771" y="288" width="46" height="22" fill="#828282"/>
<rect x="819" y="288" width="46" height="22" fill="#828282"/>
<rect x="99" y="336" width="22" height="22" fill="#828282"/>
<rect x="123" y="336" width="22" height="22" fill="#828282"/>
<rect x="147" y="336" width="22" height="22" fill="#828282"/>
<rect x="171" y="336" width="22" height="22" fill="#828282"/>
<rect x="195" y="336" width="22" height="22" fill="#828282"/>
<rect x="219" y="336" width="22" height="22" fill="#828282"/>
<rect x="243" y="336" width="22" height="22" fill="#828282"/>
<rect x="267" y="336" width="22" height="22" fill="#828282"/>
<rect x="291" y="336" width="22" height="22" fill="#828282"/>
<rect x="315" y="336" width="22" height="22" fill="#828282"/>
<rect x="339" y="336" width="22" height="22" fill="#828282"/>
<rect x="363" y="336" width="22" height="22" fill="#828282"/>
<rect x="387" y="336" width="22" height="22" fill="#828282"/>
<rect x="411" y="336" width="22" height="22" fill="#828282"/>
<rect x="435" y="336" width="22" height="22" fill="#828282"/>
<rect x="459" y="336" width="22" height="22" fill="#828282"/>
<rect x="483" y="336" width="22" height="22" fill="#828282"/>
<rect x="507" y="336" width="22" height="22" fill="#828282"/>
<rect x="531" y="336" width="22" height="22" fill="#828282"/>
<rect x="555" y="336" width="22" height="22" fill="#828282"/>
<rect x="579" y="336" width="22" height="22" fill="#828282"/>
<rect x="603" y="336" width="22" height="22" fill="#828282"/>
<rect x="627" y="336" width="22" height="22" fill="#828282"/>
<rect x="651" y="336" width="22" height="22" fill="#828282"/>
<rect x="675" y="336" width="22" height="22" fill="#828282"/>
<rect x="699" y="336" width="22" height="22" fill="#828282"/>
<rect x="723" y="336" width="22" height="22" fill="#828282"/>
<rect x="747" y="336" width="22" height="22" fill="#828282"/>
<rect x="771" y="336" width="22" height="22" fill="#828282"/>
<rect x="795" y="336" width="22" height="22" fill="#828282"/>
<rect x="819" y="336" width="22" height="22" fill="#828282"/>
<rect x="843" y="336" width="22" height="22" fill="#828282"/>
<rect x="99" y="432" width="4" height="22" fill="#828282"/>
<rect x="105" y="432" width="4" height="22" fill="#828282"/>
<rect x="111" y="432" width="4" height="22" fill="#828282"/>
<rect x="117" y="432" width="4" height="22" fill="#828282"/>
<rect x="123" y="432" width="4" height="22" fill="#828282"/>
<rect x="129" y="432" width="4" height="22" fill="#828282"/>
<rect x="135" y="432" width="4" height="22" fill="#828282"/>
<rect x="141" y="432" width="4" height="22" fill="#828282"/>
<rect x="147" y="432" width="4" height="22" fill="#828282"/>
<rect x="153" y="432" width="4" height="22" fill="#828282"/>
<rect x="159" y="432" width="4" height="22" fill="#828282"/>
<rect x="165" y="432" width="4" height="22" fill="#828282"/>
<rect x="171" y="432" width="4" height="22" fill="#828282"/>
<rect x="177" y="432" width="4" height="22" fill="#828282"/>
<rect x="183" y="432" width="4" height="22" fill="#828282"/>
<rect x="189" y="432" width="4" height="22" fill="#828282"/>
<rect x="195" y="432" width="4" height="22" fill="#828282"/>
<rect x="201" y="432" width="4" height="22" fill="#828282"/>
<rect x="207" y="432" width="4" height="22" fill="#828282"/>
<rect x="213" y="432" width="4" height="22" fill="#828282"/>
<rect x="219" y="432" width="4" height="22" fill="#828282"/>
<rect x="225" y="432" width="4" height="22" fill="#828282"/>
<rect x="231" y="432" width="4" height="22" fill="#828282"/>
<rect x="237" y="432" width="4" height="22" fill="#828282"/>
<rect x="243" y="432" width="4" height="22" fill="#828282"/>
<rect x="249" y="432" width="4" height="22" fill="#828282"/>
<rect x="255" y="432" width="4" height="22" fill="#828282"/>
<rect x="261" y="432" width="4" height="22" fill="#828282"/>
<rect x="267" y="432" width="4" height="22" fill="#828282"/>
<rect x="273" y="432" width="4" height="22" fill="#828282"/>
<rect x="279" y="432" width="4" height="22" fill="#828282"/>
<rect x="285" y="432" width="4" height="22" fill="#828282"/>
<rect x="291" y="432" width="4" height="22" fill="#828282"/>
<rect x="297" y="432" width="4" height="22" fill="#828282"/>
<rect x="303" y="432" width="4" height="22" fill="#828282"/>
<rect x="309" y="432" width="4" height="22" fill="#828282"/>
<rect x="315" y="432" width="4" height="22" fill="#828282"/>
<rect x="321" y="432" width="4" height="22" fill="#828282"/>
<rect x="327" y="432" width="4" height="22" fill="#828282"/>
<rect x="333" y="432" width="4" height="22" fill="#828282"/>
<rect x="339" y="432" width="4" height="22" fill="#828282"/>
<rect x="345" y="432" width="4" height="22" fill="#828282"/>
<rect x="351" y="432" width="4" height="22" fill="#828282"/>
<rect x="357" y="432" width="4" height="22" fill="#828282"/>
<rect x="363" y="432" width="4" height="22" fill="#828282"/>
<rect x="369" y="432" width="4" height="22" fill="#828282"/>
<rect x="375" y="432" width="4" height="22" fill="#828282"/>
<rect x="381" y="432" width="4" height="22" fill="#828282"/>
<rect x="387" y="432" width="4" height="22" fill="#828282"/>
<rect x="393" y="432" width="4" height="22" fill="#828282"/>
<rect x="399" y="432" width="4" height="22" fill="#828282"/>
<rect x="405" y="432" width="4" height="22" fill="#828282"/>
<rect x="411" y="432" width="4" height="22" fill="#828282"/>
<rect x="417" y="432" width="4" height="22" fill="#828282"/>
<rect x="423" y="432" width="4" height="22" fill="#828282"/>
<rect x="429" y="432" width="4" height="22" fill="#828282"/>
<rect x="435" y="432" width="4" height="22" fill="#828282"/>
<rect x="441" y="432" width="4" height="22" fill="#828282"/>
<rect x="447" y="432" width="4" height="22" fill="#828282"/>
<rect x="453" y="432" width="4" height="22" fill="#828282"/>
<rect x="459" y="432" width="4" height="22" fill="#828282"/>
<rect x="465" y="432" width="4" height="22" fill="#828282"/>
<rect x="471" y="432" width="4" height="22" fill="#828282"/>
<rect x="477" y="432" width="4" height="22" fill="#828282"/>
<rect x="483" y="432" width="4" height="22" fill="#828282"/>
<rect x="489" y="432" width="4" height="22" fill="#828282"/>
<rect x="495" y="432" width="4" height="22" fill="#828282"/>
<rect x="501" y="432" width="4" height="22" fill="#828282"/>
<rect x="507" y="432" width="4" height="22" fill="#828282"/>
<rect x="513" y="432" width="4" height="22" fill="#828282"/>
<rect x="519" y="432" width="4" height="22" fill="#828282"/>
<rect x="525" y="432" width="4" height="22" fill="#828282"/>
<rect x="531" y="432" width="4" height="22" fill="#828282"/>
<rect x="537" y="432" width="4" height="22" fill="#828282"/>
<rect x="543" y="432" width="4" height="22" fill="#828282"/>
<rect x="549" y="432" width="4" height="22" fill="#828282"/>
<rect x="555" y="432" width="4" height="22" fill="#828282"/>
<rect x="561" y="432" width="4" height="22" fill="#828282"/>
<rect x="567" y="432" width="4" height="22" fill="#828282"/>
<rect x="573" y="432" width="4" height="22" fill="#828282"/>
<rect x="579" y="432" width="4" height="22" fill="#828282"/>
<rect x="585" y="432" width="4" height="22" fill="#828282"/>
<rect x="591" y="432" width="4" height="22" fill="#828282"/>
<rect x="597" y="432" width="4" height="22" fill="#828282"/>
<rect x="603" y="432" width="4" height="22" fill="#828282"/>
<rect x="609" y="432" width="4" height="22" fill="#828282"/>
<rect x="615" y="432" width="4" height="22" fill="#828282"/>
<rect x="621" y="432" width="4" height="22" fill="#828282"/>
<rect x="627" y="432" width="4" height="22" fill="#828282"/>
<rect x="633" y="432" width="4" height="22" fill="#828282"/>
<rect x="639" y="432" width="4" height="22" fill="#828282"/>
<rect x="645" y="432" width="4" height="22" fill="#828282"/>
<rect x="651" y="432" width="4" height="22" fill="#828282"/>
<rect x="657" y="432" width="4" height="22" fill="#828282"/>
<rect x="663" y="432" width="4" height="22" fill="#828282"/>
<rect x="669" y="432" width="4" height="22" fill="#828282"/>
<rect x="675" y="432" width="4" height="22" fill="#828282"/>
<rect x="681" y="432" width="4" height="22" fill="#828282"/>
<rect x="687" y="432" width="4" height="22" fill="#828282"/>
<rect x="693" y="432" width="4" height="22" fill="#828282"/>
<rect x="699" y="432" width="4" height="22" fill="#828282"/>
<rect x="705" y="432" width="4" height="22" fill="#828282"/>
<rect x="711" y="432" width="4" height="22" fill="#828282"/>
<rect x="717" y="432" width="4" height="22" fill="#828282"/>
<rect x="723" y="432" width="4" height="22" fill="#828282"/>
<rect x="729" y="432" width="4" height="22" fill="#828282"/>
<rect x="735" y="432" width="4" height="22" fill="#828282"/>
<rect x="741" y="432" width="4" height="22" fill="#828282"/>
<rect x="747" y="432" width="4" height="22" fill="#828282"/>
<rect x="753" y="432" width="4" height="22" fill="#828282"/>
<rect x="759" y="432" width="4" height="22" fill="#828282"/>
<rect x="765" y="432" width="4" height="22" fill="#828282"/>
<rect x="771" y="432" width="4" height="22" fill="#828282"/>
<rect x="777" y="432" width="4" height="22" fill="#828282"/>
<rect x="783" y="432" width="4" height="22" fill="#828282"/>
<rect x="789" y="432" width="4" height="22" fill="#828282"/>
<rect x="795" y="432" width="4" height="22" fill="#828282"/>
<rect x="801" y="432" width="4" height="22" fill="#828282"/>
<rect x="807" y="432" width="4" height="22" fill="#828282"/>
<rect x="813" y="432" width="4" height="22" fill="#828282"/>
<rect x="819" y="432" width="4" height="22" fill="#828282"/>
<rect x="825" y="432" width="4" height="22" fill="#828282"/>
<rect x="831" y="432" width="4" height="22" fill="#828282"/>
<rect x="837" y="432" width="4" height="22" fill="#828282"/>
<rect x="843" y="432" width="4" height="22" fill="#828282"/>
<rect x="849" y="432" width="4" height="22" fill="#828282"/>
<rect x="855" y="432" width="4" height="22" fill="#828282"/>
<rect x="861" y="432" width="4" height="22" fill="#828282"/>
<rect x="675" y="384" width="10" height="22" fill="#828282"/>
<rect x="687" y="384" width="10" height="22" fill="#828282"/>
<rect x="699" y="384" width="10" height="22" fill="#828282"/>
<rect x="663" y="384" width="10" height="22" fill="#828282"/>
<rect x="651" y="384" width="10" height="22" fill="#828282"/>
<rect x="639" y="384" width="10" height="22" fill="#828282"/>
<rect x="627" y="384" width="10" height="22" fill="#828282"/>
<rect x="615" y="384" width="10" height="22" fill="#828282"/>
<rect x="603" y="384" width="10" height="22" fill="#828282"/>
<rect x="591" y="384" width="10" height="22" fill="#828282"/>
<rect x="579" y="384" width="10" height="22" fill="#828282"/>
<rect x="567" y="384" width="10" height="22" fill="#828282"/>
<rect x="555" y="384" width="10" height="22" fill="#828282"/>
<rect x="543" y="384" width="10" height="22" fill="#828282"/>
<rect x="531" y="384" width="10" height="22" fill="#828282"/>
<rect x="519" y="384" width="10" height="22" fill="#828282"/>
<rect x="507" y="384" width="10" height="22" fill="#828282"/>
<rect x="495" y="384" width="10" height="22" fill="#828282"/>
<rect x="483" y="384" width="10" height="22" fill="#828282"/>
<rect x="471" y="384" width="10" height="22" fill="#828282"/>
<rect x="459" y="384" width="10" height="22" fill="#828282"/>
<rect x="447" y="384" width="10" height="22" fill="#828282"/>
<rect x="435" y="384" width="10" height="22" fill="#828282"/>
<rect x="423" y="384" width="10" height="22" fill="#828282"/>
<rect x="411" y="384" width="10" height="22" fill="#828282"/>
<rect x="399" y="384" width="10" height="22" fill="#828282"/>
<rect x="387" y="384" width="10" height="22" fill="#828282"/>
<rect x="375" y="384" width="10" height="22" fill="#828282"/>
<rect x="363" y="384" width="10" height="22" fill="#828282"/>
<rect x="351" y="384" width="10" height="22" fill="#828282"/>
<rect x="339" y="384" width="10" height="22" fill="#828282"/>
<rect x="327" y="384" width="10" height="22" fill="#828282"/>
<rect x="315" y="384" width="10" height="22" fill="#828282"/>
<rect x="303" y="384" width="10" height="22" fill="#828282"/>
<rect x="291" y="384" width="10" height="22" fill="#828282"/>
<rect x="279" y="384" width="10" height="22" fill="#828282"/>
<rect x="267" y="384" width="10" height="22" fill="#828282"/>
<rect x="255" y="384" width="10" height="22" fill="#828282"/>
<rect x="243" y="384" width="10" height="22" fill="#828282"/>
<rect x="231" y="384" width="10" height="22" fill="#828282"/>
<rect x="219" y="384" width="10" height="22" fill="#828282"/>
<rect x="207" y="384" width="10" height="22" fill="#828282"/>
<rect x="195" y="384" width="10" height="22" fill="#828282"/>
<rect x="183" y="384" width="10" height="22" fill="#828282"/>
<rect x="171" y="384" width="10" height="22" fill="#828282"/>
<rect x="159" y="384" width="10" height="22" fill="#828282"/>
<rect x="147" y="384" width="10" height="22" fill="#828282"/>
<rect x="135" y="384" width="10" height="22" fill="#828282"/>
<rect x="123" y="384" width="10" height="22" fill="#828282"/>
<rect x="111" y="384" width="10" height="22" fill="#828282"/>
<rect x="99" y="384" width="10" height="22" fill="#828282"/>
<rect x="711" y="384" width="10" height="22" fill="#828282"/>
<rect x="735" y="384" width="10" height="22" fill="#828282"/>
<rect x="747" y="384" width="10" height="22" fill="#828282"/>
<rect x="759" y="384" width="10" height="22" fill="#828282"/>
<rect x="723" y="384" width="10" height="22" fill="#828282"/>
<rect x="771" y="384" width="10" height="22" fill="#828282"/>
<rect x="783" y="384" width="10" height="22" fill="#828282"/>
<rect x="795" y="384" width="10" height="22" fill="#828282"/>
<rect x="807" y="384" width="10" height="22" fill="#828282"/>
<rect x="819" y="384" width="10" height="22" fill="#828282"/>
<rect x="831" y="384" width="10" height="22" fill="#828282"/>
<rect x="843" y="384" width="10" height="22" fill="#828282"/>
<rect x="855" y="384" width="10" height="22" fill="#828282"/>
<path d="M36.4004 100H38.3623V98.2432H39.6475V96.5889H38.3623V90.1357H35.4502C33.4268 93.1162 32.3535 94.8457 31.4922 96.4863V98.2432H36.4004V100ZM33.3037 96.5957C34.1035 95.0508 34.9648 93.7041 36.4004 91.5986H36.4414V96.6504H33.3037V96.5957ZM47.8908 100.116C49.7365 100.116 50.8644 98.6943 50.8644 96.3359C50.8644 93.9707 49.7296 92.5557 47.8839 92.5557C46.838 92.5557 46.0245 93.0752 45.6212 93.9434H45.5802V90.1357H43.5841V100H45.5529V98.7422H45.5939C45.9972 99.5967 46.8175 100.116 47.8908 100.116ZM47.2003 94.1553C48.1915 94.1553 48.8204 95.0029 48.8204 96.3359C48.8204 97.6758 48.1984 98.5098 47.2003 98.5098C46.2296 98.5098 45.5734 97.6621 45.5734 96.3359C45.5734 95.0234 46.2365 94.1553 47.2003 94.1553ZM55.2082 93.9912C56.0969 93.9912 56.7053 94.6338 56.7463 95.5703H53.6359C53.7043 94.6543 54.3332 93.9912 55.2082 93.9912ZM56.7736 97.7578C56.5891 98.3184 56.0285 98.6807 55.2971 98.6807C54.2785 98.6807 53.6154 97.9629 53.6154 96.917V96.7939H58.6672V96.1855C58.6672 93.957 57.3205 92.5146 55.1877 92.5146C53.0207 92.5146 51.6535 94.0322 51.6535 96.3701C51.6535 98.7148 53.007 100.157 55.2629 100.157C57.0744 100.157 58.3869 99.1934 58.6057 97.7578H56.7736ZM62.5462 98.6738C61.8694 98.6738 61.4182 98.332 61.4182 97.7852C61.4182 97.2656 61.8421 96.9307 62.5872 96.876L64.1321 96.7803V97.3135C64.1321 98.1064 63.4143 98.6738 62.5462 98.6738ZM61.8899 100.116C62.8059 100.116 63.7151 99.6582 64.1253 98.8789H64.1663V100H66.094V94.9619C66.094 93.4854 64.8704 92.5146 62.9905 92.5146C61.0491 92.5146 59.8391 93.4922 59.7639 94.9141H61.5891C61.6848 94.374 62.1565 94.0049 62.9016 94.0049C63.6536 94.0049 64.1321 94.4014 64.1321 95.085V95.5703L62.2864 95.6797C60.4612 95.7891 59.4358 96.5615 59.4358 97.8945C59.4358 99.2139 60.4954 100.116 61.8899 100.116ZM67.9359 90.9834V92.6719H66.9036V94.1758H67.9359V98.0244C67.9359 99.4531 68.6058 100.027 70.3284 100.027C70.7318 100.027 71.0736 99.9932 71.2786 99.9453V98.4756C71.1556 98.4961 70.971 98.5098 70.7933 98.5098C70.2054 98.5098 69.932 98.2432 69.932 97.6826V94.1758H71.2855V92.6719H69.932V90.9834H67.9359ZM72.2729 94.8252C72.2729 95.9053 72.9838 96.6299 74.3715 96.9443L75.725 97.2451C76.3812 97.4023 76.6273 97.6074 76.6273 97.9766C76.6273 98.4551 76.1693 98.7559 75.4105 98.7559C74.6176 98.7559 74.1322 98.4004 74.0365 97.7852H72.0883C72.1977 99.2139 73.4008 100.157 75.3559 100.157C77.2904 100.157 78.6166 99.207 78.6166 97.7646C78.6166 96.6709 78.0219 96.0898 76.5521 95.7617L75.1508 95.4609C74.5082 95.3105 74.1937 95.0645 74.1937 94.7021C74.1937 94.2305 74.6449 93.916 75.3354 93.916C76.0736 93.916 76.5453 94.2783 76.5863 94.8662H78.4252C78.3979 93.4443 77.2016 92.5146 75.3627 92.5146C73.4828 92.5146 72.2729 93.4307 72.2729 94.8252Z" fill="black"/>
<path d="M34.165 54H36.209V44.1357H34.1582L31.6084 45.9062V47.7656L34.124 46.0293H34.165V54ZM45.5392 54.1162C47.3849 54.1162 48.5128 52.6943 48.5128 50.3359C48.5128 47.9707 47.3781 46.5557 45.5324 46.5557C44.4865 46.5557 43.673 47.0752 43.2697 47.9434H43.2286V44.1357H41.2326V54H43.2013V52.7422H43.2423C43.6456 53.5967 44.466 54.1162 45.5392 54.1162ZM44.8488 48.1553C45.84 48.1553 46.4689 49.0029 46.4689 50.3359C46.4689 51.6758 45.8468 52.5098 44.8488 52.5098C43.8781 52.5098 43.2218 51.6621 43.2218 50.3359C43.2218 49.0234 43.8849 48.1553 44.8488 48.1553ZM52.3986 52.6738C51.7219 52.6738 51.2707 52.332 51.2707 51.7852C51.2707 51.2656 51.6945 50.9307 52.4396 50.876L53.9846 50.7803V51.3135C53.9846 52.1064 53.2668 52.6738 52.3986 52.6738ZM51.7424 54.1162C52.6584 54.1162 53.5676 53.6582 53.9777 52.8789H54.0187V54H55.9465V48.9619C55.9465 47.4854 54.7229 46.5146 52.843 46.5146C50.9016 46.5146 49.6916 47.4922 49.6164 48.9141H51.4416C51.5373 48.374 52.009 48.0049 52.7541 48.0049C53.5061 48.0049 53.9846 48.4014 53.9846 49.085V49.5703L52.1389 49.6797C50.3137 49.7891 49.2883 50.5615 49.2883 51.8945C49.2883 53.2139 50.3479 54.1162 51.7424 54.1162ZM57.2551 54H59.2512V49.9053C59.2512 48.873 59.8255 48.2715 60.8098 48.2715C61.0969 48.2715 61.3704 48.3193 61.5344 48.3877V46.6309C61.3977 46.5898 61.1995 46.5557 60.9671 46.5557C60.1057 46.5557 59.4837 47.0615 59.2239 47.9912H59.1829V46.6719H57.2551V54Z" fill="black"/>
<rect x="97" y="38" width="766" height="22" fill="#C4C4C4"/>
<rect x="99" y="84" width="190" height="22" fill="#C4C4C4"/>
<rect x="291" y="84" width="190" height="22" fill="#C4C4C4"/>
<rect x="483" y="84" width="190" height="22" fill="#C4C4C4"/>
<rect x="675" y="84" width="190" height="22" fill="#C4C4C4"/>
</svg>
