<svg viewBox="0 0 669 611" fill="none" xmlns="http://www.w3.org/2000/svg">
<rect width="669" height="611" fill="white"/>
<rect x="105" y="128" width="46" height="22" fill="#4F4F4F"/>
<rect x="153" y="128" width="46" height="22" fill="#F2F2F2"/>
<rect x="201" y="128" width="46" height="22" fill="#F2F2F2"/>
<rect x="249" y="128" width="46" height="22" fill="#F2F2F2"/>
<rect x="401" y="128" width="46" height="22" fill="#F2F2F2"/>
<rect x="449" y="128" width="46" height="22" fill="#F2F2F2"/>
<rect x="497" y="128" width="46" height="22" fill="#F2F2F2"/>
<rect x="545" y="128" width="46" height="22" fill="#4F4F4F"/>
<path d="M32.5176 40.3984C30.0098 40.3984 28.4395 42.0801 28.4395 44.7754C28.4395 47.4648 30.0098 49.1465 32.5176 49.1465C35.0195 49.1465 36.5957 47.4648 36.5957 44.7754C36.5957 42.0801 35.0195 40.3984 32.5176 40.3984ZM32.5176 41.875C33.9004 41.875 34.7852 43 34.7852 44.7754C34.7852 46.5449 33.9004 47.6641 32.5176 47.6641C31.1289 47.6641 30.2441 46.5449 30.2441 44.7754C30.2441 43 31.1348 41.875 32.5176 41.875ZM37.6085 49H39.3194V45.4902C39.3194 44.6055 39.8116 44.0898 40.6553 44.0898C40.9014 44.0898 41.1358 44.1309 41.2764 44.1895V42.6836C41.1592 42.6484 40.9893 42.6191 40.7901 42.6191C40.0518 42.6191 39.5186 43.0527 39.296 43.8496H39.2608V42.7188H37.6085V49ZM42.0255 49H43.7365V42.7188H42.0255V49ZM42.881 42.0273C43.3966 42.0273 43.7951 41.6348 43.7951 41.1426C43.7951 40.6445 43.3966 40.2578 42.881 40.2578C42.3654 40.2578 41.9669 40.6445 41.9669 41.1426C41.9669 41.6348 42.3654 42.0273 42.881 42.0273ZM47.7961 47.6641C46.9465 47.6641 46.4191 46.9961 46.4191 45.8477C46.4191 44.7051 46.9523 43.9902 47.7961 43.9902C48.6516 43.9902 49.1965 44.7168 49.1965 45.8477C49.1965 46.9844 48.6516 47.6641 47.7961 47.6641ZM47.7668 51.3672C49.6477 51.3672 50.9016 50.4121 50.9016 48.9121V42.7188H49.2141V43.8145H49.1848C48.8566 43.0938 48.1477 42.6191 47.2453 42.6191C45.6516 42.6191 44.6672 43.8438 44.6672 45.8359C44.6672 47.7988 45.6809 48.9824 47.216 48.9824C48.1242 48.9824 48.8625 48.5254 49.1555 47.8574H49.1906V48.959C49.1906 49.6855 48.6984 50.1777 47.8137 50.1777C47.1633 50.1777 46.6711 49.8789 46.5363 49.4453H44.8605C44.9953 50.5645 46.1145 51.3672 47.7668 51.3672ZM52.0667 49H53.7776V42.7188H52.0667V49ZM52.9221 42.0273C53.4378 42.0273 53.8362 41.6348 53.8362 41.1426C53.8362 40.6445 53.4378 40.2578 52.9221 40.2578C52.4065 40.2578 52.0081 40.6445 52.0081 41.1426C52.0081 41.6348 52.4065 42.0273 52.9221 42.0273ZM54.9368 49H56.6478V45.3965C56.6478 44.582 57.1341 44.0195 57.9017 44.0195C58.6693 44.0195 59.056 44.4883 59.056 45.3086V49H60.7669V44.9512C60.7669 43.4805 59.9818 42.6016 58.5872 42.6016C57.6204 42.6016 56.9583 43.0586 56.6243 43.8379H56.5892V42.7188H54.9368V49ZM64.2934 47.8633C63.7133 47.8633 63.3266 47.5703 63.3266 47.1016C63.3266 46.6562 63.6898 46.3691 64.3285 46.3223L65.6527 46.2402V46.6973C65.6527 47.377 65.0375 47.8633 64.2934 47.8633ZM63.7309 49.0996C64.516 49.0996 65.2953 48.707 65.6469 48.0391H65.682V49H67.3344V44.6816C67.3344 43.416 66.2855 42.584 64.6742 42.584C63.0102 42.584 61.973 43.4219 61.9086 44.6406H63.473C63.5551 44.1777 63.9594 43.8613 64.598 43.8613C65.2426 43.8613 65.6527 44.2012 65.6527 44.7871V45.2031L64.0707 45.2969C62.5062 45.3906 61.6273 46.0527 61.6273 47.1953C61.6273 48.3262 62.5355 49.0996 63.7309 49.0996ZM68.4995 49H70.2104V40.5449H68.4995V49Z" fill="black"/>
<path d="M343.473 38.9277H344.979C345.857 38.9277 346.408 39.4551 346.408 40.2754C346.408 41.1133 345.887 41.623 344.996 41.623H343.473V38.9277ZM343.473 42.9062H344.891L346.467 46H348.471L346.689 42.6426C347.662 42.2617 348.225 41.3242 348.225 40.2402C348.225 38.5703 347.111 37.5449 345.166 37.5449H341.703V46H343.473V42.9062ZM352.021 40.8496C352.782 40.8496 353.304 41.4004 353.339 42.2031H350.673C350.732 41.418 351.271 40.8496 352.021 40.8496ZM353.362 44.0781C353.204 44.5586 352.724 44.8691 352.097 44.8691C351.224 44.8691 350.655 44.2539 350.655 43.3574V43.252H354.985V42.7305C354.985 40.8203 353.831 39.584 352.003 39.584C350.146 39.584 348.974 40.8848 348.974 42.8887C348.974 44.8984 350.134 46.1348 352.067 46.1348C353.62 46.1348 354.745 45.3086 354.933 44.0781H353.362ZM361.535 39.7188H359.748L358.447 44.4883H358.412L357.106 39.7188H355.272L357.445 46H359.379L361.535 39.7188ZM364.792 40.8496C365.554 40.8496 366.075 41.4004 366.111 42.2031H363.445C363.503 41.418 364.042 40.8496 364.792 40.8496ZM366.134 44.0781C365.976 44.5586 365.495 44.8691 364.868 44.8691C363.995 44.8691 363.427 44.2539 363.427 43.3574V43.252H367.757V42.7305C367.757 40.8203 366.603 39.584 364.775 39.584C362.917 39.584 361.745 40.8848 361.745 42.8887C361.745 44.8984 362.905 46.1348 364.839 46.1348C366.392 46.1348 367.517 45.3086 367.704 44.0781H366.134ZM368.658 46H370.369V42.4902C370.369 41.6055 370.862 41.0898 371.705 41.0898C371.951 41.0898 372.186 41.1309 372.326 41.1895V39.6836C372.209 39.6484 372.039 39.6191 371.84 39.6191C371.102 39.6191 370.569 40.0527 370.346 40.8496H370.311V39.7188H368.658V46ZM372.941 41.5645C372.941 42.4902 373.55 43.1113 374.74 43.3809L375.9 43.6387C376.462 43.7734 376.673 43.9492 376.673 44.2656C376.673 44.6758 376.281 44.9336 375.63 44.9336C374.951 44.9336 374.535 44.6289 374.452 44.1016H372.783C372.876 45.3262 373.908 46.1348 375.583 46.1348C377.242 46.1348 378.378 45.3203 378.378 44.084C378.378 43.1465 377.868 42.6484 376.609 42.3672L375.408 42.1094C374.857 41.9805 374.587 41.7695 374.587 41.459C374.587 41.0547 374.974 40.7852 375.566 40.7852C376.199 40.7852 376.603 41.0957 376.638 41.5996H378.214C378.191 40.3809 377.165 39.584 375.589 39.584C373.978 39.584 372.941 40.3691 372.941 41.5645ZM382.069 40.8496C382.83 40.8496 383.352 41.4004 383.387 42.2031H380.721C380.78 41.418 381.319 40.8496 382.069 40.8496ZM383.411 44.0781C383.252 44.5586 382.772 44.8691 382.145 44.8691C381.272 44.8691 380.704 44.2539 380.704 43.3574V43.252H385.034V42.7305C385.034 40.8203 383.879 39.584 382.051 39.584C380.194 39.584 379.022 40.8848 379.022 42.8887C379.022 44.8984 380.182 46.1348 382.116 46.1348C383.668 46.1348 384.793 45.3086 384.981 44.0781H383.411Z" fill="black"/>
<rect x="105" y="104" width="46" height="22" fill="#F2F2F2"/>
<rect x="153" y="104" width="46" height="22" fill="#4F4F4F"/>
<rect x="201" y="104" width="46" height="22" fill="#F2F2F2"/>
<rect x="249" y="104" width="46" height="22" fill="#F2F2F2"/>
<rect x="401" y="104" width="46" height="22" fill="#F2F2F2"/>
<rect x="449" y="104" width="46" height="22" fill="#F2F2F2"/>
<rect x="497" y="104" width="46" height="22" fill="#4F4F4F"/>
<rect x="545" y="104" width="46" height="22" fill="#F2F2F2"/>
<rect x="105" y="80" width="46" height="22" fill="#F2F2F2"/>
<rect x="153" y="80" width="46" height="22" fill="#F2F2F2"/>
<rect x="201" y="80" width="46" height="22" fill="#4F4F4F"/>
<rect x="249" y="80" width="46" height="22" fill="#F2F2F2"/>
<rect x="401" y="80" width="46" height="22" fill="#F2F2F2"/>
<rect x="449" y="80" width="46" height="22" fill="#4F4F4F"/>
<rect x="497" y="80" width="46" height="22" fill="#F2F2F2"/>
<rect x="545" y="80" width="46" height="22" fill="#F2F2F2"/>
<rect x="105" y="56" width="46" height="22" fill="#F2F2F2"/>
<rect x="153" y="56" width="46" height="22" fill="#F2F2F2"/>
<rect x="201" y="56" width="46" height="22" fill="#F2F2F2"/>
<rect x="249" y="56" width="46" height="22" fill="#4F4F4F"/>
<rect x="105" y="32" width="46" height="22" fill="#F2F2F2"/>
<rect x="153" y="32" width="46" height="22" fill="#F2F2F2"/>
<rect x="201" y="32" width="46" height="22" fill="#F2F2F2"/>
<rect x="249" y="32" width="46" height="22" fill="#F2F2F2"/>
<rect x="400" y="32" width="46" height="22" fill="#F2F2F2"/>
<rect x="448" y="32" width="46" height="22" fill="#F2F2F2"/>
<rect x="496" y="32" width="46" height="22" fill="#F2F2F2"/>
<rect x="544" y="32" width="46" height="22" fill="#F2F2F2"/>
<rect x="105" y="152" width="46" height="22" fill="#F2F2F2"/>
<rect x="153" y="152" width="46" height="22" fill="#F2F2F2"/>
<rect x="201" y="152" width="46" height="22" fill="#F2F2F2"/>
<rect x="249" y="152" width="46" height="22" fill="#F2F2F2"/>
<rect x="401" y="152" width="46" height="22" fill="#F2F2F2"/>
<rect x="449" y="152" width="46" height="22" fill="#F2F2F2"/>
<rect x="497" y="152" width="46" height="22" fill="#F2F2F2"/>
<rect x="545" y="152" width="46" height="22" fill="#F2F2F2"/>
<rect x="105" y="518" width="46" height="22" fill="#4F4F4F"/>
<rect x="153" y="518" width="46" height="22" fill="#F2F2F2"/>
<rect x="201" y="518" width="46" height="22" fill="#F2F2F2"/>
<rect x="249" y="518" width="46" height="22" fill="#F2F2F2"/>
<rect x="105" y="542" width="46" height="22" fill="#F2F2F2"/>
<rect x="153" y="542" width="46" height="22" fill="#F2F2F2"/>
<rect x="201" y="542" width="46" height="22" fill="#F2F2F2"/>
<rect x="249" y="542" width="46" height="22" fill="#F2F2F2"/>
<rect x="105" y="566" width="46" height="22" fill="#F2F2F2"/>
<rect x="153" y="566" width="46" height="22" fill="#F2F2F2"/>
<rect x="201" y="566" width="46" height="22" fill="#F2F2F2"/>
<rect x="249" y="566" width="46" height="22" fill="#F2F2F2"/>
<path d="M32.4941 461V454.004H34.9434V452.545H28.2812V454.004H30.7246V461H32.4941ZM34.9952 461H36.7061V457.49C36.7061 456.605 37.1983 456.09 38.0421 456.09C38.2882 456.09 38.5225 456.131 38.6632 456.189V454.684C38.546 454.648 38.376 454.619 38.1768 454.619C37.4385 454.619 36.9053 455.053 36.6827 455.85H36.6475V454.719H34.9952V461ZM41.6564 459.863C41.0763 459.863 40.6896 459.57 40.6896 459.102C40.6896 458.656 41.0529 458.369 41.6915 458.322L43.0158 458.24V458.697C43.0158 459.377 42.4005 459.863 41.6564 459.863ZM41.0939 461.1C41.879 461.1 42.6583 460.707 43.0099 460.039H43.0451V461H44.6974V456.682C44.6974 455.416 43.6486 454.584 42.0372 454.584C40.3732 454.584 39.3361 455.422 39.2716 456.641H40.8361C40.9181 456.178 41.3224 455.861 41.9611 455.861C42.6056 455.861 43.0158 456.201 43.0158 456.787V457.203L41.4337 457.297C39.8693 457.391 38.9904 458.053 38.9904 459.195C38.9904 460.326 39.8986 461.1 41.0939 461.1ZM45.8215 461H47.5324V457.396C47.5324 456.582 48.0187 456.02 48.7863 456.02C49.5539 456.02 49.9406 456.488 49.9406 457.309V461H51.6516V456.951C51.6516 455.48 50.8664 454.602 49.4719 454.602C48.5051 454.602 47.843 455.059 47.509 455.838H47.4738V454.719H45.8215V461ZM52.6467 456.564C52.6467 457.49 53.2561 458.111 54.4456 458.381L55.6057 458.639C56.1682 458.773 56.3792 458.949 56.3792 459.266C56.3792 459.676 55.9866 459.934 55.3362 459.934C54.6565 459.934 54.2405 459.629 54.1585 459.102H52.4885C52.5823 460.326 53.6135 461.135 55.2893 461.135C56.9475 461.135 58.0842 460.32 58.0842 459.084C58.0842 458.146 57.5745 457.648 56.3147 457.367L55.1135 457.109C54.5628 456.98 54.2932 456.77 54.2932 456.459C54.2932 456.055 54.6799 455.785 55.2717 455.785C55.9046 455.785 56.3089 456.096 56.344 456.6H57.9202C57.8967 455.381 56.8714 454.584 55.2952 454.584C53.6839 454.584 52.6467 455.369 52.6467 456.564ZM62.6243 454.619C61.7161 454.619 61.0189 455.076 60.679 455.814H60.6439V454.719H58.9564V463.051H60.6673V459.945H60.7025C61.0365 460.654 61.7396 461.1 62.6536 461.1C64.224 461.1 65.1966 459.881 65.1966 457.859C65.1966 455.832 64.2181 454.619 62.6243 454.619ZM62.0501 459.723C61.2122 459.723 60.6615 458.996 60.6615 457.859C60.6615 456.734 61.2122 455.99 62.0501 455.99C62.9056 455.99 63.4447 456.723 63.4447 457.859C63.4447 459.002 62.9056 459.723 62.0501 459.723ZM68.9809 461.135C70.8793 461.135 72.0922 459.922 72.0922 457.854C72.0922 455.814 70.8617 454.584 68.9809 454.584C67.1 454.584 65.8695 455.82 65.8695 457.854C65.8695 459.916 67.0824 461.135 68.9809 461.135ZM68.9809 459.828C68.1371 459.828 67.6039 459.119 67.6039 457.859C67.6039 456.611 68.1488 455.891 68.9809 455.891C69.8129 455.891 70.352 456.611 70.352 457.859C70.352 459.119 69.8187 459.828 68.9809 459.828ZM72.8881 456.564C72.8881 457.49 73.4975 458.111 74.687 458.381L75.8471 458.639C76.4096 458.773 76.6206 458.949 76.6206 459.266C76.6206 459.676 76.228 459.934 75.5776 459.934C74.8979 459.934 74.4819 459.629 74.3999 459.102H72.7299C72.8237 460.326 73.8549 461.135 75.5307 461.135C77.1889 461.135 78.3256 460.32 78.3256 459.084C78.3256 458.146 77.8159 457.648 76.5561 457.367L75.3549 457.109C74.8042 456.98 74.5346 456.77 74.5346 456.459C74.5346 456.055 74.9214 455.785 75.5131 455.785C76.146 455.785 76.5503 456.096 76.5854 456.6H78.1616C78.1381 455.381 77.1128 454.584 75.5366 454.584C73.9253 454.584 72.8881 455.369 72.8881 456.564ZM82.0161 455.85C82.7779 455.85 83.2994 456.4 83.3345 457.203H80.6685C80.7271 456.418 81.2661 455.85 82.0161 455.85ZM83.3579 459.078C83.1997 459.559 82.7193 459.869 82.0923 459.869C81.2193 459.869 80.6509 459.254 80.6509 458.357V458.252H84.981V457.73C84.981 455.82 83.8267 454.584 81.9986 454.584C80.1411 454.584 78.9693 455.885 78.9693 457.889C78.9693 459.898 80.1294 461.135 82.063 461.135C83.6158 461.135 84.7408 460.309 84.9283 459.078H83.3579Z" fill="black"/>
<rect x="105" y="494" width="46" height="22" fill="#F2F2F2"/>
<rect x="153" y="494" width="46" height="22" fill="#4F4F4F"/>
<rect x="201" y="494" width="46" height="22" fill="#F2F2F2"/>
<rect x="249" y="494" width="46" height="22" fill="#F2F2F2"/>
<rect x="105" y="470" width="46" height="22" fill="#F2F2F2"/>
<rect x="153" y="470" width="46" height="22" fill="#F2F2F2"/>
<rect x="201" y="470" width="46" height="22" fill="#4F4F4F"/>
<rect x="249" y="470" width="46" height="22" fill="#F2F2F2"/>
<rect x="105" y="446" width="46" height="22" fill="#F2F2F2"/>
<rect x="153" y="446" width="46" height="22" fill="#F2F2F2"/>
<rect x="201" y="446" width="46" height="22" fill="#F2F2F2"/>
<rect x="249" y="446" width="46" height="22" fill="#4F4F4F"/>
<rect x="405" y="518" width="46" height="22" fill="#4F4F4F"/>
<rect x="453" y="518" width="46" height="22" fill="#F2F2F2"/>
<rect x="501" y="518" width="46" height="22" fill="#F2F2F2"/>
<rect x="549" y="518" width="46" height="22" fill="#F2F2F2"/>
<rect x="405" y="542" width="46" height="22" fill="#F2F2F2"/>
<rect x="453" y="542" width="46" height="22" fill="#4F4F4F"/>
<rect x="501" y="542" width="46" height="22" fill="#F2F2F2"/>
<rect x="549" y="542" width="46" height="22" fill="#F2F2F2"/>
<rect x="405" y="566" width="46" height="22" fill="#F2F2F2"/>
<rect x="453" y="566" width="46" height="22" fill="#F2F2F2"/>
<rect x="501" y="566" width="46" height="22" fill="#F2F2F2"/>
<rect x="549" y="566" width="46" height="22" fill="#F2F2F2"/>
<path d="M341.387 458.592C341.439 460.18 342.734 461.146 344.768 461.146C346.865 461.146 348.195 460.109 348.195 458.469C348.195 457.18 347.457 456.453 345.764 456.09L344.738 455.873C343.766 455.65 343.355 455.357 343.355 454.836C343.355 454.209 343.941 453.793 344.814 453.793C345.699 453.793 346.326 454.227 346.385 454.941H348.043C348.014 453.412 346.777 452.398 344.809 452.398C342.922 452.398 341.574 453.43 341.574 454.988C341.574 456.225 342.342 457.016 343.9 457.35L345.002 457.59C346.021 457.818 346.426 458.123 346.426 458.674C346.426 459.295 345.781 459.746 344.838 459.746C343.9 459.746 343.174 459.289 343.092 458.592H341.387ZM357.968 454.719H356.28L355.325 459.377H355.29L354.171 454.719H352.53L351.417 459.377H351.382L350.433 454.719H348.71L350.38 461H352.179L353.31 456.559H353.345L354.482 461H356.304L357.968 454.719ZM360.985 459.863C360.404 459.863 360.018 459.57 360.018 459.102C360.018 458.656 360.381 458.369 361.02 458.322L362.344 458.24V458.697C362.344 459.377 361.729 459.863 360.985 459.863ZM360.422 461.1C361.207 461.1 361.986 460.707 362.338 460.039H362.373V461H364.026V456.682C364.026 455.416 362.977 454.584 361.365 454.584C359.701 454.584 358.664 455.422 358.6 456.641H360.164C360.246 456.178 360.651 455.861 361.289 455.861C361.934 455.861 362.344 456.201 362.344 456.787V457.203L360.762 457.297C359.197 457.391 358.318 458.053 358.318 459.195C358.318 460.326 359.227 461.1 360.422 461.1ZM368.818 454.619C367.909 454.619 367.212 455.076 366.872 455.814H366.837V454.719H365.15V463.051H366.861V459.945H366.896C367.23 460.654 367.933 461.1 368.847 461.1C370.417 461.1 371.39 459.881 371.39 457.859C371.39 455.832 370.411 454.619 368.818 454.619ZM368.243 459.723C367.405 459.723 366.855 458.996 366.855 457.859C366.855 456.734 367.405 455.99 368.243 455.99C369.099 455.99 369.638 456.723 369.638 457.859C369.638 459.002 369.099 459.723 368.243 459.723Z" fill="black"/>
<rect x="405" y="494" width="46" height="22" fill="#F2F2F2"/>
<rect x="453" y="494" width="46" height="22" fill="#F2F2F2"/>
<rect x="501" y="494" width="46" height="22" fill="#F2F2F2"/>
<rect x="549" y="494" width="46" height="22" fill="#4F4F4F"/>
<rect x="405" y="470" width="46" height="22" fill="#F2F2F2"/>
<rect x="453" y="470" width="46" height="22" fill="#F2F2F2"/>
<rect x="501" y="470" width="46" height="22" fill="#4F4F4F"/>
<rect x="549" y="470" width="46" height="22" fill="#F2F2F2"/>
<rect x="405" y="446" width="46" height="22" fill="#F2F2F2"/>
<rect x="453" y="446" width="46" height="22" fill="#F2F2F2"/>
<rect x="501" y="446" width="46" height="22" fill="#F2F2F2"/>
<rect x="549" y="446" width="46" height="22" fill="#F2F2F2"/>
<rect x="401" y="56" width="46" height="22" fill="#4F4F4F"/>
<rect x="449" y="56" width="46" height="22" fill="#F2F2F2"/>
<rect x="497" y="56" width="46" height="22" fill="#F2F2F2"/>
<rect x="545" y="56" width="46" height="22" fill="#F2F2F2"/>
<rect x="104" y="335" width="46" height="22" fill="#F2F2F2"/>
<rect x="152" y="335" width="46" height="22" fill="#4F4F4F"/>
<rect x="200" y="335" width="46" height="22" fill="#F2F2F2"/>
<rect x="248" y="335" width="46" height="22" fill="#F2F2F2"/>
<rect x="104" y="359" width="46" height="22" fill="#F2F2F2"/>
<rect x="152" y="359" width="46" height="22" fill="#F2F2F2"/>
<rect x="200" y="359" width="46" height="22" fill="#F2F2F2"/>
<rect x="248" y="359" width="46" height="22" fill="#F2F2F2"/>
<rect x="104" y="311" width="46" height="22" fill="#F2F2F2"/>
<rect x="152" y="311" width="46" height="22" fill="#F2F2F2"/>
<rect x="200" y="311" width="46" height="22" fill="#4F4F4F"/>
<rect x="248" y="311" width="46" height="22" fill="#F2F2F2"/>
<rect x="104" y="287" width="46" height="22" fill="#F2F2F2"/>
<rect x="152" y="287" width="46" height="22" fill="#F2F2F2"/>
<rect x="200" y="287" width="46" height="22" fill="#F2F2F2"/>
<rect x="248" y="287" width="46" height="22" fill="#4F4F4F"/>
<rect x="104" y="263" width="46" height="22" fill="#4F4F4F"/>
<rect x="152" y="263" width="46" height="22" fill="#F2F2F2"/>
<rect x="200" y="263" width="46" height="22" fill="#F2F2F2"/>
<rect x="248" y="263" width="46" height="22" fill="#F2F2F2"/>
<rect x="104" y="239" width="46" height="22" fill="#F2F2F2"/>
<rect x="152" y="239" width="46" height="22" fill="#F2F2F2"/>
<rect x="200" y="239" width="46" height="22" fill="#F2F2F2"/>
<rect x="248" y="239" width="46" height="22" fill="#F2F2F2"/>
<path d="M30.3965 254V248.463H30.4492L34.4043 254H35.8691V245.545H34.1758V251.053H34.1289L30.1797 245.545H28.7031V254H30.3965ZM42.9522 247.719H41.2413V251.316C41.2413 252.148 40.7667 252.693 40.0049 252.693C39.2491 252.693 38.8331 252.248 38.8331 251.41V247.719H37.1221V251.768C37.1221 253.232 38.0245 254.117 39.3839 254.117C40.3331 254.117 40.9542 253.66 41.2647 252.869H41.2999V254H42.9522V247.719ZM46.4142 254.1C47.34 254.1 48.0665 253.613 48.3712 252.922H48.4005V254H50.088V245.545H48.3771V248.797H48.3419C48.0372 248.1 47.3341 247.619 46.4259 247.619C44.8497 247.619 43.8536 248.855 43.8536 250.848C43.8536 252.857 44.8439 254.1 46.4142 254.1ZM46.9943 248.99C47.8439 248.99 48.3888 249.717 48.3888 250.859C48.3888 252.008 47.8439 252.723 46.9943 252.723C46.1329 252.723 45.6056 252.014 45.6056 250.859C45.6056 249.711 46.1329 248.99 46.9943 248.99ZM54.1477 252.664C53.298 252.664 52.7707 251.996 52.7707 250.848C52.7707 249.705 53.3039 248.99 54.1477 248.99C55.0031 248.99 55.548 249.717 55.548 250.848C55.548 251.984 55.0031 252.664 54.1477 252.664ZM54.1184 256.367C55.9992 256.367 57.2531 255.412 57.2531 253.912V247.719H55.5656V248.814H55.5363C55.2082 248.094 54.4992 247.619 53.5969 247.619C52.0031 247.619 51.0187 248.844 51.0187 250.836C51.0187 252.799 52.0324 253.982 53.5676 253.982C54.4758 253.982 55.2141 253.525 55.507 252.857H55.5422V253.959C55.5422 254.686 55.05 255.178 54.1652 255.178C53.5148 255.178 53.0227 254.879 52.8879 254.445H51.2121C51.3469 255.564 52.466 256.367 54.1184 256.367ZM61.2073 248.85C61.969 248.85 62.4905 249.4 62.5257 250.203H59.8596C59.9182 249.418 60.4573 248.85 61.2073 248.85ZM62.5491 252.078C62.3909 252.559 61.9104 252.869 61.2835 252.869C60.4104 252.869 59.8421 252.254 59.8421 251.357V251.252H64.1721V250.73C64.1721 248.82 63.0178 247.584 61.1897 247.584C59.3323 247.584 58.1604 248.885 58.1604 250.889C58.1604 252.898 59.3206 254.135 61.2542 254.135C62.8069 254.135 63.9319 253.309 64.1194 252.078H62.5491Z" fill="black"/>
<rect x="405" y="335" width="46" height="22" fill="#F2F2F2"/>
<rect x="453" y="335" width="46" height="22" fill="#F2F2F2"/>
<rect x="501" y="335" width="46" height="22" fill="#F2F2F2"/>
<rect x="549" y="335" width="46" height="22" fill="#4F4F4F"/>
<rect x="405" y="359" width="46" height="22" fill="#F2F2F2"/>
<rect x="453" y="359" width="46" height="22" fill="#F2F2F2"/>
<rect x="501" y="359" width="46" height="22" fill="#F2F2F2"/>
<rect x="549" y="359" width="46" height="22" fill="#F2F2F2"/>
<rect x="405" y="311" width="46" height="22" fill="#F2F2F2"/>
<rect x="453" y="311" width="46" height="22" fill="#F2F2F2"/>
<rect x="501" y="311" width="46" height="22" fill="#4F4F4F"/>
<rect x="549" y="311" width="46" height="22" fill="#F2F2F2"/>
<rect x="405" y="287" width="46" height="22" fill="#4F4F4F"/>
<rect x="453" y="287" width="46" height="22" fill="#F2F2F2"/>
<rect x="501" y="287" width="46" height="22" fill="#F2F2F2"/>
<rect x="549" y="287" width="46" height="22" fill="#F2F2F2"/>
<rect x="405" y="263" width="46" height="22" fill="#F2F2F2"/>
<rect x="453" y="263" width="46" height="22" fill="#4F4F4F"/>
<rect x="501" y="263" width="46" height="22" fill="#F2F2F2"/>
<rect x="549" y="263" width="46" height="22" fill="#F2F2F2"/>
<rect x="405" y="239" width="46" height="22" fill="#F2F2F2"/>
<rect x="453" y="239" width="46" height="22" fill="#F2F2F2"/>
<rect x="501" y="239" width="46" height="22" fill="#F2F2F2"/>
<rect x="549" y="239" width="46" height="22" fill="#F2F2F2"/>
<path d="M341.387 250.592C341.439 252.18 342.734 253.146 344.768 253.146C346.865 253.146 348.195 252.109 348.195 250.469C348.195 249.18 347.457 248.453 345.764 248.09L344.738 247.873C343.766 247.65 343.355 247.357 343.355 246.836C343.355 246.209 343.941 245.793 344.814 245.793C345.699 245.793 346.326 246.227 346.385 246.941H348.043C348.014 245.412 346.777 244.398 344.809 244.398C342.922 244.398 341.574 245.43 341.574 246.988C341.574 248.225 342.342 249.016 343.9 249.35L345.002 249.59C346.021 249.818 346.426 250.123 346.426 250.674C346.426 251.295 345.781 251.746 344.838 251.746C343.9 251.746 343.174 251.289 343.092 250.592H341.387ZM349.196 253H350.907V249.414C350.907 248.588 351.382 248.02 352.19 248.02C352.97 248.02 353.368 248.512 353.368 249.32V253H355.079V248.957C355.079 247.504 354.282 246.602 352.888 246.602C351.933 246.602 351.247 247.047 350.913 247.838H350.878V244.545H349.196V253ZM361.992 246.719H360.281V250.316C360.281 251.148 359.807 251.693 359.045 251.693C358.289 251.693 357.873 251.248 357.873 250.41V246.719H356.162V250.768C356.162 252.232 357.065 253.117 358.424 253.117C359.373 253.117 359.994 252.66 360.305 251.869H360.34V253H361.992V246.719ZM363.579 253H365.29V248.008H366.497V246.748H365.249V246.332C365.249 245.887 365.495 245.641 366.058 245.641C366.228 245.641 366.398 245.652 366.521 245.676V244.545C366.321 244.504 365.964 244.469 365.648 244.469C364.159 244.469 363.579 245.043 363.579 246.273V246.748H362.724V248.008H363.579V253ZM367.873 253H369.584V248.008H370.791V246.748H369.543V246.332C369.543 245.887 369.789 245.641 370.352 245.641C370.522 245.641 370.692 245.652 370.815 245.676V244.545C370.615 244.504 370.258 244.469 369.942 244.469C368.453 244.469 367.873 245.043 367.873 246.273V246.748H367.018V248.008H367.873V253ZM371.751 253H373.462V244.545H371.751V253ZM377.452 247.85C378.213 247.85 378.735 248.4 378.77 249.203H376.104C376.162 248.418 376.702 247.85 377.452 247.85ZM378.793 251.078C378.635 251.559 378.155 251.869 377.528 251.869C376.655 251.869 376.086 251.254 376.086 250.357V250.252H380.416V249.73C380.416 247.82 379.262 246.584 377.434 246.584C375.577 246.584 374.405 247.885 374.405 249.889C374.405 251.898 375.565 253.135 377.498 253.135C379.051 253.135 380.176 252.309 380.364 251.078H378.793Z" fill="black"/>
</svg>
