<svg fill="none" viewBox="0 0 669 611" xmlns="http://www.w3.org/2000/svg"><path d="m0 0h669v611h-669z" fill="#fff"/><path d="m105 128h46v22h-46z" fill="#4f4f4f"/><path d="m153 128h46v22h-46z" fill="#f2f2f2"/><path d="m201 128h46v22h-46z" fill="#f2f2f2"/><path d="m249 128h46v22h-46z" fill="#f2f2f2"/><path d="m401 128h46v22h-46z" fill="#f2f2f2"/><path d="m449 128h46v22h-46z" fill="#f2f2f2"/><path d="m497 128h46v22h-46z" fill="#f2f2f2"/><path d="m545 128h46v22h-46z" fill="#4f4f4f"/><path d="m32.5176 40.3984c-2.5078 0-4.0781 1.6817-4.0781 4.377 0 2.6894 1.5703 4.3711 4.0781 4.3711 2.5019 0 4.0781-1.6817 4.0781-4.3711 0-2.6953-1.5762-4.377-4.0781-4.377zm0 1.4766c1.3828 0 2.2676 1.125 2.2676 2.9004 0 1.7695-.8848 2.8887-2.2676 2.8887-1.3887 0-2.2735-1.1192-2.2735-2.8887 0-1.7754.8907-2.9004 2.2735-2.9004zm5.0909 7.125h1.7109v-3.5098c0-.8847.4922-1.4004 1.3359-1.4004.2461 0 .4805.0411.6211.0997v-1.5059c-.1172-.0352-.2871-.0645-.4863-.0645-.7383 0-1.2715.4336-1.4941 1.2305h-.0352v-1.1308h-1.6523zm4.417 0h1.711v-6.2812h-1.711zm.8555-6.9727c.5156 0 .9141-.3925.9141-.8847 0-.4981-.3985-.8848-.9141-.8848s-.9141.3867-.9141.8848c0 .4922.3985.8847.9141.8847zm4.9151 5.6368c-.8496 0-1.377-.668-1.377-1.8164 0-1.1426.5332-1.8575 1.377-1.8575.8555 0 1.4004.7266 1.4004 1.8575 0 1.1367-.5449 1.8164-1.4004 1.8164zm-.0293 3.7031c1.8809 0 3.1348-.9551 3.1348-2.4551v-6.1933h-1.6875v1.0957h-.0293c-.3282-.7207-1.0371-1.1954-1.9395-1.1954-1.5937 0-2.5781 1.2247-2.5781 3.2168 0 1.9629 1.0137 3.1465 2.5488 3.1465.9082 0 1.6465-.457 1.9395-1.125h.0351v1.1016c0 .7265-.4922 1.2187-1.3769 1.2187-.6504 0-1.1426-.2988-1.2774-.7324h-1.6758c.1348 1.1192 1.254 1.9219 2.9063 1.9219zm4.2999-2.3672h1.7109v-6.2812h-1.7109zm.8554-6.9727c.5157 0 .9141-.3925.9141-.8847 0-.4981-.3984-.8848-.9141-.8848-.5156 0-.914.3867-.914.8848 0 .4922.3984.8847.914.8847zm2.0147 6.9727h1.711v-3.6035c0-.8145.4863-1.377 1.2539-1.377s1.1543.4688 1.1543 1.2891v3.6914h1.7109v-4.0488c0-1.4707-.7851-2.3496-2.1797-2.3496-.9668 0-1.6289.457-1.9629 1.2363h-.0351v-1.1191h-1.6524zm9.3566-1.1367c-.5801 0-.9668-.293-.9668-.7617 0-.4454.3632-.7325 1.0019-.7793l1.3242-.0821v.4571c0 .6797-.6152 1.166-1.3593 1.166zm-.5625 1.2363c.7851 0 1.5644-.3926 1.916-1.0605h.0351v.9609h1.6524v-4.3184c0-1.2656-1.0489-2.0976-2.6602-2.0976-1.664 0-2.7012.8379-2.7656 2.0566h1.5644c.0821-.4629.4864-.7793 1.125-.7793.6446 0 1.0547.3399 1.0547.9258v.416l-1.582.0938c-1.5645.0937-2.4434.7558-2.4434 1.8984 0 1.1309.9082 1.9043 2.1036 1.9043zm4.7686-.0996h1.7109v-8.4551h-1.7109z" fill="#000"/><path d="m343.473 38.9277h1.506c.878 0 1.429.5274 1.429 1.3477 0 .8379-.521 1.3476-1.412 1.3476h-1.523zm0 3.9785h1.418l1.576 3.0938h2.004l-1.782-3.3574c.973-.3809 1.536-1.3184 1.536-2.4024 0-1.6699-1.114-2.6953-3.059-2.6953h-3.463v8.4551h1.77zm8.548-2.0566c.761 0 1.283.5508 1.318 1.3535h-2.666c.059-.7851.598-1.3535 1.348-1.3535zm1.341 3.2285c-.158.4805-.638.791-1.265.791-.873 0-1.442-.6152-1.442-1.5117v-.1054h4.33v-.5215c0-1.9102-1.154-3.1465-2.982-3.1465-1.857 0-3.029 1.3008-3.029 3.3047 0 2.0097 1.16 3.2461 3.093 3.2461 1.553 0 2.678-.8262 2.866-2.0567zm8.173-4.3593h-1.787l-1.301 4.7695h-.035l-1.306-4.7695h-1.834l2.173 6.2812h1.934zm3.257 1.1308c.762 0 1.283.5508 1.319 1.3535h-2.666c.058-.7851.597-1.3535 1.347-1.3535zm1.342 3.2285c-.158.4805-.639.791-1.266.791-.873 0-1.441-.6152-1.441-1.5117v-.1054h4.33v-.5215c0-1.9102-1.154-3.1465-2.982-3.1465-1.858 0-3.03 1.3008-3.03 3.3047 0 2.0097 1.16 3.2461 3.094 3.2461 1.553 0 2.678-.8262 2.865-2.0567zm2.524 1.9219h1.711v-3.5098c0-.8847.493-1.4004 1.336-1.4004.246 0 .481.0411.621.0997v-1.5059c-.117-.0352-.287-.0645-.486-.0645-.738 0-1.271.4336-1.494 1.2305h-.035v-1.1308h-1.653zm4.283-4.4355c0 .9257.609 1.5468 1.799 1.8164l1.16.2578c.562.1347.773.3105.773.6269 0 .4102-.392.668-1.043.668-.679 0-1.095-.3047-1.178-.832h-1.669c.093 1.2246 1.125 2.0332 2.8 2.0332 1.659 0 2.795-.8145 2.795-2.0508 0-.9375-.51-1.4356-1.769-1.7168l-1.201-.2578c-.551-.1289-.821-.3399-.821-.6504 0-.4043.387-.6738.979-.6738.633 0 1.037.3105 1.072.8144h1.576c-.023-1.2187-1.049-2.0156-2.625-2.0156-1.611 0-2.648.7851-2.648 1.9805zm9.128-.7149c.761 0 1.283.5508 1.318 1.3535h-2.666c.059-.7851.598-1.3535 1.348-1.3535zm1.342 3.2285c-.159.4805-.639.791-1.266.791-.873 0-1.441-.6152-1.441-1.5117v-.1054h4.33v-.5215c0-1.9102-1.155-3.1465-2.983-3.1465-1.857 0-3.029 1.3008-3.029 3.3047 0 2.0097 1.16 3.2461 3.094 3.2461 1.552 0 2.677-.8262 2.865-2.0567z" fill="#000"/><path d="m105 104h46v22h-46z" fill="#f2f2f2"/><path d="m153 104h46v22h-46z" fill="#4f4f4f"/><path d="m201 104h46v22h-46z" fill="#f2f2f2"/><path d="m249 104h46v22h-46z" fill="#f2f2f2"/><path d="m401 104h46v22h-46z" fill="#f2f2f2"/><path d="m449 104h46v22h-46z" fill="#f2f2f2"/><path d="m497 104h46v22h-46z" fill="#4f4f4f"/><path d="m545 104h46v22h-46z" fill="#f2f2f2"/><path d="m105 80h46v22h-46z" fill="#f2f2f2"/><path d="m153 80h46v22h-46z" fill="#f2f2f2"/><path d="m201 80h46v22h-46z" fill="#4f4f4f"/><path d="m249 80h46v22h-46z" fill="#f2f2f2"/><path d="m401 80h46v22h-46z" fill="#f2f2f2"/><path d="m449 80h46v22h-46z" fill="#4f4f4f"/><path d="m497 80h46v22h-46z" fill="#f2f2f2"/><path d="m545 80h46v22h-46z" fill="#f2f2f2"/><path d="m105 56h46v22h-46z" fill="#f2f2f2"/><path d="m153 56h46v22h-46z" fill="#f2f2f2"/><path d="m201 56h46v22h-46z" fill="#f2f2f2"/><path d="m249 56h46v22h-46z" fill="#4f4f4f"/><g fill="#f2f2f2"><path d="m105 32h46v22h-46z"/><path d="m153 32h46v22h-46z"/><path d="m201 32h46v22h-46z"/><path d="m249 32h46v22h-46z"/><path d="m400 32h46v22h-46z"/><path d="m448 32h46v22h-46z"/><path d="m496 32h46v22h-46z"/><path d="m544 32h46v22h-46z"/><path d="m105 152h46v22h-46z"/><path d="m153 152h46v22h-46z"/><path d="m201 152h46v22h-46z"/><path d="m249 152h46v22h-46z"/><path d="m401 152h46v22h-46z"/><path d="m449 152h46v22h-46z"/><path d="m497 152h46v22h-46z"/><path d="m545 152h46v22h-46z"/></g><path d="m105 518h46v22h-46z" fill="#4f4f4f"/><g fill="#f2f2f2"><path d="m153 518h46v22h-46z"/><path d="m201 518h46v22h-46z"/><path d="m249 518h46v22h-46z"/><path d="m105 542h46v22h-46z"/><path d="m153 542h46v22h-46z"/><path d="m201 542h46v22h-46z"/><path d="m249 542h46v22h-46z"/><path d="m105 566h46v22h-46z"/><path d="m153 566h46v22h-46z"/><path d="m201 566h46v22h-46z"/><path d="m249 566h46v22h-46z"/></g><path d="m32.4941 461v-6.996h2.4493v-1.459h-6.6622v1.459h2.4434v6.996zm2.5011 0h1.7109v-3.51c0-.885.4922-1.4 1.336-1.4.2461 0 .4804.041.6211.099v-1.505c-.1172-.036-.2872-.065-.4864-.065-.7383 0-1.2715.434-1.4941 1.231h-.0352v-1.131h-1.6523zm6.6612-1.137c-.5801 0-.9668-.293-.9668-.761 0-.446.3633-.733 1.0019-.78l1.3243-.082v.457c0 .68-.6153 1.166-1.3594 1.166zm-.5625 1.237c.7851 0 1.5644-.393 1.916-1.061h.0352v.961h1.6523v-4.318c0-1.266-1.0488-2.098-2.6602-2.098-1.664 0-2.7011.838-2.7656 2.057h1.5645c.082-.463.4863-.78 1.125-.78.6445 0 1.0547.34 1.0547.926v.416l-1.5821.094c-1.5644.094-2.4433.756-2.4433 1.898 0 1.131.9082 1.905 2.1035 1.905zm4.7276-.1h1.7109v-3.604c0-.814.4863-1.376 1.2539-1.376s1.1543.468 1.1543 1.289v3.691h1.711v-4.049c0-1.471-.7852-2.349-2.1797-2.349-.9668 0-1.6289.457-1.9629 1.236h-.0352v-1.119h-1.6523zm6.8252-4.436c0 .926.6094 1.547 1.7989 1.817l1.1601.258c.5625.134.7735.31.7735.627 0 .41-.3926.668-1.043.668-.6797 0-1.0957-.305-1.1777-.832h-1.67c.0938 1.224 1.125 2.033 2.8008 2.033 1.6582 0 2.7949-.815 2.7949-2.051 0-.938-.5097-1.436-1.7695-1.717l-1.2012-.258c-.5507-.129-.8203-.339-.8203-.65 0-.404.3867-.674.9785-.674.6329 0 1.0372.311 1.0723.815h1.5762c-.0235-1.219-1.0488-2.016-2.625-2.016-1.6113 0-2.6485.785-2.6485 1.98zm9.9776-1.945c-.9082 0-1.6054.457-1.9453 1.195h-.0351v-1.095h-1.6875v8.332h1.7109v-3.106h.0352c.334.709 1.0371 1.155 1.9511 1.155 1.5704 0 2.543-1.219 2.543-3.241 0-2.027-.9785-3.24-2.5723-3.24zm-.5742 5.104c-.8379 0-1.3886-.727-1.3886-1.864 0-1.125.5507-1.869 1.3886-1.869.8555 0 1.3946.733 1.3946 1.869 0 1.143-.5391 1.864-1.3946 1.864zm6.9308 1.412c1.8984 0 3.1113-1.213 3.1113-3.281 0-2.04-1.2305-3.27-3.1113-3.27-1.8809 0-3.1114 1.236-3.1114 3.27 0 2.062 1.2129 3.281 3.1114 3.281zm0-1.307c-.8438 0-1.377-.709-1.377-1.969 0-1.248.5449-1.968 1.377-1.968.832 0 1.3711.72 1.3711 1.968 0 1.26-.5333 1.969-1.3711 1.969zm3.9072-3.264c0 .926.6094 1.547 1.7989 1.817l1.1601.258c.5625.134.7735.31.7735.627 0 .41-.3926.668-1.043.668-.6797 0-1.0957-.305-1.1777-.832h-1.67c.0938 1.224 1.125 2.033 2.8008 2.033 1.6582 0 2.7949-.815 2.7949-2.051 0-.938-.5097-1.436-1.7695-1.717l-1.2012-.258c-.5507-.129-.8203-.339-.8203-.65 0-.404.3868-.674.9785-.674.6329 0 1.0372.311 1.0723.815h1.5762c-.0235-1.219-1.0488-2.016-2.625-2.016-1.6113 0-2.6485.785-2.6485 1.98zm9.128-.714c.7618 0 1.2833.55 1.3184 1.353h-2.666c.0586-.785.5976-1.353 1.3476-1.353zm1.3418 3.228c-.1582.481-.6386.791-1.2656.791-.873 0-1.4414-.615-1.4414-1.512v-.105h4.3301v-.522c0-1.91-1.1543-3.146-2.9824-3.146-1.8575 0-3.0293 1.301-3.0293 3.305 0 2.009 1.1601 3.246 3.0937 3.246 1.5528 0 2.6778-.826 2.8653-2.057z" fill="#000"/><path d="m105 494h46v22h-46z" fill="#f2f2f2"/><path d="m153 494h46v22h-46z" fill="#4f4f4f"/><path d="m201 494h46v22h-46z" fill="#f2f2f2"/><path d="m249 494h46v22h-46z" fill="#f2f2f2"/><path d="m105 470h46v22h-46z" fill="#f2f2f2"/><path d="m153 470h46v22h-46z" fill="#f2f2f2"/><path d="m201 470h46v22h-46z" fill="#4f4f4f"/><path d="m249 470h46v22h-46z" fill="#f2f2f2"/><path d="m105 446h46v22h-46z" fill="#f2f2f2"/><path d="m153 446h46v22h-46z" fill="#f2f2f2"/><path d="m201 446h46v22h-46z" fill="#f2f2f2"/><path d="m249 446h46v22h-46z" fill="#4f4f4f"/><path d="m405 518h46v22h-46z" fill="#4f4f4f"/><path d="m453 518h46v22h-46z" fill="#f2f2f2"/><path d="m501 518h46v22h-46z" fill="#f2f2f2"/><path d="m549 518h46v22h-46z" fill="#f2f2f2"/><path d="m405 542h46v22h-46z" fill="#f2f2f2"/><path d="m453 542h46v22h-46z" fill="#4f4f4f"/><path d="m501 542h46v22h-46z" fill="#f2f2f2"/><path d="m549 542h46v22h-46z" fill="#f2f2f2"/><path d="m405 566h46v22h-46z" fill="#f2f2f2"/><path d="m453 566h46v22h-46z" fill="#f2f2f2"/><path d="m501 566h46v22h-46z" fill="#f2f2f2"/><path d="m549 566h46v22h-46z" fill="#f2f2f2"/><path d="m341.387 458.592c.052 1.588 1.347 2.554 3.381 2.554 2.097 0 3.427-1.037 3.427-2.677 0-1.289-.738-2.016-2.431-2.379l-1.026-.217c-.972-.223-1.383-.516-1.383-1.037 0-.627.586-1.043 1.459-1.043.885 0 1.512.434 1.571 1.148h1.658c-.029-1.529-1.266-2.543-3.234-2.543-1.887 0-3.235 1.032-3.235 2.59 0 1.237.768 2.028 2.326 2.362l1.102.24c1.019.228 1.424.533 1.424 1.084 0 .621-.645 1.072-1.588 1.072-.938 0-1.664-.457-1.746-1.154zm16.581-3.873h-1.688l-.955 4.658h-.035l-1.119-4.658h-1.641l-1.113 4.658h-.035l-.949-4.658h-1.723l1.67 6.281h1.799l1.131-4.441h.035l1.137 4.441h1.822zm3.017 5.144c-.581 0-.967-.293-.967-.761 0-.446.363-.733 1.002-.78l1.324-.082v.457c0 .68-.615 1.166-1.359 1.166zm-.563 1.237c.785 0 1.564-.393 1.916-1.061h.035v.961h1.653v-4.318c0-1.266-1.049-2.098-2.661-2.098-1.664 0-2.701.838-2.765 2.057h1.564c.082-.463.487-.78 1.125-.78.645 0 1.055.34 1.055.926v.416l-1.582.094c-1.565.094-2.444.756-2.444 1.898 0 1.131.909 1.905 2.104 1.905zm8.396-6.481c-.909 0-1.606.457-1.946 1.195h-.035v-1.095h-1.687v8.332h1.711v-3.106h.035c.334.709 1.037 1.155 1.951 1.155 1.57 0 2.543-1.219 2.543-3.241 0-2.027-.979-3.24-2.572-3.24zm-.575 5.104c-.838 0-1.388-.727-1.388-1.864 0-1.125.55-1.869 1.388-1.869.856 0 1.395.733 1.395 1.869 0 1.143-.539 1.864-1.395 1.864z" fill="#000"/><path d="m405 494h46v22h-46z" fill="#f2f2f2"/><path d="m453 494h46v22h-46z" fill="#f2f2f2"/><path d="m501 494h46v22h-46z" fill="#f2f2f2"/><path d="m549 494h46v22h-46z" fill="#4f4f4f"/><path d="m405 470h46v22h-46z" fill="#f2f2f2"/><path d="m453 470h46v22h-46z" fill="#f2f2f2"/><path d="m501 470h46v22h-46z" fill="#4f4f4f"/><path d="m549 470h46v22h-46z" fill="#f2f2f2"/><path d="m405 446h46v22h-46z" fill="#f2f2f2"/><path d="m453 446h46v22h-46z" fill="#f2f2f2"/><path d="m501 446h46v22h-46z" fill="#f2f2f2"/><path d="m549 446h46v22h-46z" fill="#f2f2f2"/><path d="m401 56h46v22h-46z" fill="#4f4f4f"/><path d="m449 56h46v22h-46z" fill="#f2f2f2"/><path d="m497 56h46v22h-46z" fill="#f2f2f2"/><path d="m545 56h46v22h-46z" fill="#f2f2f2"/><path d="m104 335h46v22h-46z" fill="#f2f2f2"/><path d="m152 335h46v22h-46z" fill="#4f4f4f"/><g fill="#f2f2f2"><path d="m200 335h46v22h-46z"/><path d="m248 335h46v22h-46z"/><path d="m104 359h46v22h-46z"/><path d="m152 359h46v22h-46z"/><path d="m200 359h46v22h-46z"/><path d="m248 359h46v22h-46z"/><path d="m104 311h46v22h-46z"/><path d="m152 311h46v22h-46z"/></g><path d="m200 311h46v22h-46z" fill="#4f4f4f"/><path d="m248 311h46v22h-46z" fill="#f2f2f2"/><path d="m104 287h46v22h-46z" fill="#f2f2f2"/><path d="m152 287h46v22h-46z" fill="#f2f2f2"/><path d="m200 287h46v22h-46z" fill="#f2f2f2"/><path d="m248 287h46v22h-46z" fill="#4f4f4f"/><path d="m104 263h46v22h-46z" fill="#4f4f4f"/><path d="m152 263h46v22h-46z" fill="#f2f2f2"/><path d="m200 263h46v22h-46z" fill="#f2f2f2"/><path d="m248 263h46v22h-46z" fill="#f2f2f2"/><path d="m104 239h46v22h-46z" fill="#f2f2f2"/><path d="m152 239h46v22h-46z" fill="#f2f2f2"/><path d="m200 239h46v22h-46z" fill="#f2f2f2"/><path d="m248 239h46v22h-46z" fill="#f2f2f2"/><path d="m30.3965 254v-5.537h.0527l3.9551 5.537h1.4648v-8.455h-1.6933v5.508h-.0469l-3.9492-5.508h-1.4766v8.455zm12.5557-6.281h-1.7109v3.597c0 .832-.4746 1.377-1.2364 1.377-.7558 0-1.1718-.445-1.1718-1.283v-3.691h-1.711v4.049c0 1.464.9024 2.349 2.2618 2.349.9492 0 1.5703-.457 1.8808-1.248h.0352v1.131h1.6523zm3.462 6.381c.9258 0 1.6523-.487 1.957-1.178h.0293v1.078h1.6875v-8.455h-1.7109v3.252h-.0352c-.3047-.697-1.0078-1.178-1.916-1.178-1.5762 0-2.5723 1.236-2.5723 3.229 0 2.009.9903 3.252 2.5606 3.252zm.5801-5.11c.8496 0 1.3945.727 1.3945 1.869 0 1.149-.5449 1.864-1.3945 1.864-.8614 0-1.3887-.709-1.3887-1.864 0-1.148.5273-1.869 1.3887-1.869zm7.1534 3.674c-.8497 0-1.377-.668-1.377-1.816 0-1.143.5332-1.858 1.377-1.858.8554 0 1.4003.727 1.4003 1.858 0 1.136-.5449 1.816-1.4003 1.816zm-.0293 3.703c1.8808 0 3.1347-.955 3.1347-2.455v-6.193h-1.6875v1.095h-.0293c-.3281-.72-1.0371-1.195-1.9394-1.195-1.5938 0-2.5782 1.225-2.5782 3.217 0 1.963 1.0137 3.146 2.5489 3.146.9082 0 1.6465-.457 1.9394-1.125h.0352v1.102c0 .727-.4922 1.219-1.377 1.219-.6504 0-1.1425-.299-1.2773-.733h-1.6758c.1348 1.119 1.2539 1.922 2.9063 1.922zm7.0889-7.517c.7617 0 1.2832.55 1.3184 1.353h-2.6661c.0586-.785.5977-1.353 1.3477-1.353zm1.3418 3.228c-.1582.481-.6387.791-1.2656.791-.8731 0-1.4414-.615-1.4414-1.512v-.105h4.33v-.522c0-1.91-1.1543-3.146-2.9824-3.146-1.8574 0-3.0293 1.301-3.0293 3.305 0 2.009 1.1602 3.246 3.0938 3.246 1.5527 0 2.6777-.826 2.8652-2.057z" fill="#000"/><path d="m405 335h46v22h-46z" fill="#f2f2f2"/><path d="m453 335h46v22h-46z" fill="#f2f2f2"/><path d="m501 335h46v22h-46z" fill="#f2f2f2"/><path d="m549 335h46v22h-46z" fill="#4f4f4f"/><path d="m405 359h46v22h-46z" fill="#f2f2f2"/><path d="m453 359h46v22h-46z" fill="#f2f2f2"/><path d="m501 359h46v22h-46z" fill="#f2f2f2"/><path d="m549 359h46v22h-46z" fill="#f2f2f2"/><path d="m405 311h46v22h-46z" fill="#f2f2f2"/><path d="m453 311h46v22h-46z" fill="#f2f2f2"/><path d="m501 311h46v22h-46z" fill="#4f4f4f"/><path d="m549 311h46v22h-46z" fill="#f2f2f2"/><path d="m405 287h46v22h-46z" fill="#4f4f4f"/><path d="m453 287h46v22h-46z" fill="#f2f2f2"/><path d="m501 287h46v22h-46z" fill="#f2f2f2"/><path d="m549 287h46v22h-46z" fill="#f2f2f2"/><path d="m405 263h46v22h-46z" fill="#f2f2f2"/><path d="m453 263h46v22h-46z" fill="#4f4f4f"/><path d="m501 263h46v22h-46z" fill="#f2f2f2"/><path d="m549 263h46v22h-46z" fill="#f2f2f2"/><path d="m405 239h46v22h-46z" fill="#f2f2f2"/><path d="m453 239h46v22h-46z" fill="#f2f2f2"/><path d="m501 239h46v22h-46z" fill="#f2f2f2"/><path d="m549 239h46v22h-46z" fill="#f2f2f2"/><path d="m341.387 250.592c.052 1.588 1.347 2.554 3.381 2.554 2.097 0 3.427-1.037 3.427-2.677 0-1.289-.738-2.016-2.431-2.379l-1.026-.217c-.972-.223-1.383-.516-1.383-1.037 0-.627.586-1.043 1.459-1.043.885 0 1.512.434 1.571 1.148h1.658c-.029-1.529-1.266-2.543-3.234-2.543-1.887 0-3.235 1.032-3.235 2.59 0 1.237.768 2.028 2.326 2.362l1.102.24c1.019.228 1.424.533 1.424 1.084 0 .621-.645 1.072-1.588 1.072-.938 0-1.664-.457-1.746-1.154zm7.809 2.408h1.711v-3.586c0-.826.475-1.394 1.283-1.394.78 0 1.178.492 1.178 1.3v3.68h1.711v-4.043c0-1.453-.797-2.355-2.191-2.355-.955 0-1.641.445-1.975 1.236h-.035v-3.293h-1.682zm12.796-6.281h-1.711v3.597c0 .832-.474 1.377-1.236 1.377-.756 0-1.172-.445-1.172-1.283v-3.691h-1.711v4.049c0 1.464.903 2.349 2.262 2.349.949 0 1.57-.457 1.881-1.248h.035v1.131h1.652zm1.587 6.281h1.711v-4.992h1.207v-1.26h-1.248v-.416c0-.445.246-.691.809-.691.17 0 .34.011.463.035v-1.131c-.2-.041-.557-.076-.873-.076-1.489 0-2.069.574-2.069 1.804v.475h-.855v1.26h.855zm4.294 0h1.711v-4.992h1.207v-1.26h-1.248v-.416c0-.445.246-.691.809-.691.17 0 .34.011.463.035v-1.131c-.2-.041-.557-.076-.873-.076-1.489 0-2.069.574-2.069 1.804v.475h-.855v1.26h.855zm3.878 0h1.711v-8.455h-1.711zm5.701-5.15c.761 0 1.283.55 1.318 1.353h-2.666c.058-.785.598-1.353 1.348-1.353zm1.341 3.228c-.158.481-.638.791-1.265.791-.873 0-1.442-.615-1.442-1.512v-.105h4.33v-.522c0-1.91-1.154-3.146-2.982-3.146-1.857 0-3.029 1.301-3.029 3.305 0 2.009 1.16 3.246 3.093 3.246 1.553 0 2.678-.826 2.866-2.057z" fill="#000"/></svg>