<svg fill="none" height="230" viewBox="0 0 334 230" width="334" xmlns="http://www.w3.org/2000/svg"><path d="m0 0h334v230h-334z" fill="#fff"/><g stroke="#000" stroke-width=".125"><path d="m63.0588 23.8824h41.1765v176.471h-41.1765z"/><path d="m104.235 23.8824h41.1765v176.471h-41.1765z"/><path d="m145.412 23.8824h41.1765v176.471h-41.1765z"/><path d="m186.588 23.8824h41.1765v176.471h-41.1765z"/><path d="m227.765 23.8824h41.1765v176.471h-41.1765z"/><path d="m268.941 23.8824h41.1765v176.471h-41.1765z"/></g><path d="m92.4706 23.8824h23.5294v117.647h-23.5294z" fill="#000"/><path d="m174.824 23.8824h23.5294v117.647h-23.5294z" fill="#000"/><path d="m216 23.8824h23.5294v117.647h-23.5294z" fill="#000"/><path d="m257.176 23.8824h23.5294v117.647h-23.5294z" fill="#000"/><path d="m42.6589 191.171c2.4199 0 4.1084-1.395 4.3408-3.596h-2.0098c-.2187 1.169-1.1006 1.887-2.3242 1.887-1.5791 0-2.5703-1.299-2.5703-3.404 0-2.079 1.0049-3.384 2.5635-3.384 1.2031 0 2.1328.793 2.3242 2.003h2.0098c-.1573-2.208-1.962-3.712-4.334-3.712-2.8575 0-4.669 1.921-4.669 5.099 0 3.186 1.7979 5.107 4.669 5.107z" fill="#000"/><path d="m79.5629 181.136v9.864h3.7666c2.9599 0 4.7031-1.839 4.7031-4.97s-1.7432-4.894-4.7031-4.894zm2.0644 1.702h1.4561c1.8183 0 2.8437 1.135 2.8437 3.199 0 2.133-.998 3.254-2.8437 3.254h-1.4561z" fill="#000"/><path d="m21.8824 23.8824h41.1765v176.471h-41.1765z" stroke="#000" stroke-width=".125"/><path d="m51.2941 23.8824h23.5294v117.647h-23.5294z" fill="#000"/><path d="m58.7869 115.171c2.42 0 4.1084-1.395 4.3409-3.596h-2.0098c-.2187 1.169-1.1006 1.887-2.3242 1.887-1.5791 0-2.5703-1.299-2.5703-3.404 0-2.079 1.0049-3.384 2.5634-3.384 1.2032 0 2.1329.793 2.3243 2.003h2.0097c-.1572-2.208-1.9619-3.712-4.334-3.712-2.8574 0-4.6689 1.921-4.6689 5.099 0 3.186 1.7979 5.107 4.6689 5.107zm9.1118-.171h1.5175l.5196-2.598h1.6611l.2734-1.476h-1.6474l.376-1.846h1.6337l.2735-1.463h-1.6133l.499-2.488h-1.5175l-.4991 2.488h-1.7705l.4922-2.488h-1.5039l-.5059 2.488h-1.5859l-.2803 1.463h1.5723l-.3691 1.846h-1.5518l-.2803 1.476h1.5381l-.5127 2.598h1.5039l.5264-2.598h1.7705zm-1.0869-3.944.4238-2.099h1.9687l-.4306 2.099z" fill="#fff"/><path d="m54.4938 122.136v9.864h3.7666c2.96 0 4.7031-1.839 4.7031-4.97s-1.7431-4.894-4.7031-4.894zm2.0645 1.702h1.456c1.8184 0 2.8438 1.135 2.8438 3.199 0 2.133-.9981 3.254-2.8438 3.254h-1.456zm11.9281 8.278c1.8457 0 2.9736-1.422 2.9736-3.78 0-2.365-1.1347-3.78-2.9805-3.78-1.0458 0-1.8593.519-2.2626 1.387h-.0411v-3.807h-1.9961v9.864h1.9688v-1.258h.041c.4033.855 1.2236 1.374 2.2969 1.374zm-.6904-5.961c.9912 0 1.6201.848 1.6201 2.181 0 1.34-.6221 2.174-1.6201 2.174-.9707 0-1.627-.848-1.627-2.174 0-1.313.6631-2.181 1.627-2.181z" fill="#fff"/><path d="m51.9162 150.599c-.2214-.506-.811-.737-1.317-.515l-8.2454 3.607c-.506.222-.7367.811-.5154 1.317.2214.506.811.737 1.317.516l7.3293-3.207 3.2065 7.329c.2214.506.811.737 1.317.516.506-.222.7367-.811.5153-1.317zm-8.985 23.765 9-23-1.8624-.728-9 23z" fill="#e0e0e0"/><path d="m75.4008 150.084c-.506-.222-1.0956.009-1.317.515l-3.6073 8.246c-.2214.506.0093 1.095.5153 1.317.506.221 1.0956-.01 1.317-.516l3.2065-7.329 7.3293 3.207c.506.221 1.0956-.01 1.317-.516.2213-.506-.0094-1.095-.5154-1.317zm9.5304 23.552-9-23-1.8624.728 9 23z" fill="#e0e0e0"/></svg>