<svg fill="none" viewBox="0 0 631 236" xmlns="http://www.w3.org/2000/svg"><path d="m0 0h631v236h-631z" fill="#fff"/><rect height="44" rx="3.5" stroke="#bdbdbd" stroke-width="3" width="118" x="30.5" y="32.5"/><path d="m70.6562 60v-8.4551h-2.0507l-2.4024 5.9942h-.0469l-2.4023-5.9942h-2.0508v8.4551h1.5762v-5.707h.0469l2.2968 5.625h1.1133l2.2969-5.625h.0469v5.707zm4.0948-5.1504c.7618 0 1.2832.5508 1.3184 1.3535h-2.666c.0586-.7851.5976-1.3535 1.3476-1.3535zm1.3418 3.2285c-.1582.4805-.6386.791-1.2656.791-.873 0-1.4414-.6152-1.4414-1.5117v-.1054h4.3301v-.5215c0-1.9102-1.1543-3.1465-2.9824-3.1465-1.8575 0-3.0293 1.3008-3.0293 3.3047 0 2.0097 1.1601 3.2461 3.0937 3.2461 1.5528 0 2.6778-.8262 2.8653-2.0567zm2.419-2.5136c0 .9257.6094 1.5468 1.7989 1.8164l1.1601.2578c.5625.1347.7735.3105.7735.6269 0 .4102-.3926.668-1.043.668-.6797 0-1.0957-.3047-1.1777-.832h-1.67c.0938 1.2246 1.125 2.0332 2.8008 2.0332 1.6582 0 2.7949-.8145 2.7949-2.0508 0-.9375-.5097-1.4356-1.7695-1.7168l-1.2012-.2578c-.5507-.1289-.8203-.3399-.8203-.6504 0-.4043.3868-.6738.9785-.6738.6329 0 1.0372.3105 1.0723.8144h1.5762c-.0235-1.2187-1.0488-2.0156-2.625-2.0156-1.6113 0-2.6485.7851-2.6485 1.9805zm6.2042 0c0 .9257.6094 1.5468 1.7988 1.8164l1.1602.2578c.5625.1347.7734.3105.7734.6269 0 .4102-.3925.668-1.0429.668-.6797 0-1.0957-.3047-1.1778-.832h-1.6699c.0938 1.2246 1.125 2.0332 2.8008 2.0332 1.6582 0 2.7949-.8145 2.7949-2.0508 0-.9375-.5098-1.4356-1.7695-1.7168l-1.2012-.2578c-.5508-.1289-.8203-.3399-.8203-.6504 0-.4043.3867-.6738.9785-.6738.6328 0 1.0371.3105 1.0723.8144h1.5762c-.0235-1.2187-1.0489-2.0156-2.625-2.0156-1.6114 0-2.6485.7851-2.6485 1.9805zm8.7354 3.2988c-.58 0-.9668-.293-.9668-.7617 0-.4454.3633-.7325 1.002-.7793l1.3242-.0821v.4571c0 .6797-.6152 1.166-1.3594 1.166zm-.5625 1.2363c.7852 0 1.5645-.3926 1.916-1.0605h.0352v.9609h1.6523v-4.3184c0-1.2656-1.0488-2.0976-2.6601-2.0976-1.6641 0-2.7012.8379-2.7656 2.0566h1.5644c.0821-.4629.4863-.7793 1.125-.7793.6446 0 1.0547.3399 1.0547.9258v.416l-1.582.0938c-1.5645.0937-2.4434.7558-2.4434 1.8984 0 1.1309.9082 1.9043 2.1035 1.9043zm7.6281-1.4355c-.8497 0-1.377-.668-1.377-1.8164 0-1.1426.5332-1.8575 1.377-1.8575.855 0 1.4.7266 1.4 1.8575 0 1.1367-.545 1.8164-1.4 1.8164zm-.029 3.7031c1.88 0 3.134-.9551 3.134-2.4551v-6.1933h-1.687v1.0957h-.029c-.329-.7207-1.038-1.1954-1.9399-1.1954-1.5937 0-2.5781 1.2247-2.5781 3.2168 0 1.9629 1.0137 3.1465 2.5488 3.1465.9082 0 1.6462-.457 1.9392-1.125h.035v1.1016c0 .7265-.492 1.2187-1.376 1.2187-.6509 0-1.1431-.2988-1.2778-.7324h-1.6758c.1347 1.1192 1.2539 1.9219 2.9066 1.9219zm7.089-7.5176c.761 0 1.283.5508 1.318 1.3535h-2.666c.058-.7851.598-1.3535 1.348-1.3535zm1.341 3.2285c-.158.4805-.638.791-1.265.791-.873 0-1.442-.6152-1.442-1.5117v-.1054h4.33v-.5215c0-1.9102-1.154-3.1465-2.982-3.1465-1.857 0-3.029 1.3008-3.029 3.3047 0 2.0097 1.16 3.2461 3.093 3.2461 1.553 0 2.678-.8262 2.866-2.0567zm2.419-2.5136c0 .9257.61 1.5468 1.799 1.8164l1.16.2578c.563.1347.774.3105.774.6269 0 .4102-.393.668-1.043.668-.68 0-1.096-.3047-1.178-.832h-1.67c.094 1.2246 1.125 2.0332 2.801 2.0332 1.658 0 2.795-.8145 2.795-2.0508 0-.9375-.51-1.4356-1.77-1.7168l-1.201-.2578c-.551-.1289-.82-.3399-.82-.6504 0-.4043.387-.6738.978-.6738.633 0 1.037.3105 1.073.8144h1.576c-.024-1.2187-1.049-2.0156-2.625-2.0156-1.612 0-2.649.7851-2.649 1.9805z" fill="#000"/><g fill="#bdbdbd"><path d="m74.6682 159.262h.041l.3516 3.357h-2.1914zm.709 6.738h1.7754l-1.0898-8.455h-2.086l-4.7812 8.455h1.8926l1.1015-2.016h2.9766zm5.9698-6.439c-2.0508 0-3.3984 1.564-3.3984 3.849 0 1.629 1.0254 2.731 2.7656 2.731 1.5351 0 2.7422-1.008 2.9883-2.432h-1.6114c-.1875.621-.6679 1.008-1.3183 1.008-.6914 0-1.1426-.528-1.1426-1.377 0-1.389.6797-2.361 1.6524-2.361.6972 0 1.1132.451 1.125 1.054h1.6054c0-.029 0-.041 0-.193 0-1.248-1.0254-2.279-2.666-2.279zm5.4776 6.509c.2871 0 .5918-.029.7852-.07l.2636-1.26c-.0996.024-.205.03-.4218.03-.5039 0-.7676-.159-.7676-.551 0-.106.0176-.258.0469-.387l.5918-2.713h1.2832l.2695-1.312h-1.2891l.3282-1.53h-1.6758l-.3164 1.53h-.9375l-.2754 1.312h.9375l-.6387 2.965c-.0527.246-.0644.469-.0644.627 0 .908.7382 1.359 1.8808 1.359zm1.6866-.07h1.6816l1.336-6.299h-1.6817zm2.5137-6.973c.5097 0 .9082-.392.9082-.902s-.3985-.908-.9082-.908c-.5157 0-.9141.398-.9141.908s.3984.902.9141.902zm3.6846 5.731c-.7266 0-1.2012-.592-1.2012-1.477 0-1.336.7383-2.338 1.7461-2.338.7266 0 1.1953.586 1.1953 1.477 0 1.324-.7382 2.338-1.7402 2.338zm.6035-5.197c-2.0215 0-3.498 1.599-3.498 3.755 0 1.694 1.1308 2.825 2.8418 2.825 2.0215 0 3.498-1.606 3.498-3.762 0-1.688-1.1308-2.818-2.8418-2.818zm3.0987 6.439h1.6703l.791-3.732c.175-.791.767-1.307 1.482-1.307.645 0 1.078.375 1.078.955 0 .141-.017.305-.058.504l-.756 3.58h1.664l.814-3.855c.053-.276.082-.545.082-.768 0-1.072-.808-1.816-1.939-1.816-.873 0-1.623.41-2.051 1.107h-.035l.205-.967h-1.6113zm7.8743-4.424c0 .867.51 1.424 1.67 1.805l.556.187c.674.217.868.364.868.662 0 .405-.399.692-.997.692-.72 0-1.177-.363-1.236-.879h-1.605c.047 1.248 1.125 2.098 2.789 2.098 1.611 0 2.713-.85 2.713-2.086 0-.838-.463-1.319-1.629-1.705l-.627-.211c-.686-.223-.903-.387-.903-.715 0-.381.375-.645.985-.645.603 0 1.037.34 1.078.821h1.523c-.029-1.202-1.078-2.034-2.578-2.034-1.57 0-2.607.815-2.607 2.01zm-28.2344 22.912h-3.8262l.457-2.056h3.6035l.2871-1.401h-3.6035l.4336-1.974h3.8203l.3164-1.512h-5.6074l-1.7988 8.455h5.6074zm1.6104-4.793.791 6.305h1.9102l3.4746-6.305h-1.7989l-2.3086 4.694h-.0351l-.3633-4.694zm7.5225 2.479c.1992-.768.7734-1.33 1.5527-1.33.7911 0 1.1895.533 1.1895 1.154 0 .059-.0059.135-.0117.176zm1.0488 3.967c1.5176 0 2.666-.891 2.9883-2.145h-1.5762c-.1933.504-.6796.844-1.3476.844-.7969 0-1.2949-.574-1.2949-1.406 0-.065.0058-.129.0117-.2h4.3945c.0645-.298.0879-.673.0879-.978 0-1.647-1.0781-2.695-2.7012-2.695-1.9863 0-3.3457 1.623-3.3457 3.744 0 1.722 1.0313 2.836 2.7832 2.836zm3.5147-.141h1.67l.791-3.732c.1758-.791.7676-1.307 1.4824-1.307.6445 0 1.0781.375 1.0781.955 0 .141-.0175.305-.0586.504l-.7558 3.58h1.664l.8145-3.855c.0527-.276.082-.545.082-.768 0-1.072-.8086-1.816-1.9394-1.816-.8731 0-1.6231.41-2.0508 1.107h-.0352l.2051-.967h-1.6113zm9.714.07c.287 0 .592-.029.785-.07l.264-1.26c-.1.024-.205.03-.422.03-.504 0-.768-.159-.768-.551 0-.106.018-.258.047-.387l.592-2.713h1.283l.27-1.312h-1.289l.328-1.53h-1.676l-.316 1.53h-.9379l-.2754 1.312h.9373l-.6384 2.965c-.0528.246-.0645.469-.0645.627 0 .908.7379 1.359 1.8809 1.359zm2.513-4.494c0 .867.51 1.424 1.67 1.805l.556.187c.674.217.867.364.867.662 0 .405-.398.692-.996.692-.72 0-1.177-.363-1.236-.879h-1.605c.046 1.248 1.125 2.098 2.789 2.098 1.611 0 2.713-.85 2.713-2.086 0-.838-.463-1.319-1.629-1.705l-.627-.211c-.686-.223-.903-.387-.903-.715 0-.381.375-.645.985-.645.603 0 1.037.34 1.078.821h1.523c-.029-1.202-1.078-2.034-2.578-2.034-1.57 0-2.607.815-2.607 2.01zm-41.7302 15.969-1.793 8.455h3.75c2.6836 0 4.5059-2.121 4.5059-5.127 0-2.098-1.3711-3.328-3.4746-3.328zm1.4824 1.5h1.1192c1.3242 0 2.039.756 2.039 2.057 0 2.044-1.2129 3.392-2.9062 3.392h-1.4297zm5.1202 6.955h1.6816l1.336-6.299h-1.6817zm2.5137-6.973c.5097 0 .9082-.392.9082-.902s-.3985-.908-.9082-.908c-.5157 0-.9141.398-.9141.908s.3984.902.9141.902zm1.2354 2.549c0 .867.5097 1.424 1.6699 1.805l.5566.187c.6739.217.8672.364.8672.662 0 .405-.3984.692-.9961.692-.7207 0-1.1777-.363-1.2363-.879h-1.6055c.0469 1.248 1.125 2.098 2.7891 2.098 1.6113 0 2.7129-.85 2.7129-2.086 0-.838-.4629-1.319-1.6289-1.705l-.627-.211c-.6855-.223-.9023-.387-.9023-.715 0-.381.375-.645.9844-.645.6035 0 1.0371.34 1.0781.821h1.5234c-.0293-1.202-1.0781-2.034-2.5781-2.034-1.5703 0-2.6074.815-2.6074 2.01zm8.8467 3.112c-.7441 0-1.2304-.557-1.2304-1.366 0-1.248.7265-2.349 1.7578-2.349.7383 0 1.1953.539 1.1953 1.412 0 1.312-.7559 2.303-1.7227 2.303zm-2.3144 3.369.6914-3.241h.0351c.2461.786.961 1.284 1.8926 1.284 1.7813 0 3.1172-1.688 3.1172-3.967 0-1.553-.8379-2.531-2.1973-2.531-.7968 0-1.5293.38-1.9629 1.037h-.0351l.2051-.938h-1.6348l-1.7754 8.356zm8.7061-3.211c-.5566 0-.9375-.282-.9375-.709 0-.481.4394-.791 1.1602-.815l1.33-.052-.1172.533c-.1406.609-.7441 1.043-1.4355 1.043zm-.6738 1.254c.7793 0 1.4355-.34 1.7988-.856h.0352l-.1641.756h1.6172l.8613-4.049c.0234-.135.0469-.34.0469-.521 0-1.108-1.0137-1.869-2.5196-1.869-1.5351 0-2.6367.808-2.8593 2.044h1.582c.1172-.445.5215-.726 1.1543-.726.627 0 .9961.281.9961.721 0 .07 0 .134-.0234.234l-.0762.381-1.6172.058c-1.6992.059-2.7305.827-2.7305 2.098 0 1.002.8379 1.729 1.8985 1.729zm7.1299-.03c.2871 0 .5918-.029.7852-.07l.2636-1.26c-.0996.024-.205.03-.4218.03-.5039 0-.7676-.159-.7676-.551 0-.106.0176-.258.0469-.387l.5918-2.713h1.2832l.2695-1.312h-1.2891l.3282-1.53h-1.6758l-.3164 1.53h-.9375l-.2754 1.312h.9375l-.6387 2.965c-.0527.246-.0644.469-.0644.627 0 .908.7382 1.359 1.8808 1.359zm5.4542-6.509c-2.0508 0-3.3985 1.564-3.3985 3.849 0 1.629 1.0254 2.731 2.7657 2.731 1.5356 0 2.7426-1.008 2.9886-2.432h-1.612c-.187.621-.6676 1.008-1.318 1.008-.6914 0-1.1426-.528-1.1426-1.377 0-1.389.6797-2.361 1.6523-2.361.6973 0 1.1133.451 1.1253 1.054h1.605c0-.029 0-.041 0-.193 0-1.248-1.025-2.279-2.6658-2.279zm2.7528 6.439h1.67l.791-3.732c.17-.774.774-1.307 1.524-1.307.668 0 1.095.404 1.095.973 0 .146-.017.304-.058.486l-.768 3.58h1.664l.826-3.855c.053-.27.082-.528.082-.756 0-1.02-.773-1.805-1.957-1.805-.92 0-1.629.439-2.039 1.084h-.035l.674-3.123h-1.67zm9.228-3.826c.199-.768.773-1.33 1.553-1.33.791 0 1.189.533 1.189 1.154 0 .059-.006.135-.012.176zm1.049 3.967c1.517 0 2.666-.891 2.988-2.145h-1.576c-.194.504-.68.844-1.348.844-.797 0-1.295-.574-1.295-1.406 0-.065.006-.129.012-.2h4.394c.065-.298.088-.673.088-.978 0-1.647-1.078-2.695-2.701-2.695-1.986 0-3.346 1.623-3.346 3.744 0 1.722 1.032 2.836 2.784 2.836zm3.514-.141h1.676l.727-3.41c.216-.973.756-1.477 1.652-1.477.34 0 .65.088.867.188l.328-1.535c-.193-.094-.463-.159-.797-.159-.732 0-1.3.393-1.634.973h-.035l.175-.879h-1.617z"/><path d="m220.662 161.576.569-2.601h1.488c.785 0 1.248.41 1.248 1.125 0 .867-.697 1.476-1.734 1.476zm-.92-4.031-1.798 8.455h1.787l.656-3.064h1.5l.955 3.064h1.852l-1.061-3.258c1.359-.41 2.133-1.558 2.133-2.806 0-1.401-.955-2.391-2.643-2.391zm7.927 4.629c.199-.768.774-1.33 1.553-1.33.791 0 1.189.533 1.189 1.154 0 .059-.005.135-.011.176zm1.049 3.967c1.518 0 2.666-.891 2.988-2.145h-1.576c-.193.504-.679.844-1.347.844-.797 0-1.295-.574-1.295-1.406 0-.065.005-.129.011-.2h4.395c.064-.298.088-.673.088-.978 0-1.647-1.078-2.695-2.701-2.695-1.987 0-3.346 1.623-3.346 3.744 0 1.722 1.031 2.836 2.783 2.836zm6.146-.041c.832 0 1.541-.393 1.963-1.038h.035l-.199.938h1.646l1.799-8.455h-1.67l-.715 3.287h-.035c-.205-.727-.938-1.23-1.893-1.23-1.787 0-3.14 1.693-3.14 3.966 0 1.547.849 2.532 2.209 2.532zm.691-1.377c-.732 0-1.189-.545-1.189-1.395 0-1.33.75-2.32 1.716-2.32.75 0 1.237.556 1.237 1.365 0 1.307-.774 2.35-1.764 2.35zm11.12-5.022h-1.676l-.779 3.674c-.176.797-.744 1.318-1.5 1.318-.685 0-1.043-.334-1.043-.978 0-.135.024-.34.053-.504l.75-3.51h-1.676l-.797 3.785c-.052.246-.082.58-.082.838 0 1.067.75 1.817 1.951 1.817.914 0 1.682-.481 2.022-1.108h.035l-.205.967h1.611zm3.656-.14c-2.051 0-3.399 1.564-3.399 3.849 0 1.629 1.026 2.731 2.766 2.731 1.535 0 2.742-1.008 2.988-2.432h-1.611c-.188.621-.668 1.008-1.319 1.008-.691 0-1.142-.528-1.142-1.377 0-1.389.679-2.361 1.652-2.361.697 0 1.113.451 1.125 1.054h1.606c0-.029 0-.041 0-.193 0-1.248-1.026-2.279-2.666-2.279zm4.897 2.613c.199-.768.774-1.33 1.553-1.33.791 0 1.189.533 1.189 1.154 0 .059-.006.135-.011.176zm1.049 3.967c1.518 0 2.666-.891 2.988-2.145h-1.576c-.193.504-.68.844-1.348.844-.796 0-1.295-.574-1.295-1.406 0-.065.006-.129.012-.2h4.395c.064-.298.088-.673.088-.978 0-1.647-1.078-2.695-2.702-2.695-1.986 0-3.345 1.623-3.345 3.744 0 1.722 1.031 2.836 2.783 2.836zm3.515-.141h1.675l.727-3.41c.217-.973.756-1.477 1.652-1.477.34 0 .651.088.868.188l.328-1.535c-.194-.094-.463-.159-.797-.159-.733 0-1.301.393-1.635.973h-.035l.176-.879h-1.618zm-39.623 14.645h1.734c.012-.077.018-.159.012-.282-.053-1.763-1.448-2.959-3.387-2.959-2.766 0-4.635 2.098-4.635 5.133 0 2.192 1.412 3.604 3.61 3.604 1.98 0 3.539-1.202 3.92-3.03h-1.741c-.322.92-1.113 1.483-2.086 1.483-1.166 0-1.881-.821-1.881-2.156 0-2.04 1.096-3.499 2.678-3.499.973 0 1.711.61 1.77 1.512.006.117.006.158.006.194zm4.938 4.113c-.726 0-1.201-.592-1.201-1.477 0-1.336.738-2.338 1.746-2.338.727 0 1.195.586 1.195 1.477 0 1.324-.738 2.338-1.74 2.338zm.604-5.197c-2.022 0-3.498 1.599-3.498 3.755 0 1.694 1.13 2.825 2.841 2.825 2.022 0 3.498-1.606 3.498-3.762 0-1.688-1.13-2.818-2.841-2.818zm3.098 6.439h1.67l.791-3.732c.176-.791.768-1.307 1.483-1.307.644 0 1.078.375 1.078.955 0 .141-.018.305-.059.504l-.756 3.58h1.664l.815-3.855c.053-.276.082-.545.082-.768 0-1.072-.809-1.816-1.94-1.816-.873 0-1.623.41-2.05 1.107h-.035l.205-.967h-1.612zm9.714.07c.287 0 .592-.029.785-.07l.264-1.26c-.099.024-.205.03-.422.03-.504 0-.767-.159-.767-.551 0-.106.017-.258.047-.387l.591-2.713h1.284l.269-1.312h-1.289l.328-1.53h-1.676l-.316 1.53h-.938l-.275 1.312h.938l-.639 2.965c-.053.246-.065.469-.065.627 0 .908.739 1.359 1.881 1.359zm1.663-.07h1.676l.727-3.41c.217-.973.756-1.477 1.652-1.477.34 0 .651.088.867.188l.328-1.535c-.193-.094-.462-.159-.796-.159-.733 0-1.301.393-1.635.973h-.035l.175-.879h-1.617zm7.921-1.242c-.726 0-1.201-.592-1.201-1.477 0-1.336.739-2.338 1.746-2.338.727 0 1.196.586 1.196 1.477 0 1.324-.739 2.338-1.741 2.338zm.604-5.197c-2.022 0-3.498 1.599-3.498 3.755 0 1.694 1.131 2.825 2.842 2.825 2.021 0 3.498-1.606 3.498-3.762 0-1.688-1.131-2.818-2.842-2.818zm3.157 6.439h1.676l1.799-8.455h-1.676zm2.947 0h1.675l1.799-8.455h-1.676zm5.067-3.826c.199-.768.773-1.33 1.553-1.33.791 0 1.189.533 1.189 1.154 0 .059-.006.135-.011.176zm1.049 3.967c1.517 0 2.666-.891 2.988-2.145h-1.576c-.193.504-.68.844-1.348.844-.797 0-1.295-.574-1.295-1.406 0-.065.006-.129.012-.2h4.395c.064-.298.088-.673.088-.978 0-1.647-1.079-2.695-2.702-2.695-1.986 0-3.345 1.623-3.345 3.744 0 1.722 1.031 2.836 2.783 2.836zm3.515-.141h1.675l.727-3.41c.217-.973.756-1.477 1.652-1.477.34 0 .651.088.867.188l.329-1.535c-.194-.094-.463-.159-.797-.159-.733 0-1.301.393-1.635.973h-.035l.176-.879h-1.618z"/><path d="m380.191 163.51c.035 1.658 1.435 2.631 3.457 2.631 2.115 0 3.398-1.19 3.398-2.766 0-1.154-.685-1.816-2.15-2.256l-.744-.228c-.85-.252-1.196-.563-1.196-1.043 0-.539.516-1.008 1.448-1.008.943 0 1.535.463 1.564 1.137h1.658c-.006-1.606-1.295-2.573-3.246-2.573-1.887 0-3.228 1.061-3.228 2.655 0 1.154.715 1.875 2.121 2.308l.726.229c.92.281 1.225.556 1.225 1.066 0 .65-.645 1.037-1.547 1.037-.99 0-1.687-.492-1.781-1.189zm10.013 2.56c.287 0 .591-.029.785-.07l.263-1.26c-.099.024-.205.03-.422.03-.503 0-.767-.159-.767-.551 0-.106.017-.258.047-.387l.592-2.713h1.283l.269-1.312h-1.289l.328-1.53h-1.675l-.317 1.53h-.937l-.276 1.312h.938l-.639 2.965c-.053.246-.064.469-.064.627 0 .908.738 1.359 1.881 1.359zm4.393-1.224c-.557 0-.937-.282-.937-.709 0-.481.439-.791 1.16-.815l1.33-.052-.117.533c-.141.609-.744 1.043-1.436 1.043zm-.674 1.254c.78 0 1.436-.34 1.799-.856h.035l-.164.756h1.617l.862-4.049c.023-.135.047-.34.047-.521 0-1.108-1.014-1.869-2.52-1.869-1.535 0-2.637.808-2.859 2.044h1.582c.117-.445.521-.726 1.154-.726.627 0 .996.281.996.721 0 .07 0 .134-.023.234l-.076.381-1.618.058c-1.699.059-2.73.827-2.73 2.098 0 1.002.838 1.729 1.898 1.729zm7.13-.03c.287 0 .592-.029.785-.07l.264-1.26c-.1.024-.205.03-.422.03-.504 0-.767-.159-.767-.551 0-.106.017-.258.047-.387l.591-2.713h1.284l.269-1.312h-1.289l.328-1.53h-1.676l-.316 1.53h-.938l-.275 1.312h.938l-.639 2.965c-.053.246-.065.469-.065.627 0 .908.739 1.359 1.881 1.359zm3.796-3.896c.199-.768.774-1.33 1.553-1.33.791 0 1.189.533 1.189 1.154 0 .059-.005.135-.011.176zm1.049 3.967c1.518 0 2.666-.891 2.988-2.145h-1.576c-.193.504-.68.844-1.347.844-.797 0-1.295-.574-1.295-1.406 0-.065.005-.129.011-.2h4.395c.064-.298.088-.673.088-.978 0-1.647-1.078-2.695-2.701-2.695-1.987 0-3.346 1.623-3.346 3.744 0 1.722 1.031 2.836 2.783 2.836zm-26.094 17.369c.035 1.658 1.436 2.631 3.457 2.631 2.115 0 3.399-1.19 3.399-2.766 0-1.154-.686-1.816-2.151-2.256l-.744-.228c-.85-.252-1.195-.563-1.195-1.043 0-.539.515-1.008 1.447-1.008.943 0 1.535.463 1.564 1.137h1.659c-.006-1.606-1.295-2.573-3.247-2.573-1.886 0-3.228 1.061-3.228 2.655 0 1.154.715 1.875 2.121 2.308l.727.229c.92.281 1.224.556 1.224 1.066 0 .65-.644 1.037-1.547 1.037-.99 0-1.687-.492-1.781-1.189zm10.013 2.56c.287 0 .592-.029.785-.07l.264-1.26c-.1.024-.205.03-.422.03-.504 0-.768-.159-.768-.551 0-.106.018-.258.047-.387l.592-2.713h1.283l.27-1.312h-1.289l.328-1.53h-1.676l-.317 1.53h-.937l-.275 1.312h.937l-.639 2.965c-.052.246-.064.469-.064.627 0 .908.738 1.359 1.881 1.359zm4.95-1.312c-.727 0-1.201-.592-1.201-1.477 0-1.336.738-2.338 1.746-2.338.727 0 1.195.586 1.195 1.477 0 1.324-.738 2.338-1.74 2.338zm.604-5.197c-2.022 0-3.498 1.599-3.498 3.755 0 1.694 1.13 2.825 2.841 2.825 2.022 0 3.498-1.606 3.498-3.762 0-1.688-1.13-2.818-2.841-2.818zm3.098 6.439h1.676l.727-3.41c.216-.973.755-1.477 1.652-1.477.34 0 .65.088.867.188l.328-1.535c-.193-.094-.463-.159-.797-.159-.732 0-1.3.393-1.634.973h-.036l.176-.879h-1.617zm6.767-3.826c.199-.768.773-1.33 1.553-1.33.791 0 1.189.533 1.189 1.154 0 .059-.006.135-.012.176zm1.049 3.967c1.517 0 2.666-.891 2.988-2.145h-1.576c-.193.504-.68.844-1.348.844-.797 0-1.295-.574-1.295-1.406 0-.065.006-.129.012-.2h4.395c.064-.298.087-.673.087-.978 0-1.647-1.078-2.695-2.701-2.695-1.986 0-3.345 1.623-3.345 3.744 0 1.722 1.031 2.836 2.783 2.836z"/><path d="m536.207 166 4.629-8.455h-1.998l-3.293 6.451h-.035l-.586-6.451h-1.899l1.09 8.455zm3.55 0h1.681l1.336-6.299h-1.681zm2.513-6.973c.51 0 .909-.392.909-.902s-.399-.908-.909-.908c-.515 0-.914.398-.914.908s.399.902.914.902zm2.531 3.147c.199-.768.773-1.33 1.553-1.33.791 0 1.189.533 1.189 1.154 0 .059-.006.135-.012.176zm1.049 3.967c1.517 0 2.666-.891 2.988-2.145h-1.576c-.194.504-.68.844-1.348.844-.797 0-1.295-.574-1.295-1.406 0-.065.006-.129.012-.2h4.394c.065-.298.088-.673.088-.978 0-1.647-1.078-2.695-2.701-2.695-1.986 0-3.346 1.623-3.346 3.744 0 1.722 1.032 2.836 2.784 2.836zm13.352-6.44h-1.711l-1.939 4.623h-.035l-.129-4.623h-1.635l-2.063 4.623h-.029l-.017-4.623h-1.623l.334 6.299h1.828l2.027-4.43h.035l.188 4.43h1.799zm-39.718 20.944h1.734c.012-.077.018-.159.012-.282-.053-1.763-1.448-2.959-3.387-2.959-2.766 0-4.635 2.098-4.635 5.133 0 2.192 1.412 3.604 3.61 3.604 1.98 0 3.539-1.202 3.919-3.03h-1.74c-.322.92-1.113 1.483-2.086 1.483-1.166 0-1.881-.821-1.881-2.156 0-2.04 1.096-3.499 2.678-3.499.973 0 1.711.61 1.77 1.512.006.117.006.158.006.194zm4.938 4.113c-.726 0-1.201-.592-1.201-1.477 0-1.336.738-2.338 1.746-2.338.727 0 1.195.586 1.195 1.477 0 1.324-.738 2.338-1.74 2.338zm.604-5.197c-2.022 0-3.498 1.599-3.498 3.755 0 1.694 1.13 2.825 2.841 2.825 2.022 0 3.498-1.606 3.498-3.762 0-1.688-1.13-2.818-2.841-2.818zm3.098 6.439h1.67l.815-3.838c.152-.726.691-1.201 1.277-1.201.551 0 .879.369.879.873 0 .146-.018.305-.059.48l-.773 3.686h1.611l.809-3.838c.164-.75.697-1.201 1.283-1.201.551 0 .879.369.879.873 0 .146-.018.305-.059.48l-.773 3.686h1.664l.832-3.943c.053-.264.082-.516.082-.745 0-1.025-.744-1.751-1.758-1.751-.961 0-1.664.492-2.097 1.125h-.03c-.181-.639-.785-1.125-1.617-1.125-.797 0-1.512.474-1.869 1.142h-.035l.217-1.002h-1.612zm13.88-1.312c-.744 0-1.23-.557-1.23-1.366 0-1.248.726-2.349 1.758-2.349.738 0 1.195.539 1.195 1.412 0 1.312-.756 2.303-1.723 2.303zm-2.314 3.369.691-3.241h.035c.246.786.961 1.284 1.893 1.284 1.781 0 3.117-1.688 3.117-3.967 0-1.553-.838-2.531-2.197-2.531-.797 0-1.529.38-1.963 1.037h-.035l.205-.938h-1.635l-1.775 8.356zm9.309-3.299c-.726 0-1.201-.592-1.201-1.477 0-1.336.739-2.338 1.746-2.338.727 0 1.196.586 1.196 1.477 0 1.324-.739 2.338-1.741 2.338zm.604-5.197c-2.021 0-3.498 1.599-3.498 3.755 0 1.694 1.131 2.825 2.842 2.825 2.021 0 3.498-1.606 3.498-3.762 0-1.688-1.131-2.818-2.842-2.818zm3.099 6.439h1.67l.791-3.732c.175-.791.767-1.307 1.482-1.307.645 0 1.078.375 1.078.955 0 .141-.017.305-.058.504l-.756 3.58h1.664l.814-3.855c.053-.276.082-.545.082-.768 0-1.072-.808-1.816-1.939-1.816-.873 0-1.623.41-2.051 1.107h-.035l.205-.967h-1.611zm9.169-3.826c.199-.768.773-1.33 1.552-1.33.791 0 1.19.533 1.19 1.154 0 .059-.006.135-.012.176zm1.049 3.967c1.517 0 2.666-.891 2.988-2.145h-1.576c-.194.504-.68.844-1.348.844-.797 0-1.295-.574-1.295-1.406 0-.065.006-.129.012-.2h4.394c.065-.298.088-.673.088-.978 0-1.647-1.078-2.695-2.701-2.695-1.986 0-3.346 1.623-3.346 3.744 0 1.722 1.032 2.836 2.784 2.836zm3.514-.141h1.67l.791-3.732c.176-.791.768-1.307 1.483-1.307.644 0 1.078.375 1.078.955 0 .141-.018.305-.059.504l-.756 3.58h1.664l.815-3.855c.053-.276.082-.545.082-.768 0-1.072-.809-1.816-1.94-1.816-.873 0-1.623.41-2.05 1.107h-.036l.206-.967h-1.612zm9.714.07c.287 0 .592-.029.785-.07l.264-1.26c-.1.024-.205.03-.422.03-.504 0-.767-.159-.767-.551 0-.106.017-.258.046-.387l.592-2.713h1.283l.27-1.312h-1.289l.328-1.53h-1.676l-.316 1.53h-.938l-.275 1.312h.937l-.638 2.965c-.053.246-.065.469-.065.627 0 .908.739 1.359 1.881 1.359z"/></g><rect height="44" rx="3.5" stroke="#bdbdbd" stroke-width="3" width="118" x="182.5" y="32.5"/><path d="m223.473 51.5449h-1.77v5.4668c0 1.8633 1.377 3.1348 3.545 3.1348 2.162 0 3.539-1.2715 3.539-3.1348v-5.4668h-1.769v5.291c0 1.084-.639 1.793-1.77 1.793-1.137 0-1.775-.709-1.775-1.793zm10.264 2.0742c-.908 0-1.605.4571-1.945 1.1954h-.035v-1.0957h-1.688v8.332h1.711v-3.1055h.035c.334.709 1.038 1.1543 1.952 1.1543 1.57 0 2.543-1.2187 2.543-3.2402 0-2.0274-.979-3.2403-2.573-3.2403zm-.574 5.1036c-.838 0-1.389-.7266-1.389-1.8633 0-1.125.551-1.8692 1.389-1.8692.856 0 1.395.7325 1.395 1.8692 0 1.1426-.539 1.8633-1.395 1.8633zm6.38 1.3769c.926 0 1.652-.4863 1.957-1.1777h.029v1.0781h1.688v-8.4551h-1.711v3.252h-.035c-.305-.6973-1.008-1.1778-1.916-1.1778-1.576 0-2.572 1.2364-2.572 3.2286 0 2.0097.99 3.2519 2.56 3.2519zm.58-5.1094c.85 0 1.395.7266 1.395 1.8692 0 1.1484-.545 1.8633-1.395 1.8633-.861 0-1.388-.709-1.388-1.8633 0-1.1485.527-1.8692 1.388-1.8692zm6.679 3.8731c-.58 0-.967-.293-.967-.7617 0-.4454.363-.7325 1.002-.7793l1.324-.0821v.4571c0 .6797-.615 1.166-1.359 1.166zm-.563 1.2363c.786 0 1.565-.3926 1.916-1.0605h.036v.9609h1.652v-4.3184c0-1.2656-1.049-2.0976-2.66-2.0976-1.664 0-2.701.8379-2.766 2.0566h1.565c.082-.4629.486-.7793 1.125-.7793.644 0 1.054.3399 1.054.9258v.416l-1.582.0938c-1.564.0937-2.443.7558-2.443 1.8984 0 1.1309.908 1.9043 2.103 1.9043zm5.185-7.8281v1.4473h-.885v1.289h.885v3.2988c0 1.2246.574 1.7168 2.051 1.7168.346 0 .639-.0293.814-.0703v-1.2597c-.105.0175-.263.0293-.416.0293-.504 0-.738-.2286-.738-.709v-3.0059h1.16v-1.289h-1.16v-1.4473zm6.55 2.5781c.762 0 1.283.5508 1.318 1.3535h-2.666c.059-.7851.598-1.3535 1.348-1.3535zm1.342 3.2285c-.158.4805-.639.791-1.266.791-.873 0-1.441-.6152-1.441-1.5117v-.1054h4.33v-.5215c0-1.9102-1.154-3.1465-2.983-3.1465-1.857 0-3.029 1.3008-3.029 3.3047 0 2.0097 1.16 3.2461 3.094 3.2461 1.553 0 2.678-.8262 2.865-2.0567z" fill="#000"/><rect height="44" rx="3.5" stroke="#bdbdbd" stroke-width="3" width="118" x="486.5" y="32.5"/><path d="m528.473 52.9277h1.506c.878 0 1.429.5274 1.429 1.3477 0 .8379-.521 1.3476-1.412 1.3476h-1.523zm0 3.9785h1.418l1.576 3.0938h2.004l-1.782-3.3574c.973-.3809 1.536-1.3184 1.536-2.4024 0-1.6699-1.114-2.6953-3.059-2.6953h-3.463v8.4551h1.77zm8.548-2.0566c.761 0 1.283.5508 1.318 1.3535h-2.666c.059-.7851.598-1.3535 1.348-1.3535zm1.341 3.2285c-.158.4805-.638.791-1.265.791-.873 0-1.442-.6152-1.442-1.5117v-.1054h4.33v-.5215c0-1.9102-1.154-3.1465-2.982-3.1465-1.857 0-3.029 1.3008-3.029 3.3047 0 2.0097 1.16 3.2461 3.093 3.2461 1.553 0 2.678-.8262 2.866-2.0567zm2.525 1.9219h1.711v-3.6035c0-.8145.486-1.377 1.254-1.377.767 0 1.154.4688 1.154 1.2891v3.6914h1.711v-4.0488c0-1.4707-.785-2.3496-2.18-2.3496-.967 0-1.629.457-1.963 1.2363h-.035v-1.1191h-1.652zm9.263.0996c.925 0 1.652-.4863 1.957-1.1777h.029v1.0781h1.687v-8.4551h-1.711v3.252h-.035c-.304-.6973-1.007-1.1778-1.916-1.1778-1.576 0-2.572 1.2364-2.572 3.2286 0 2.0097.99 3.2519 2.561 3.2519zm.58-5.1094c.849 0 1.394.7266 1.394 1.8692 0 1.1484-.545 1.8633-1.394 1.8633-.862 0-1.389-.709-1.389-1.8633 0-1.1485.527-1.8692 1.389-1.8692zm7.071-.1406c.762 0 1.283.5508 1.318 1.3535h-2.666c.059-.7851.598-1.3535 1.348-1.3535zm1.342 3.2285c-.158.4805-.639.791-1.266.791-.873 0-1.441-.6152-1.441-1.5117v-.1054h4.33v-.5215c0-1.9102-1.154-3.1465-2.983-3.1465-1.857 0-3.029 1.3008-3.029 3.3047 0 2.0097 1.16 3.2461 3.094 3.2461 1.553 0 2.678-.8262 2.865-2.0567zm2.524 1.9219h1.711v-3.5098c0-.8847.492-1.4004 1.336-1.4004.246 0 .481.0411.621.0997v-1.5059c-.117-.0352-.287-.0645-.486-.0645-.738 0-1.272.4336-1.494 1.2305h-.035v-1.1308h-1.653z" fill="#000"/><rect height="44" rx="3.5" stroke="#bdbdbd" stroke-width="3" width="118" x="334.5" y="32.5"/><g fill="#000"><path d="m385.656 60v-8.4551h-2.051l-2.402 5.9942h-.047l-2.402-5.9942h-2.051v8.4551h1.576v-5.707h.047l2.297 5.625h1.113l2.297-5.625h.047v5.707zm4.159.1348c1.899 0 3.112-1.2129 3.112-3.2813 0-2.039-1.231-3.2695-3.112-3.2695-1.88 0-3.111 1.2363-3.111 3.2695 0 2.0625 1.213 3.2813 3.111 3.2813zm0-1.3067c-.843 0-1.376-.709-1.376-1.9687 0-1.2481.544-1.9688 1.376-1.9688.833 0 1.372.7207 1.372 1.9688 0 1.2597-.534 1.9687-1.372 1.9687zm6.345 1.2715c.926 0 1.653-.4863 1.957-1.1777h.03v1.0781h1.687v-8.4551h-1.711v3.252h-.035c-.305-.6973-1.008-1.1778-1.916-1.1778-1.576 0-2.572 1.2364-2.572 3.2286 0 2.0097.99 3.2519 2.56 3.2519zm.58-5.1094c.85 0 1.395.7266 1.395 1.8692 0 1.1484-.545 1.8633-1.395 1.8633-.861 0-1.388-.709-1.388-1.8633 0-1.1485.527-1.8692 1.388-1.8692zm7.072-.1406c.761 0 1.283.5508 1.318 1.3535h-2.666c.059-.7851.598-1.3535 1.348-1.3535zm1.342 3.2285c-.159.4805-.639.791-1.266.791-.873 0-1.442-.6152-1.442-1.5117v-.1054h4.331v-.5215c0-1.9102-1.155-3.1465-2.983-3.1465-1.857 0-3.029 1.3008-3.029 3.3047 0 2.0097 1.16 3.2461 3.094 3.2461 1.552 0 2.677-.8262 2.865-2.0567zm2.565 1.9219h1.711v-8.4551h-1.711z"/><path d="m177.707 63.7071c.391-.3905.391-1.0237 0-1.4142l-6.364-6.364c-.39-.3905-1.024-.3905-1.414 0-.391.3906-.391 1.0237 0 1.4142l5.657 5.6569-5.657 5.6569c-.391.3905-.391 1.0236 0 1.4142.39.3905 1.024.3905 1.414 0zm-22.707.2929h22v-2h-22z"/><path d="m177.707 43.7071c.391-.3905.391-1.0237 0-1.4142l-6.364-6.364c-.39-.3905-1.024-.3905-1.414 0-.391.3906-.391 1.0237 0 1.4142l5.657 5.6569-5.657 5.6569c-.391.3905-.391 1.0236 0 1.4142.39.3905 1.024.3905 1.414 0zm-22.707.2929h22v-2h-22z"/><path d="m328.707 54.7071c.391-.3905.391-1.0237 0-1.4142l-6.364-6.364c-.39-.3905-1.024-.3905-1.414 0-.391.3906-.391 1.0237 0 1.4142l5.657 5.6569-5.657 5.6569c-.391.3905-.391 1.0236 0 1.4142.39.3905 1.024.3905 1.414 0zm-21.707.2929h21v-2h-21z"/><path d="m481.707 54.7071c.391-.3905.391-1.0237 0-1.4142l-6.364-6.364c-.39-.3905-1.024-.3905-1.414 0-.391.3906-.391 1.0237 0 1.4142l5.657 5.6569-5.657 5.6569c-.391.3905-.391 1.0236 0 1.4142.39.3905 1.024.3905 1.414 0zm-23.707.2929h23v-2h-23z"/></g><path d="m29 128.5h577" stroke="#bdbdbd"/><path d="m267 115h101v24h-101z" fill="#fff"/><path d="m284.24 132h1.881l-2.941-8.455h-2.08l-2.936 8.455h1.816l.645-2.051h2.971zm-2.15-6.838h.041l1.084 3.463h-2.209zm4.809 6.838h1.711v-8.455h-1.711zm2.777-4.436c0 .926.609 1.547 1.799 1.817l1.16.258c.562.134.773.31.773.627 0 .41-.392.668-1.043.668-.679 0-1.095-.305-1.177-.832h-1.67c.093 1.224 1.125 2.033 2.8 2.033 1.659 0 2.795-.815 2.795-2.051 0-.938-.509-1.436-1.769-1.717l-1.201-.258c-.551-.129-.821-.339-.821-.65 0-.404.387-.674.979-.674.633 0 1.037.311 1.072.815h1.576c-.023-1.219-1.048-2.016-2.625-2.016-1.611 0-2.648.785-2.648 1.98zm9.192 4.571c1.899 0 3.112-1.213 3.112-3.281 0-2.04-1.231-3.27-3.112-3.27s-3.111 1.236-3.111 3.27c0 2.062 1.213 3.281 3.111 3.281zm0-1.307c-.843 0-1.377-.709-1.377-1.969 0-1.248.545-1.968 1.377-1.968s1.371.72 1.371 1.968c0 1.26-.533 1.969-1.371 1.969zm8.184-2.59h-.023v-4.693h-1.711v8.455h1.711v-2.074l.445-.481 1.799 2.555h1.969l-2.514-3.586 2.396-2.695h-1.939zm4.698 3.762h1.711v-3.604c0-.814.487-1.376 1.254-1.376.768 0 1.155.468 1.155 1.289v3.691h1.71v-4.049c0-1.471-.785-2.349-2.179-2.349-.967 0-1.629.457-1.963 1.236h-.035v-1.119h-1.653zm9.814.135c1.898 0 3.111-1.213 3.111-3.281 0-2.04-1.23-3.27-3.111-3.27s-3.111 1.236-3.111 3.27c0 2.062 1.212 3.281 3.111 3.281zm0-1.307c-.844 0-1.377-.709-1.377-1.969 0-1.248.545-1.968 1.377-1.968s1.371.72 1.371 1.968c0 1.26-.533 1.969-1.371 1.969zm12.767-5.109h-1.688l-.955 4.658h-.035l-1.119-4.658h-1.641l-1.113 4.658h-.035l-.95-4.658h-1.722l1.67 6.281h1.799l1.13-4.441h.036l1.136 4.441h1.823zm.684 6.281h1.711v-3.604c0-.814.487-1.376 1.254-1.376.768 0 1.154.468 1.154 1.289v3.691h1.711v-4.049c0-1.471-.785-2.349-2.179-2.349-.967 0-1.629.457-1.963 1.236h-.035v-1.119h-1.653zm11.752-1.137c-.58 0-.966-.293-.966-.761 0-.446.363-.733 1.001-.78l1.325-.082v.457c0 .68-.616 1.166-1.36 1.166zm-.562 1.237c.785 0 1.564-.393 1.916-1.061h.035v.961h1.652v-4.318c0-1.266-1.048-2.098-2.66-2.098-1.664 0-2.701.838-2.765 2.057h1.564c.082-.463.486-.78 1.125-.78.645 0 1.055.34 1.055.926v.416l-1.582.094c-1.565.094-2.444.756-2.444 1.898 0 1.131.909 1.905 2.104 1.905zm4.622-4.536c0 .926.609 1.547 1.799 1.817l1.16.258c.562.134.773.31.773.627 0 .41-.392.668-1.043.668-.679 0-1.095-.305-1.177-.832h-1.67c.093 1.224 1.125 2.033 2.801 2.033 1.658 0 2.794-.815 2.794-2.051 0-.938-.509-1.436-1.769-1.717l-1.201-.258c-.551-.129-.821-.339-.821-.65 0-.404.387-.674.979-.674.633 0 1.037.311 1.072.815h1.576c-.023-1.219-1.048-2.016-2.625-2.016-1.611 0-2.648.785-2.648 1.98z" fill="#bdbdbd"/></svg>