<svg width="120" height="120" viewBox="0 0 120 120" fill="none" xmlns="http://www.w3.org/2000/svg">
<path d="M76.47 32C71.55 32 66.94 33.27 62.92 35.5C65.15 37.23 67.13 39.26 68.82 41.52C71.18 40.54 73.76 40 76.47 40C87.5 40 96.44 48.94 96.44 59.97C96.44 71 87.5 79.94 76.47 79.94C65.44 79.94 56.5 71 56.5 59.97C56.5 56.85 57.23 53.92 58.51 51.29C57.06 48.87 55.03 46.83 52.6 45.39C50 49.64 48.5 54.63 48.5 59.97C48.5 75.42 61.02 87.94 76.47 87.94C91.92 87.94 104.44 75.42 104.44 59.97C104.44 44.52 91.92 32 76.47 32Z" fill="#B263F9"/>
<path d="M51.61 78.41C49.25 79.39 46.68 79.93 43.97 79.93C32.94 79.93 24 70.99 24 59.96C24 48.93 32.94 39.99 43.97 39.99C55 39.99 63.94 48.94 63.94 59.97C63.94 63.09 63.2 66.03 61.93 68.66C63.38 71.08 65.42 73.11 67.84 74.55C70.44 70.3 71.94 65.31 71.94 59.97C71.94 44.52 59.42 32 43.97 32C28.52 32 16 44.52 16 59.97C16 75.42 28.52 87.94 43.97 87.94C48.89 87.94 53.51 86.67 57.52 84.44C55.29 82.7 53.3 80.68 51.61 78.41Z" fill="#B263F9"/>
</svg>
